%TF.GenerationSoftware,KiCad,Pcbnew,10.0.5-10.0.5~ubuntu22.04.1*%
%TF.CreationDate,2026-08-21T09:44:32+07:00*%
%TF.ProjectId,esp32-e220,65737033-322d-4653-9232-302e6b696361,rev?*%
%TF.SameCoordinates,Original*%
%TF.FileFunction,Copper,L2,Bot*%
%TF.FilePolarity,Positive*%
%FSLAX46Y46*%
G04 Gerber Fmt 4.6, Leading zero omitted, Abs format (unit mm)*
G04 Created by KiCad (PCBNEW 10.0.5-10.0.5~ubuntu22.04.1) date 2026-08-21 09:44:32*
%MOMM*%
%LPD*%
G01*
G04 APERTURE LIST*
%TA.AperFunction,ComponentPad*%
%ADD10R,1.700000X1.700000*%
%TD*%
%TA.AperFunction,ComponentPad*%
%ADD11O,1.700000X1.700000*%
%TD*%
%TA.AperFunction,ComponentPad*%
%ADD12C,2.000000*%
%TD*%
%TA.AperFunction,ComponentPad*%
%ADD13R,1.700000X2.000000*%
%TD*%
%TA.AperFunction,ComponentPad*%
%ADD14O,1.700000X2.000000*%
%TD*%
%TA.AperFunction,ViaPad*%
%ADD15C,0.600000*%
%TD*%
%TA.AperFunction,Conductor*%
%ADD16C,0.800000*%
%TD*%
%TA.AperFunction,Conductor*%
%ADD17C,1.000000*%
%TD*%
%TA.AperFunction,Conductor*%
%ADD18C,0.250000*%
%TD*%
%TA.AperFunction,Conductor*%
%ADD19C,0.500000*%
%TD*%
G04 APERTURE END LIST*
D10*
%TO.P,J3,1*%
%TO.N,/E220_M0*%
X7880000Y-53500000D03*
D11*
%TO.P,J3,2*%
%TO.N,/E220_M1*%
X10420000Y-53500000D03*
%TO.P,J3,3*%
%TO.N,/E220_RXD*%
X12960000Y-53500000D03*
%TO.P,J3,4*%
%TO.N,/E220_TXD*%
X15500000Y-53500000D03*
%TO.P,J3,5*%
%TO.N,/E220_AUX*%
X18040000Y-53500000D03*
%TO.P,J3,6*%
%TO.N,/5V_SYS*%
X20580000Y-53500000D03*
%TO.P,J3,7*%
%TO.N,/GND*%
X23120000Y-53500000D03*
%TD*%
D10*
%TO.P,J1,1*%
%TO.N,/DEVKIT_VIN*%
X111000000Y-14000000D03*
D11*
%TO.P,J1,2*%
%TO.N,/GND*%
X111000000Y-16540000D03*
%TO.P,J1,3*%
%TO.N,/GPIO13*%
X111000000Y-19080000D03*
%TO.P,J1,4*%
%TO.N,N/C*%
X111000000Y-21620000D03*
%TO.P,J1,5*%
%TO.N,/GPIO14*%
X111000000Y-24160000D03*
%TO.P,J1,6*%
%TO.N,/E220_AUX*%
X111000000Y-26700000D03*
%TO.P,J1,7*%
%TO.N,/E220_M1*%
X111000000Y-29240000D03*
%TO.P,J1,8*%
%TO.N,/E220_M0*%
X111000000Y-31780000D03*
%TO.P,J1,9*%
%TO.N,N/C*%
X111000000Y-34320000D03*
%TO.P,J1,10*%
%TO.N,/BAT_SENSE*%
X111000000Y-36860000D03*
%TO.P,J1,11*%
%TO.N,N/C*%
X111000000Y-39400000D03*
%TO.P,J1,12*%
X111000000Y-41940000D03*
%TO.P,J1,13*%
X111000000Y-44480000D03*
%TO.P,J1,14*%
X111000000Y-47020000D03*
%TO.P,J1,15*%
X111000000Y-49560000D03*
%TD*%
D10*
%TO.P,J9,1*%
%TO.N,/5V_SYS*%
X100000000Y-54000000D03*
D11*
%TO.P,J9,2*%
%TO.N,/WS2812_DATA_5V*%
X100000000Y-56540000D03*
%TO.P,J9,3*%
%TO.N,/GND*%
X100000000Y-59080000D03*
%TD*%
D10*
%TO.P,JP1,1*%
%TO.N,/5V_SYS*%
X96000000Y-14000000D03*
D11*
%TO.P,JP1,2*%
%TO.N,/DEVKIT_VIN*%
X98540000Y-14000000D03*
%TD*%
D12*
%TO.P,TP2,1*%
%TO.N,/GND*%
X53000000Y-87000000D03*
%TD*%
D13*
%TO.P,J8,1*%
%TO.N,/BAT_FUSED*%
X51000000Y-76000000D03*
D14*
%TO.P,J8,2*%
%TO.N,/BAT_SW*%
X53500000Y-76000000D03*
%TD*%
D10*
%TO.P,J2,1*%
%TO.N,/DEVKIT_3V3*%
X136400000Y-14000000D03*
D11*
%TO.P,J2,2*%
%TO.N,/GND*%
X136400000Y-16540000D03*
%TO.P,J2,3*%
%TO.N,N/C*%
X136400000Y-19080000D03*
%TO.P,J2,4*%
X136400000Y-21620000D03*
%TO.P,J2,5*%
%TO.N,/WS2812_DATA_3V3*%
X136400000Y-24160000D03*
%TO.P,J2,6*%
%TO.N,/E220_TXD*%
X136400000Y-26700000D03*
%TO.P,J2,7*%
%TO.N,/E220_RXD*%
X136400000Y-29240000D03*
%TO.P,J2,8*%
%TO.N,N/C*%
X136400000Y-31780000D03*
%TO.P,J2,9*%
%TO.N,/GPIO18*%
X136400000Y-34320000D03*
%TO.P,J2,10*%
%TO.N,/GPIO19*%
X136400000Y-36860000D03*
%TO.P,J2,11*%
%TO.N,/OLED_SDA*%
X136400000Y-39400000D03*
%TO.P,J2,12*%
%TO.N,N/C*%
X136400000Y-41940000D03*
%TO.P,J2,13*%
X136400000Y-44480000D03*
%TO.P,J2,14*%
%TO.N,/OLED_SCL*%
X136400000Y-47020000D03*
%TO.P,J2,15*%
%TO.N,/GPIO23*%
X136400000Y-49560000D03*
%TD*%
D12*
%TO.P,TP5,1*%
%TO.N,/5V_SYS*%
X68000000Y-87000000D03*
%TD*%
D13*
%TO.P,J4,1*%
%TO.N,/BAT_PLUS*%
X35000000Y-76000000D03*
D14*
%TO.P,J4,2*%
%TO.N,/GND*%
X37500000Y-76000000D03*
%TD*%
D12*
%TO.P,TP4,1*%
%TO.N,/5V_SYS*%
X63000000Y-87000000D03*
%TD*%
D10*
%TO.P,J5,1*%
%TO.N,/GND*%
X63000000Y-20000000D03*
D11*
%TO.P,J5,2*%
%TO.N,/AUX_3V3*%
X63000000Y-22540000D03*
%TO.P,J5,3*%
%TO.N,/OLED_SCL*%
X63000000Y-25080000D03*
%TO.P,J5,4*%
%TO.N,/OLED_SDA*%
X63000000Y-27620000D03*
%TD*%
D12*
%TO.P,TP1,1*%
%TO.N,/BAT_PLUS*%
X48000000Y-87000000D03*
%TD*%
D10*
%TO.P,J6,1*%
%TO.N,/GND*%
X94000000Y-18000000D03*
D11*
%TO.P,J6,2*%
%TO.N,/GPIO13*%
X94000000Y-20540000D03*
%TO.P,J6,3*%
%TO.N,/GPIO14*%
X94000000Y-23080000D03*
%TO.P,J6,4*%
%TO.N,/GPIO18*%
X94000000Y-25620000D03*
%TO.P,J6,5*%
%TO.N,/GPIO19*%
X94000000Y-28160000D03*
%TO.P,J6,6*%
%TO.N,/GPIO23*%
X94000000Y-30700000D03*
%TD*%
D12*
%TO.P,TP3,1*%
%TO.N,/BUCK_IN*%
X58000000Y-87000000D03*
%TD*%
D15*
%TO.N,/5V_SYS*%
X73100000Y-59225000D03*
X72800000Y-54850000D03*
X69750000Y-53750000D03*
X80000000Y-64000000D03*
%TO.N,/GND*%
X59500000Y-66275000D03*
X65950000Y-54225000D03*
X47500000Y-35000000D03*
X24725000Y-51000000D03*
X70500000Y-53000000D03*
X12000000Y-27000000D03*
X90725000Y-69000000D03*
X69900000Y-60300000D03*
X41500000Y-35000000D03*
X64550000Y-56000000D03*
X91000000Y-55000000D03*
X97000000Y-59080000D03*
X42200000Y-70500000D03*
X68700000Y-54000000D03*
X85500000Y-51900000D03*
X14000000Y-34000000D03*
X15500000Y-24700000D03*
X87200000Y-56500000D03*
X22030000Y-51000000D03*
X68700000Y-60300000D03*
%TO.N,/WS2812_DATA_3V3*%
X105000000Y-10000000D03*
X89000000Y-58000000D03*
%TO.N,/E220_M0*%
X104000000Y-31780000D03*
X97000000Y-39200000D03*
X92200000Y-39200000D03*
X27000000Y-39200000D03*
%TO.N,/E220_M1*%
X44000000Y-35000000D03*
X92900000Y-39900000D03*
X97700000Y-39900000D03*
X44000000Y-39900000D03*
X27800000Y-39900000D03*
X105000000Y-29240000D03*
%TO.N,/E220_RXD*%
X93600000Y-40600000D03*
X98400000Y-40600000D03*
X28600000Y-40600000D03*
X108500000Y-30510000D03*
%TO.N,/E220_TXD*%
X99100000Y-41300000D03*
X109300000Y-27970000D03*
X94300000Y-41300000D03*
X29400000Y-41300000D03*
%TO.N,/E220_AUX*%
X95000000Y-42000000D03*
X99800000Y-42000000D03*
X30200000Y-42000000D03*
X100500000Y-42000000D03*
%TO.N,/GPIO13*%
X98000000Y-20540000D03*
%TO.N,/GPIO14*%
X98000000Y-23080000D03*
%TO.N,/BAT_SENSE*%
X86725000Y-63000000D03*
%TO.N,/GPIO18*%
X115000000Y-20350000D03*
%TO.N,/GPIO19*%
X115000000Y-22890000D03*
%TO.N,/GPIO23*%
X118000000Y-38130000D03*
X99000000Y-30700000D03*
X102500000Y-30700000D03*
%TO.N,/Q1_GATE*%
X61650000Y-78500000D03*
X56500000Y-69000000D03*
%TD*%
%TO.N,/5V_SYS*%
D16*
X63000000Y-82000000D02*
X63000000Y-87000000D01*
X73000000Y-82000000D02*
X63000000Y-82000000D01*
X68000000Y-82000000D02*
X68000000Y-87000000D01*
D17*
X73100000Y-59225000D02*
X80000000Y-64000000D01*
D16*
X80000000Y-64000000D02*
X73000000Y-82000000D01*
X72800000Y-54850000D02*
X73100000Y-59225000D01*
D18*
X72800000Y-53750000D02*
X72800000Y-54850000D01*
X69750000Y-53750000D02*
X72800000Y-53750000D01*
%TO.N,/GND*%
D19*
X111000000Y-16540000D02*
X136400000Y-16540000D01*
D16*
X100000000Y-59080000D02*
X97000000Y-59080000D01*
X94000000Y-18000000D02*
X97000000Y-18000000D01*
X63000000Y-20000000D02*
X60000000Y-20000000D01*
D19*
X22030000Y-51000000D02*
X23120000Y-53500000D01*
X24725000Y-51000000D02*
X23120000Y-53500000D01*
D18*
X104000000Y-18000000D02*
X111000000Y-16540000D01*
X24725000Y-51000000D02*
X24725000Y-47900000D01*
%TO.N,/WS2812_DATA_3V3*%
X90000000Y-50000000D02*
X89000000Y-58000000D01*
X105000000Y-10000000D02*
X90000000Y-10000000D01*
X90000000Y-10000000D02*
X90000000Y-50000000D01*
%TO.N,/E220_M0*%
X104000000Y-31780000D02*
X111000000Y-31780000D01*
X92200000Y-39200000D02*
X97000000Y-39200000D01*
X7880000Y-53500000D02*
X27000000Y-39200000D01*
%TO.N,/E220_M1*%
X105000000Y-29240000D02*
X111000000Y-29240000D01*
X10420000Y-53500000D02*
X27800000Y-39900000D01*
X92900000Y-39900000D02*
X97700000Y-39900000D01*
X44000000Y-35000000D02*
X44000000Y-39900000D01*
%TO.N,/E220_RXD*%
X93600000Y-40600000D02*
X98400000Y-40600000D01*
X108500000Y-30510000D02*
X115000000Y-30510000D01*
X115000000Y-30510000D02*
X130000000Y-30510000D01*
X130000000Y-30510000D02*
X134000000Y-29240000D01*
X134000000Y-29240000D02*
X136400000Y-29240000D01*
X12960000Y-53500000D02*
X28600000Y-40600000D01*
%TO.N,/E220_TXD*%
X130000000Y-27970000D02*
X134000000Y-26700000D01*
X15500000Y-53500000D02*
X29400000Y-41300000D01*
X94300000Y-41300000D02*
X99100000Y-41300000D01*
X115000000Y-27970000D02*
X130000000Y-27970000D01*
X109300000Y-27970000D02*
X115000000Y-27970000D01*
X134000000Y-26700000D02*
X136400000Y-26700000D01*
%TO.N,/E220_AUX*%
X100500000Y-26700000D02*
X111000000Y-26700000D01*
X95000000Y-42000000D02*
X99800000Y-42000000D01*
X18040000Y-53500000D02*
X30200000Y-42000000D01*
X100500000Y-42000000D02*
X100500000Y-26700000D01*
%TO.N,/GPIO13*%
X94000000Y-20540000D02*
X98000000Y-20540000D01*
%TO.N,/GPIO14*%
X94000000Y-23080000D02*
X98000000Y-23080000D01*
%TO.N,/BAT_SENSE*%
X96000000Y-57000000D02*
X96000000Y-51000000D01*
X120000000Y-36860000D02*
X111000000Y-36860000D01*
X96000000Y-51000000D02*
X120000000Y-51000000D01*
X120000000Y-51000000D02*
X120000000Y-36860000D01*
X86725000Y-63000000D02*
X96000000Y-57000000D01*
%TO.N,/GPIO18*%
X94000000Y-25620000D02*
X106000000Y-20350000D01*
X106000000Y-20350000D02*
X115000000Y-20350000D01*
%TO.N,/GPIO19*%
X105500000Y-22890000D02*
X115000000Y-22890000D01*
X94000000Y-28160000D02*
X105500000Y-22890000D01*
%TO.N,/GPIO23*%
X102500000Y-38130000D02*
X118000000Y-38130000D01*
X94000000Y-30700000D02*
X99000000Y-30700000D01*
X102500000Y-30700000D02*
X102500000Y-38130000D01*
%TO.N,/Q1_GATE*%
X56500000Y-78500000D02*
X56500000Y-69000000D01*
X61650000Y-78500000D02*
X56500000Y-78500000D01*
%TD*%
%TA.AperFunction,Conductor*%
%TO.N,/GND*%
G36*
X44000000Y-51500000D02*
G01*
X89484466Y-51500000D01*
X88731497Y-57523748D01*
X88703650Y-57587829D01*
X88696137Y-57596049D01*
X88599500Y-57692686D01*
X88533608Y-57806812D01*
X88499500Y-57934108D01*
X88499500Y-58065891D01*
X88533608Y-58193187D01*
X88566554Y-58250250D01*
X88599500Y-58307314D01*
X88692686Y-58400500D01*
X88806814Y-58466392D01*
X88934108Y-58500500D01*
X88934110Y-58500500D01*
X89065890Y-58500500D01*
X89065892Y-58500500D01*
X89193186Y-58466392D01*
X89307314Y-58400500D01*
X89400500Y-58307314D01*
X89466392Y-58193186D01*
X89500500Y-58065892D01*
X89500500Y-57934108D01*
X89466392Y-57806814D01*
X89400500Y-57692686D01*
X89400498Y-57692684D01*
X89396436Y-57685648D01*
X89398222Y-57684616D01*
X89377000Y-57629731D01*
X89377527Y-57604032D01*
X90140532Y-51500000D01*
X95674500Y-51500000D01*
X95674500Y-56755426D01*
X95654815Y-56822465D01*
X95617852Y-56859540D01*
X86913873Y-62490145D01*
X86846892Y-62510030D01*
X86814431Y-62505807D01*
X86790892Y-62499500D01*
X86659108Y-62499500D01*
X86531812Y-62533608D01*
X86417686Y-62599500D01*
X86417683Y-62599502D01*
X86324502Y-62692683D01*
X86324500Y-62692686D01*
X86258608Y-62806812D01*
X86224500Y-62934108D01*
X86224500Y-63065891D01*
X86258608Y-63193187D01*
X86291554Y-63250250D01*
X86324500Y-63307314D01*
X86417686Y-63400500D01*
X86516521Y-63457563D01*
X86526361Y-63463244D01*
X86531814Y-63466392D01*
X86659108Y-63500500D01*
X86659110Y-63500500D01*
X86790890Y-63500500D01*
X86790892Y-63500500D01*
X86918186Y-63466392D01*
X87032314Y-63400500D01*
X87125500Y-63307314D01*
X87191392Y-63193186D01*
X87213795Y-63109574D01*
X87250158Y-63049916D01*
X87266207Y-63037562D01*
X96167262Y-57279466D01*
X96172568Y-57276222D01*
X96199862Y-57260465D01*
X96199868Y-57260458D01*
X96206317Y-57255512D01*
X96206500Y-57255751D01*
X96206784Y-57255521D01*
X96206588Y-57255291D01*
X96212773Y-57250027D01*
X96212778Y-57250024D01*
X96233903Y-57226643D01*
X96238167Y-57222158D01*
X96260465Y-57199862D01*
X96260468Y-57199857D01*
X96265415Y-57193411D01*
X96265655Y-57193595D01*
X96265868Y-57193302D01*
X96265619Y-57193130D01*
X96270233Y-57186440D01*
X96270239Y-57186434D01*
X96284588Y-57158393D01*
X96287564Y-57152922D01*
X96303318Y-57125638D01*
X96303318Y-57125635D01*
X96306429Y-57118126D01*
X96306709Y-57118242D01*
X96306842Y-57117898D01*
X96306556Y-57117797D01*
X96309281Y-57110142D01*
X96309284Y-57110138D01*
X96315889Y-57079327D01*
X96317344Y-57073285D01*
X96325500Y-57042853D01*
X96325500Y-57042848D01*
X96326561Y-57034795D01*
X96326858Y-57034834D01*
X96326897Y-57034464D01*
X96326599Y-57034440D01*
X96327251Y-57026337D01*
X96325659Y-56994900D01*
X96325500Y-56988629D01*
X96325500Y-51500000D01*
X103000000Y-51500000D01*
X103000000Y-51626000D01*
X102980315Y-51693039D01*
X102927511Y-51738794D01*
X102876000Y-51750000D01*
X97750000Y-51750000D01*
X97750000Y-61330000D01*
X102876000Y-61330000D01*
X102943039Y-61349685D01*
X102988794Y-61402489D01*
X103000000Y-61454000D01*
X103000000Y-88876000D01*
X102980315Y-88943039D01*
X102927511Y-88988794D01*
X102876000Y-89000000D01*
X42124000Y-89000000D01*
X42056961Y-88980315D01*
X42011206Y-88927511D01*
X42000000Y-88876000D01*
X42000000Y-86905513D01*
X46799500Y-86905513D01*
X46799500Y-87094486D01*
X46829059Y-87281118D01*
X46887454Y-87460836D01*
X46973240Y-87629199D01*
X47084310Y-87782073D01*
X47217927Y-87915690D01*
X47370801Y-88026760D01*
X47450347Y-88067290D01*
X47539163Y-88112545D01*
X47539165Y-88112545D01*
X47539168Y-88112547D01*
X47635497Y-88143846D01*
X47718881Y-88170940D01*
X47905514Y-88200500D01*
X47905519Y-88200500D01*
X48094486Y-88200500D01*
X48281118Y-88170940D01*
X48460832Y-88112547D01*
X48629199Y-88026760D01*
X48782073Y-87915690D01*
X48915690Y-87782073D01*
X49026760Y-87629199D01*
X49112547Y-87460832D01*
X49170940Y-87281118D01*
X49200500Y-87094486D01*
X49200500Y-86905513D01*
X56799500Y-86905513D01*
X56799500Y-87094486D01*
X56829059Y-87281118D01*
X56887454Y-87460836D01*
X56973240Y-87629199D01*
X57084310Y-87782073D01*
X57217927Y-87915690D01*
X57370801Y-88026760D01*
X57450347Y-88067290D01*
X57539163Y-88112545D01*
X57539165Y-88112545D01*
X57539168Y-88112547D01*
X57635497Y-88143846D01*
X57718881Y-88170940D01*
X57905514Y-88200500D01*
X57905519Y-88200500D01*
X58094486Y-88200500D01*
X58281118Y-88170940D01*
X58460832Y-88112547D01*
X58629199Y-88026760D01*
X58782073Y-87915690D01*
X58915690Y-87782073D01*
X59026760Y-87629199D01*
X59112547Y-87460832D01*
X59170940Y-87281118D01*
X59200500Y-87094486D01*
X59200500Y-86905513D01*
X61799500Y-86905513D01*
X61799500Y-87094486D01*
X61829059Y-87281118D01*
X61887454Y-87460836D01*
X61973240Y-87629199D01*
X62084310Y-87782073D01*
X62217927Y-87915690D01*
X62370801Y-88026760D01*
X62450347Y-88067290D01*
X62539163Y-88112545D01*
X62539165Y-88112545D01*
X62539168Y-88112547D01*
X62635497Y-88143846D01*
X62718881Y-88170940D01*
X62905514Y-88200500D01*
X62905519Y-88200500D01*
X63094486Y-88200500D01*
X63281118Y-88170940D01*
X63460832Y-88112547D01*
X63629199Y-88026760D01*
X63782073Y-87915690D01*
X63915690Y-87782073D01*
X64026760Y-87629199D01*
X64112547Y-87460832D01*
X64170940Y-87281118D01*
X64200500Y-87094486D01*
X64200500Y-86905513D01*
X64170940Y-86718881D01*
X64112545Y-86539163D01*
X64026759Y-86370800D01*
X63915690Y-86217927D01*
X63782073Y-86084310D01*
X63737649Y-86052034D01*
X63651614Y-85989525D01*
X63608948Y-85934194D01*
X63600500Y-85889207D01*
X63600500Y-82724500D01*
X63620185Y-82657461D01*
X63672989Y-82611706D01*
X63724500Y-82600500D01*
X67275500Y-82600500D01*
X67342539Y-82620185D01*
X67388294Y-82672989D01*
X67399500Y-82724500D01*
X67399500Y-85889207D01*
X67379815Y-85956246D01*
X67348386Y-85989525D01*
X67217925Y-86084311D01*
X67084312Y-86217924D01*
X67084312Y-86217925D01*
X67084310Y-86217927D01*
X67036610Y-86283579D01*
X66973240Y-86370800D01*
X66887454Y-86539163D01*
X66829059Y-86718881D01*
X66799500Y-86905513D01*
X66799500Y-87094486D01*
X66829059Y-87281118D01*
X66887454Y-87460836D01*
X66973240Y-87629199D01*
X67084310Y-87782073D01*
X67217927Y-87915690D01*
X67370801Y-88026760D01*
X67450347Y-88067290D01*
X67539163Y-88112545D01*
X67539165Y-88112545D01*
X67539168Y-88112547D01*
X67635497Y-88143846D01*
X67718881Y-88170940D01*
X67905514Y-88200500D01*
X67905519Y-88200500D01*
X68094486Y-88200500D01*
X68281118Y-88170940D01*
X68460832Y-88112547D01*
X68629199Y-88026760D01*
X68782073Y-87915690D01*
X68915690Y-87782073D01*
X69026760Y-87629199D01*
X69112547Y-87460832D01*
X69170940Y-87281118D01*
X69200500Y-87094486D01*
X69200500Y-86905513D01*
X69170940Y-86718881D01*
X69112545Y-86539163D01*
X69026759Y-86370800D01*
X68915690Y-86217927D01*
X68782073Y-86084310D01*
X68737649Y-86052034D01*
X68651614Y-85989525D01*
X68608948Y-85934194D01*
X68600500Y-85889207D01*
X68600500Y-82999999D01*
X92000000Y-82999999D01*
X92076857Y-83780359D01*
X92304482Y-84530737D01*
X92674117Y-85222274D01*
X92674122Y-85222281D01*
X93171571Y-85828427D01*
X93483367Y-86084310D01*
X93777719Y-86325878D01*
X93777722Y-86325879D01*
X93777724Y-86325881D01*
X94469261Y-86695516D01*
X94469263Y-86695516D01*
X94469266Y-86695518D01*
X95219638Y-86923141D01*
X95219637Y-86923141D01*
X95296496Y-86930710D01*
X96000000Y-87000000D01*
X96780361Y-86923141D01*
X97530733Y-86695518D01*
X98222280Y-86325878D01*
X98828427Y-85828427D01*
X99325878Y-85222280D01*
X99695518Y-84530733D01*
X99923141Y-83780361D01*
X100000000Y-83000000D01*
X99923141Y-82219638D01*
X99695518Y-81469266D01*
X99695516Y-81469263D01*
X99695516Y-81469261D01*
X99325881Y-80777724D01*
X99325879Y-80777722D01*
X99325878Y-80777719D01*
X99174596Y-80593381D01*
X98828427Y-80171571D01*
X98222281Y-79674122D01*
X98222274Y-79674117D01*
X97530737Y-79304482D01*
X96780359Y-79076857D01*
X96000000Y-79000000D01*
X95219639Y-79076857D01*
X94469261Y-79304482D01*
X93777724Y-79674117D01*
X93777717Y-79674122D01*
X93171571Y-80171571D01*
X92674122Y-80777717D01*
X92674117Y-80777724D01*
X92304482Y-81469261D01*
X92076857Y-82219639D01*
X92000000Y-82999999D01*
X68600500Y-82999999D01*
X68600500Y-82724500D01*
X68620185Y-82657461D01*
X68672989Y-82611706D01*
X68724500Y-82600500D01*
X72960438Y-82600500D01*
X72973939Y-82601237D01*
X73013206Y-82605538D01*
X73013206Y-82605537D01*
X73013207Y-82605538D01*
X73036566Y-82601943D01*
X73055427Y-82600500D01*
X73079054Y-82600500D01*
X73079057Y-82600500D01*
X73117221Y-82590273D01*
X73130434Y-82587496D01*
X73169482Y-82581487D01*
X73191119Y-82571966D01*
X73208957Y-82565693D01*
X73231784Y-82559577D01*
X73266001Y-82539821D01*
X73278027Y-82533726D01*
X73314207Y-82517808D01*
X73332647Y-82503007D01*
X73348241Y-82492340D01*
X73368716Y-82480520D01*
X73396661Y-82452574D01*
X73406708Y-82443567D01*
X73437519Y-82418840D01*
X73451490Y-82399784D01*
X73463803Y-82385432D01*
X73480520Y-82368716D01*
X73500274Y-82334498D01*
X73507661Y-82323178D01*
X73531015Y-82291330D01*
X73539577Y-82269312D01*
X73547761Y-82252249D01*
X73549720Y-82248854D01*
X73559577Y-82231784D01*
X73569801Y-82193622D01*
X73574000Y-82180794D01*
X80415423Y-64588564D01*
X80444749Y-64544413D01*
X80536760Y-64455356D01*
X80615282Y-64341890D01*
X80670158Y-64215285D01*
X80699282Y-64080407D01*
X80701532Y-63942440D01*
X80676822Y-63806682D01*
X80626103Y-63678356D01*
X80551323Y-63562389D01*
X80548668Y-63559646D01*
X80455361Y-63463244D01*
X80455357Y-63463241D01*
X80455356Y-63463240D01*
X77401214Y-61349685D01*
X73719635Y-58801925D01*
X73675710Y-58747589D01*
X73666489Y-58708449D01*
X73393685Y-54730048D01*
X73342410Y-54580478D01*
X73254170Y-54449275D01*
X73254166Y-54449272D01*
X73254164Y-54449269D01*
X73168023Y-54374184D01*
X73130421Y-54315296D01*
X73125500Y-54280710D01*
X73125500Y-53707149D01*
X73125500Y-53707147D01*
X73103318Y-53624362D01*
X73103314Y-53624355D01*
X73060469Y-53550144D01*
X73060463Y-53550136D01*
X72999863Y-53489536D01*
X72999855Y-53489530D01*
X72925644Y-53446685D01*
X72925640Y-53446683D01*
X72925638Y-53446682D01*
X72842853Y-53424500D01*
X72842852Y-53424500D01*
X70183676Y-53424500D01*
X70116637Y-53404815D01*
X70095995Y-53388181D01*
X70057316Y-53349502D01*
X70057314Y-53349500D01*
X70000250Y-53316554D01*
X69943187Y-53283608D01*
X69879539Y-53266554D01*
X69815892Y-53249500D01*
X69684108Y-53249500D01*
X69556812Y-53283608D01*
X69442686Y-53349500D01*
X69442683Y-53349502D01*
X69349502Y-53442683D01*
X69349500Y-53442686D01*
X69283608Y-53556812D01*
X69249500Y-53684108D01*
X69249500Y-53815891D01*
X69283608Y-53943187D01*
X69316554Y-54000250D01*
X69349500Y-54057314D01*
X69442686Y-54150500D01*
X69556814Y-54216392D01*
X69684108Y-54250500D01*
X69684110Y-54250500D01*
X69815890Y-54250500D01*
X69815892Y-54250500D01*
X69943186Y-54216392D01*
X70057314Y-54150500D01*
X70095995Y-54111819D01*
X70157318Y-54078334D01*
X70183676Y-54075500D01*
X72350500Y-54075500D01*
X72417539Y-54095185D01*
X72463294Y-54147989D01*
X72474500Y-54199500D01*
X72474500Y-54279197D01*
X72454815Y-54346236D01*
X72419704Y-54382089D01*
X72399277Y-54395827D01*
X72399272Y-54395831D01*
X72295386Y-54515014D01*
X72295384Y-54515017D01*
X72295382Y-54515020D01*
X72295382Y-54515021D01*
X72225877Y-54657040D01*
X72211584Y-54730048D01*
X72195498Y-54812211D01*
X72473956Y-58873064D01*
X72464020Y-58930859D01*
X72429842Y-59009713D01*
X72400718Y-59144593D01*
X72398468Y-59282562D01*
X72423178Y-59418318D01*
X72473893Y-59546635D01*
X72473896Y-59546642D01*
X72548677Y-59662611D01*
X72644638Y-59761755D01*
X72644641Y-59761757D01*
X72644644Y-59761760D01*
X78685837Y-63942440D01*
X79150803Y-64264210D01*
X79194728Y-64318546D01*
X79202304Y-64388003D01*
X79195809Y-64411118D01*
X72619962Y-81320443D01*
X72577317Y-81375790D01*
X72511520Y-81399295D01*
X72504393Y-81399500D01*
X62920943Y-81399500D01*
X62768216Y-81440423D01*
X62768209Y-81440426D01*
X62631290Y-81519475D01*
X62631282Y-81519481D01*
X62519481Y-81631282D01*
X62519475Y-81631290D01*
X62440426Y-81768209D01*
X62440423Y-81768216D01*
X62399500Y-81920943D01*
X62399500Y-85889207D01*
X62379815Y-85956246D01*
X62348386Y-85989525D01*
X62217925Y-86084311D01*
X62084312Y-86217924D01*
X62084312Y-86217925D01*
X62084310Y-86217927D01*
X62036610Y-86283579D01*
X61973240Y-86370800D01*
X61887454Y-86539163D01*
X61829059Y-86718881D01*
X61799500Y-86905513D01*
X59200500Y-86905513D01*
X59170940Y-86718881D01*
X59112545Y-86539163D01*
X59026759Y-86370800D01*
X58915690Y-86217927D01*
X58782073Y-86084310D01*
X58629199Y-85973240D01*
X58600500Y-85958617D01*
X58460836Y-85887454D01*
X58281118Y-85829059D01*
X58094486Y-85799500D01*
X58094481Y-85799500D01*
X57905519Y-85799500D01*
X57905514Y-85799500D01*
X57718881Y-85829059D01*
X57539163Y-85887454D01*
X57370800Y-85973240D01*
X57283579Y-86036610D01*
X57217927Y-86084310D01*
X57217925Y-86084312D01*
X57217924Y-86084312D01*
X57084312Y-86217924D01*
X57084312Y-86217925D01*
X57084310Y-86217927D01*
X57036610Y-86283579D01*
X56973240Y-86370800D01*
X56887454Y-86539163D01*
X56829059Y-86718881D01*
X56799500Y-86905513D01*
X49200500Y-86905513D01*
X49170940Y-86718881D01*
X49112545Y-86539163D01*
X49026759Y-86370800D01*
X48915690Y-86217927D01*
X48782073Y-86084310D01*
X48629199Y-85973240D01*
X48600500Y-85958617D01*
X48460836Y-85887454D01*
X48281118Y-85829059D01*
X48094486Y-85799500D01*
X48094481Y-85799500D01*
X47905519Y-85799500D01*
X47905514Y-85799500D01*
X47718881Y-85829059D01*
X47539163Y-85887454D01*
X47370800Y-85973240D01*
X47283579Y-86036610D01*
X47217927Y-86084310D01*
X47217925Y-86084312D01*
X47217924Y-86084312D01*
X47084312Y-86217924D01*
X47084312Y-86217925D01*
X47084310Y-86217927D01*
X47036610Y-86283579D01*
X46973240Y-86370800D01*
X46887454Y-86539163D01*
X46829059Y-86718881D01*
X46799500Y-86905513D01*
X42000000Y-86905513D01*
X42000000Y-74980247D01*
X49949500Y-74980247D01*
X49949500Y-77019752D01*
X49961131Y-77078229D01*
X49961132Y-77078230D01*
X50005447Y-77144552D01*
X50071769Y-77188867D01*
X50071770Y-77188868D01*
X50130247Y-77200499D01*
X50130250Y-77200500D01*
X50130252Y-77200500D01*
X51869750Y-77200500D01*
X51869751Y-77200499D01*
X51884568Y-77197552D01*
X51928229Y-77188868D01*
X51928229Y-77188867D01*
X51928231Y-77188867D01*
X51994552Y-77144552D01*
X52038867Y-77078231D01*
X52038867Y-77078229D01*
X52038868Y-77078229D01*
X52050499Y-77019752D01*
X52050500Y-77019750D01*
X52050500Y-75746530D01*
X52449500Y-75746530D01*
X52449500Y-76253469D01*
X52489868Y-76456412D01*
X52489870Y-76456420D01*
X52569058Y-76647596D01*
X52684024Y-76819657D01*
X52830342Y-76965975D01*
X52830345Y-76965977D01*
X53002402Y-77080941D01*
X53193580Y-77160130D01*
X53338052Y-77188867D01*
X53396530Y-77200499D01*
X53396534Y-77200500D01*
X53396535Y-77200500D01*
X53603466Y-77200500D01*
X53603467Y-77200499D01*
X53806420Y-77160130D01*
X53997598Y-77080941D01*
X54169655Y-76965977D01*
X54315977Y-76819655D01*
X54430941Y-76647598D01*
X54510130Y-76456420D01*
X54550500Y-76253465D01*
X54550500Y-75746535D01*
X54510130Y-75543580D01*
X54430941Y-75352402D01*
X54315977Y-75180345D01*
X54315975Y-75180342D01*
X54169657Y-75034024D01*
X54001655Y-74921770D01*
X53997598Y-74919059D01*
X53806420Y-74839870D01*
X53806412Y-74839868D01*
X53603469Y-74799500D01*
X53603465Y-74799500D01*
X53396535Y-74799500D01*
X53396530Y-74799500D01*
X53193587Y-74839868D01*
X53193579Y-74839870D01*
X53002403Y-74919058D01*
X52830342Y-75034024D01*
X52684024Y-75180342D01*
X52569058Y-75352403D01*
X52489870Y-75543579D01*
X52489868Y-75543587D01*
X52449500Y-75746530D01*
X52050500Y-75746530D01*
X52050500Y-74980249D01*
X52050499Y-74980247D01*
X52038868Y-74921770D01*
X52038867Y-74921769D01*
X51994552Y-74855447D01*
X51928230Y-74811132D01*
X51928229Y-74811131D01*
X51869752Y-74799500D01*
X51869748Y-74799500D01*
X50130252Y-74799500D01*
X50130247Y-74799500D01*
X50071770Y-74811131D01*
X50071769Y-74811132D01*
X50005447Y-74855447D01*
X49961132Y-74921769D01*
X49961131Y-74921770D01*
X49949500Y-74980247D01*
X42000000Y-74980247D01*
X42000000Y-68934108D01*
X55999500Y-68934108D01*
X55999500Y-69065891D01*
X56033608Y-69193187D01*
X56066554Y-69250250D01*
X56099500Y-69307314D01*
X56099502Y-69307316D01*
X56138181Y-69345995D01*
X56171666Y-69407318D01*
X56174500Y-69433676D01*
X56174500Y-78457147D01*
X56174500Y-78542853D01*
X56180674Y-78565892D01*
X56196682Y-78625637D01*
X56196685Y-78625644D01*
X56239530Y-78699855D01*
X56239534Y-78699860D01*
X56239535Y-78699862D01*
X56300138Y-78760465D01*
X56300140Y-78760466D01*
X56300144Y-78760469D01*
X56374355Y-78803314D01*
X56374362Y-78803318D01*
X56457147Y-78825500D01*
X61216324Y-78825500D01*
X61283363Y-78845185D01*
X61304005Y-78861819D01*
X61342686Y-78900500D01*
X61456814Y-78966392D01*
X61584108Y-79000500D01*
X61584110Y-79000500D01*
X61715890Y-79000500D01*
X61715892Y-79000500D01*
X61843186Y-78966392D01*
X61957314Y-78900500D01*
X62050500Y-78807314D01*
X62116392Y-78693186D01*
X62150500Y-78565892D01*
X62150500Y-78434108D01*
X62116392Y-78306814D01*
X62050500Y-78192686D01*
X61957314Y-78099500D01*
X61872444Y-78050500D01*
X61843187Y-78033608D01*
X61779539Y-78016554D01*
X61715892Y-77999500D01*
X61584108Y-77999500D01*
X61456812Y-78033608D01*
X61342686Y-78099500D01*
X61342683Y-78099502D01*
X61304005Y-78138181D01*
X61242682Y-78171666D01*
X61216324Y-78174500D01*
X56949500Y-78174500D01*
X56882461Y-78154815D01*
X56836706Y-78102011D01*
X56825500Y-78050500D01*
X56825500Y-69433676D01*
X56845185Y-69366637D01*
X56861819Y-69345995D01*
X56900500Y-69307314D01*
X56966392Y-69193186D01*
X57000500Y-69065892D01*
X57000500Y-68934108D01*
X56966392Y-68806814D01*
X56900500Y-68692686D01*
X56807314Y-68599500D01*
X56750250Y-68566554D01*
X56693187Y-68533608D01*
X56629539Y-68516554D01*
X56565892Y-68499500D01*
X56434108Y-68499500D01*
X56306812Y-68533608D01*
X56192686Y-68599500D01*
X56192683Y-68599502D01*
X56099502Y-68692683D01*
X56099500Y-68692686D01*
X56033608Y-68806812D01*
X55999500Y-68934108D01*
X42000000Y-68934108D01*
X42000000Y-48000000D01*
X44000000Y-48000000D01*
X44000000Y-51500000D01*
G37*
%TD.AperFunction*%
%TD*%
%TA.AperFunction,Conductor*%
%TO.N,/GND*%
G36*
X77403306Y-10019685D02*
G01*
X77414932Y-10028147D01*
X77777717Y-10325877D01*
X77777724Y-10325881D01*
X78469261Y-10695516D01*
X78469263Y-10695516D01*
X78469266Y-10695518D01*
X79219638Y-10923141D01*
X79219637Y-10923141D01*
X79296496Y-10930710D01*
X80000000Y-11000000D01*
X80780361Y-10923141D01*
X81530733Y-10695518D01*
X82222280Y-10325878D01*
X82585067Y-10028147D01*
X82649377Y-10000834D01*
X82663732Y-10000000D01*
X89550500Y-10000000D01*
X89617539Y-10019685D01*
X89663294Y-10072489D01*
X89674500Y-10124000D01*
X89674500Y-49972019D01*
X89673542Y-49987398D01*
X89552324Y-50957147D01*
X89484467Y-51500000D01*
X44000000Y-51500000D01*
X44000000Y-48000000D01*
X42000000Y-48000000D01*
X24640953Y-48000000D01*
X24573914Y-47980315D01*
X24528159Y-47927511D01*
X24518215Y-47858353D01*
X24547240Y-47794797D01*
X24555751Y-47785908D01*
X24561638Y-47780341D01*
X30108641Y-42534408D01*
X30170874Y-42502646D01*
X30193843Y-42500500D01*
X30265890Y-42500500D01*
X30265892Y-42500500D01*
X30393186Y-42466392D01*
X30507314Y-42400500D01*
X30600500Y-42307314D01*
X30666392Y-42193186D01*
X30700500Y-42065892D01*
X30700500Y-41934108D01*
X30666392Y-41806814D01*
X30664536Y-41803600D01*
X30643054Y-41766392D01*
X30600500Y-41692686D01*
X30507314Y-41599500D01*
X30449852Y-41566324D01*
X30393187Y-41533608D01*
X30329539Y-41516554D01*
X30265892Y-41499500D01*
X30134108Y-41499500D01*
X30051315Y-41521683D01*
X29981466Y-41520021D01*
X29923604Y-41480858D01*
X29896100Y-41416630D01*
X29899449Y-41369814D01*
X29900500Y-41365892D01*
X29900500Y-41234108D01*
X29866392Y-41106814D01*
X29864536Y-41103600D01*
X29843054Y-41066392D01*
X29800500Y-40992686D01*
X29707314Y-40899500D01*
X29650250Y-40866554D01*
X29593187Y-40833608D01*
X29529539Y-40816554D01*
X29465892Y-40799500D01*
X29334108Y-40799500D01*
X29251315Y-40821683D01*
X29181466Y-40820021D01*
X29123604Y-40780858D01*
X29096100Y-40716630D01*
X29099449Y-40669814D01*
X29100500Y-40665892D01*
X29100500Y-40534108D01*
X29066392Y-40406814D01*
X29064536Y-40403600D01*
X29043054Y-40366392D01*
X29000500Y-40292686D01*
X28907314Y-40199500D01*
X28850250Y-40166554D01*
X28793187Y-40133608D01*
X28729539Y-40116554D01*
X28665892Y-40099500D01*
X28534108Y-40099500D01*
X28451315Y-40121683D01*
X28381466Y-40120021D01*
X28323604Y-40080858D01*
X28296100Y-40016630D01*
X28299449Y-39969814D01*
X28300500Y-39965892D01*
X28300500Y-39834108D01*
X28266392Y-39706814D01*
X28264536Y-39703600D01*
X28243054Y-39666392D01*
X28200500Y-39592686D01*
X28107314Y-39499500D01*
X28049852Y-39466324D01*
X27993187Y-39433608D01*
X27929539Y-39416554D01*
X27865892Y-39399500D01*
X27734108Y-39399500D01*
X27651315Y-39421683D01*
X27581466Y-39420021D01*
X27523604Y-39380858D01*
X27496100Y-39316630D01*
X27499449Y-39269814D01*
X27500500Y-39265892D01*
X27500500Y-39134108D01*
X27466392Y-39006814D01*
X27400500Y-38892686D01*
X27307314Y-38799500D01*
X27250250Y-38766554D01*
X27193187Y-38733608D01*
X27129539Y-38716554D01*
X27065892Y-38699500D01*
X26934108Y-38699500D01*
X26806812Y-38733608D01*
X26692686Y-38799500D01*
X26692683Y-38799502D01*
X26599502Y-38892683D01*
X26599500Y-38892686D01*
X26533609Y-39006812D01*
X26499305Y-39134836D01*
X26462940Y-39194496D01*
X26453797Y-39202042D01*
X14723399Y-47975300D01*
X14657924Y-47999688D01*
X14649132Y-48000000D01*
X6124000Y-48000000D01*
X6056961Y-47980315D01*
X6011206Y-47927511D01*
X6000000Y-47876000D01*
X6000000Y-34934108D01*
X43499500Y-34934108D01*
X43499500Y-35065891D01*
X43533608Y-35193187D01*
X43566554Y-35250250D01*
X43599500Y-35307314D01*
X43599502Y-35307316D01*
X43638181Y-35345995D01*
X43671666Y-35407318D01*
X43674500Y-35433676D01*
X43674500Y-39466324D01*
X43654815Y-39533363D01*
X43638181Y-39554005D01*
X43599502Y-39592683D01*
X43599500Y-39592686D01*
X43533608Y-39706812D01*
X43501750Y-39825712D01*
X43499500Y-39834108D01*
X43499500Y-39965892D01*
X43500551Y-39969814D01*
X43533608Y-40093187D01*
X43537253Y-40099500D01*
X43599500Y-40207314D01*
X43692686Y-40300500D01*
X43806814Y-40366392D01*
X43934108Y-40400500D01*
X43934110Y-40400500D01*
X44065890Y-40400500D01*
X44065892Y-40400500D01*
X44193186Y-40366392D01*
X44307314Y-40300500D01*
X44400500Y-40207314D01*
X44466392Y-40093186D01*
X44500500Y-39965892D01*
X44500500Y-39834108D01*
X44466392Y-39706814D01*
X44464536Y-39703600D01*
X44443054Y-39666392D01*
X44400500Y-39592686D01*
X44361819Y-39554005D01*
X44328334Y-39492682D01*
X44325500Y-39466324D01*
X44325500Y-35433676D01*
X44345185Y-35366637D01*
X44361819Y-35345995D01*
X44400500Y-35307314D01*
X44466392Y-35193186D01*
X44500500Y-35065892D01*
X44500500Y-34934108D01*
X44466392Y-34806814D01*
X44400500Y-34692686D01*
X44307314Y-34599500D01*
X44250250Y-34566554D01*
X44193187Y-34533608D01*
X44129539Y-34516554D01*
X44065892Y-34499500D01*
X43934108Y-34499500D01*
X43806812Y-34533608D01*
X43692686Y-34599500D01*
X43692683Y-34599502D01*
X43599502Y-34692683D01*
X43599500Y-34692686D01*
X43533608Y-34806812D01*
X43499500Y-34934108D01*
X6000000Y-34934108D01*
X6000000Y-29800000D01*
X60800000Y-29800000D01*
X65200000Y-29800000D01*
X65200000Y-17800000D01*
X60800000Y-17800000D01*
X60800000Y-29800000D01*
X6000000Y-29800000D01*
X6000000Y-11023709D01*
X6019685Y-10956670D01*
X6072489Y-10910915D01*
X6141647Y-10900971D01*
X6159996Y-10905049D01*
X6219635Y-10923140D01*
X6219637Y-10923141D01*
X6296496Y-10930710D01*
X7000000Y-11000000D01*
X7780361Y-10923141D01*
X8530733Y-10695518D01*
X9222280Y-10325878D01*
X9585067Y-10028147D01*
X9649377Y-10000834D01*
X9663732Y-10000000D01*
X77336267Y-10000000D01*
X77403306Y-10019685D01*
G37*
%TD.AperFunction*%
%TA.AperFunction,Conductor*%
G36*
X104343039Y-10345185D02*
G01*
X104388794Y-10397989D01*
X104400000Y-10449500D01*
X104400000Y-20616185D01*
X104380315Y-20683224D01*
X104327511Y-20728979D01*
X104325860Y-20729719D01*
X98674360Y-23211670D01*
X98605064Y-23220603D01*
X98541939Y-23190654D01*
X98505026Y-23131331D01*
X98500500Y-23098136D01*
X98500500Y-23014110D01*
X98500500Y-23014108D01*
X98466392Y-22886814D01*
X98400500Y-22772686D01*
X98307314Y-22679500D01*
X98222444Y-22630500D01*
X98193187Y-22613608D01*
X98129539Y-22596554D01*
X98065892Y-22579500D01*
X97934108Y-22579500D01*
X97806812Y-22613608D01*
X97692686Y-22679500D01*
X97692683Y-22679502D01*
X97654005Y-22718181D01*
X97592682Y-22751666D01*
X97566324Y-22754500D01*
X96374000Y-22754500D01*
X96306961Y-22734815D01*
X96261206Y-22682011D01*
X96250000Y-22630500D01*
X96250000Y-20989500D01*
X96269685Y-20922461D01*
X96322489Y-20876706D01*
X96374000Y-20865500D01*
X97566324Y-20865500D01*
X97633363Y-20885185D01*
X97654005Y-20901819D01*
X97692686Y-20940500D01*
X97806814Y-21006392D01*
X97934108Y-21040500D01*
X97934110Y-21040500D01*
X98065890Y-21040500D01*
X98065892Y-21040500D01*
X98193186Y-21006392D01*
X98307314Y-20940500D01*
X98400500Y-20847314D01*
X98466392Y-20733186D01*
X98500500Y-20605892D01*
X98500500Y-20474108D01*
X98466392Y-20346814D01*
X98464230Y-20343070D01*
X98457563Y-20331521D01*
X98400500Y-20232686D01*
X98307314Y-20139500D01*
X98222444Y-20090500D01*
X98193187Y-20073608D01*
X98129539Y-20056554D01*
X98065892Y-20039500D01*
X97934108Y-20039500D01*
X97806812Y-20073608D01*
X97692686Y-20139500D01*
X97692683Y-20139502D01*
X97654005Y-20178181D01*
X97592682Y-20211666D01*
X97566324Y-20214500D01*
X96374000Y-20214500D01*
X96306961Y-20194815D01*
X96261206Y-20142011D01*
X96250000Y-20090500D01*
X96250000Y-15750000D01*
X91750000Y-15750000D01*
X91750000Y-32950000D01*
X96250000Y-32950000D01*
X96250000Y-31149500D01*
X96269685Y-31082461D01*
X96322489Y-31036706D01*
X96374000Y-31025500D01*
X98566324Y-31025500D01*
X98633363Y-31045185D01*
X98654005Y-31061819D01*
X98692686Y-31100500D01*
X98806814Y-31166392D01*
X98934108Y-31200500D01*
X98934110Y-31200500D01*
X99065890Y-31200500D01*
X99065892Y-31200500D01*
X99193186Y-31166392D01*
X99307314Y-31100500D01*
X99400500Y-31007314D01*
X99466392Y-30893186D01*
X99500500Y-30765892D01*
X99500500Y-30634108D01*
X99466392Y-30506814D01*
X99400500Y-30392686D01*
X99307314Y-30299500D01*
X99222444Y-30250500D01*
X99193187Y-30233608D01*
X99129539Y-30216554D01*
X99065892Y-30199500D01*
X98934108Y-30199500D01*
X98806812Y-30233608D01*
X98692686Y-30299500D01*
X98692683Y-30299502D01*
X98654005Y-30338181D01*
X98592682Y-30371666D01*
X98566324Y-30374500D01*
X96374000Y-30374500D01*
X96306961Y-30354815D01*
X96261206Y-30302011D01*
X96250000Y-30250500D01*
X96250000Y-27566537D01*
X96269685Y-27499498D01*
X96322340Y-27453811D01*
X104224342Y-23832633D01*
X104293487Y-23822600D01*
X104357081Y-23851542D01*
X104394931Y-23910271D01*
X104400000Y-23945361D01*
X104400000Y-26250500D01*
X104380315Y-26317539D01*
X104327511Y-26363294D01*
X104276000Y-26374500D01*
X100457147Y-26374500D01*
X100374362Y-26396682D01*
X100374355Y-26396685D01*
X100300144Y-26439530D01*
X100300136Y-26439536D01*
X100239536Y-26500136D01*
X100239530Y-26500144D01*
X100196685Y-26574355D01*
X100196682Y-26574362D01*
X100174500Y-26657147D01*
X100174500Y-41423514D01*
X100154815Y-41490553D01*
X100102011Y-41536308D01*
X100032853Y-41546252D01*
X100001276Y-41535328D01*
X100000700Y-41536720D01*
X99993188Y-41533609D01*
X99993187Y-41533608D01*
X99993186Y-41533608D01*
X99865892Y-41499500D01*
X99734108Y-41499500D01*
X99725981Y-41499500D01*
X99725981Y-41496412D01*
X99671386Y-41487879D01*
X99619146Y-41441481D01*
X99600284Y-41374206D01*
X99600500Y-41371201D01*
X99600500Y-41234110D01*
X99600500Y-41234108D01*
X99566392Y-41106814D01*
X99564536Y-41103600D01*
X99543054Y-41066392D01*
X99500500Y-40992686D01*
X99407314Y-40899500D01*
X99350250Y-40866554D01*
X99293187Y-40833608D01*
X99229539Y-40816554D01*
X99165892Y-40799500D01*
X99034108Y-40799500D01*
X99025981Y-40799500D01*
X99025981Y-40796412D01*
X98971386Y-40787879D01*
X98919146Y-40741481D01*
X98900284Y-40674206D01*
X98900500Y-40671201D01*
X98900500Y-40534110D01*
X98900500Y-40534108D01*
X98866392Y-40406814D01*
X98864536Y-40403600D01*
X98843054Y-40366392D01*
X98800500Y-40292686D01*
X98707314Y-40199500D01*
X98650250Y-40166554D01*
X98593187Y-40133608D01*
X98529539Y-40116554D01*
X98465892Y-40099500D01*
X98334108Y-40099500D01*
X98325981Y-40099500D01*
X98325981Y-40096412D01*
X98271386Y-40087879D01*
X98219146Y-40041481D01*
X98200284Y-39974206D01*
X98200500Y-39971201D01*
X98200500Y-39834110D01*
X98200500Y-39834108D01*
X98166392Y-39706814D01*
X98164536Y-39703600D01*
X98143054Y-39666392D01*
X98100500Y-39592686D01*
X98007314Y-39499500D01*
X97949852Y-39466324D01*
X97893187Y-39433608D01*
X97829539Y-39416554D01*
X97765892Y-39399500D01*
X97634108Y-39399500D01*
X97625981Y-39399500D01*
X97625981Y-39396412D01*
X97571386Y-39387879D01*
X97519146Y-39341481D01*
X97500284Y-39274206D01*
X97500500Y-39271201D01*
X97500500Y-39134110D01*
X97500500Y-39134108D01*
X97466392Y-39006814D01*
X97400500Y-38892686D01*
X97307314Y-38799500D01*
X97250250Y-38766554D01*
X97193187Y-38733608D01*
X97129539Y-38716554D01*
X97065892Y-38699500D01*
X96934108Y-38699500D01*
X96806812Y-38733608D01*
X96692686Y-38799500D01*
X96692683Y-38799502D01*
X96654005Y-38838181D01*
X96592682Y-38871666D01*
X96566324Y-38874500D01*
X92633676Y-38874500D01*
X92566637Y-38854815D01*
X92545995Y-38838181D01*
X92507316Y-38799502D01*
X92507314Y-38799500D01*
X92450250Y-38766554D01*
X92393187Y-38733608D01*
X92329539Y-38716554D01*
X92265892Y-38699500D01*
X92134108Y-38699500D01*
X92006812Y-38733608D01*
X91892686Y-38799500D01*
X91892683Y-38799502D01*
X91799502Y-38892683D01*
X91799500Y-38892686D01*
X91733608Y-39006812D01*
X91699500Y-39134108D01*
X91699500Y-39265892D01*
X91700551Y-39269814D01*
X91733608Y-39393187D01*
X91737253Y-39399500D01*
X91799500Y-39507314D01*
X91892686Y-39600500D01*
X92006814Y-39666392D01*
X92134108Y-39700500D01*
X92134110Y-39700500D01*
X92274019Y-39700500D01*
X92274019Y-39703600D01*
X92328540Y-39712085D01*
X92380810Y-39758449D01*
X92399716Y-39825712D01*
X92399500Y-39828745D01*
X92399500Y-39834108D01*
X92399500Y-39965892D01*
X92400551Y-39969814D01*
X92433608Y-40093187D01*
X92437253Y-40099500D01*
X92499500Y-40207314D01*
X92592686Y-40300500D01*
X92706814Y-40366392D01*
X92834108Y-40400500D01*
X92834110Y-40400500D01*
X92974019Y-40400500D01*
X92974019Y-40403600D01*
X93028540Y-40412085D01*
X93080810Y-40458449D01*
X93099716Y-40525712D01*
X93099500Y-40528745D01*
X93099500Y-40534108D01*
X93099500Y-40665892D01*
X93100551Y-40669814D01*
X93133608Y-40793187D01*
X93137253Y-40799500D01*
X93199500Y-40907314D01*
X93292686Y-41000500D01*
X93406814Y-41066392D01*
X93534108Y-41100500D01*
X93534110Y-41100500D01*
X93674019Y-41100500D01*
X93674019Y-41103600D01*
X93728540Y-41112085D01*
X93780810Y-41158449D01*
X93799716Y-41225712D01*
X93799500Y-41228745D01*
X93799500Y-41234108D01*
X93799500Y-41365892D01*
X93800551Y-41369814D01*
X93833608Y-41493187D01*
X93858742Y-41536720D01*
X93899500Y-41607314D01*
X93992686Y-41700500D01*
X94106814Y-41766392D01*
X94234108Y-41800500D01*
X94234110Y-41800500D01*
X94374019Y-41800500D01*
X94374019Y-41803600D01*
X94428540Y-41812085D01*
X94480810Y-41858449D01*
X94499716Y-41925712D01*
X94499500Y-41928745D01*
X94499500Y-42065891D01*
X94533608Y-42193187D01*
X94566554Y-42250250D01*
X94599500Y-42307314D01*
X94692686Y-42400500D01*
X94806814Y-42466392D01*
X94934108Y-42500500D01*
X94934110Y-42500500D01*
X95065890Y-42500500D01*
X95065892Y-42500500D01*
X95193186Y-42466392D01*
X95307314Y-42400500D01*
X95345995Y-42361819D01*
X95407318Y-42328334D01*
X95433676Y-42325500D01*
X99366324Y-42325500D01*
X99433363Y-42345185D01*
X99454005Y-42361819D01*
X99492686Y-42400500D01*
X99606814Y-42466392D01*
X99734108Y-42500500D01*
X99734110Y-42500500D01*
X99865890Y-42500500D01*
X99865892Y-42500500D01*
X99993186Y-42466392D01*
X100088000Y-42411650D01*
X100155900Y-42395178D01*
X100211999Y-42411650D01*
X100306814Y-42466392D01*
X100434108Y-42500500D01*
X100434110Y-42500500D01*
X100565890Y-42500500D01*
X100565892Y-42500500D01*
X100693186Y-42466392D01*
X100807314Y-42400500D01*
X100900500Y-42307314D01*
X100966392Y-42193186D01*
X101000500Y-42065892D01*
X101000500Y-41934108D01*
X100966392Y-41806814D01*
X100964536Y-41803600D01*
X100943054Y-41766392D01*
X100900500Y-41692686D01*
X100861819Y-41654005D01*
X100828334Y-41592682D01*
X100825500Y-41566324D01*
X100825500Y-27149500D01*
X100845185Y-27082461D01*
X100897989Y-27036706D01*
X100949500Y-27025500D01*
X104276000Y-27025500D01*
X104343039Y-27045185D01*
X104388794Y-27097989D01*
X104400000Y-27149500D01*
X104400000Y-31218237D01*
X104380315Y-31285276D01*
X104327511Y-31331031D01*
X104258353Y-31340975D01*
X104214001Y-31325625D01*
X104193188Y-31313608D01*
X104108323Y-31290869D01*
X104065892Y-31279500D01*
X103934108Y-31279500D01*
X103806812Y-31313608D01*
X103692686Y-31379500D01*
X103692683Y-31379502D01*
X103599502Y-31472683D01*
X103599500Y-31472686D01*
X103533608Y-31586812D01*
X103499500Y-31714108D01*
X103499500Y-31845891D01*
X103533608Y-31973187D01*
X103537462Y-31979862D01*
X103599500Y-32087314D01*
X103692686Y-32180500D01*
X103806814Y-32246392D01*
X103934108Y-32280500D01*
X103934110Y-32280500D01*
X104065890Y-32280500D01*
X104065892Y-32280500D01*
X104193186Y-32246392D01*
X104213998Y-32234375D01*
X104281898Y-32217902D01*
X104347925Y-32240753D01*
X104391117Y-32295674D01*
X104400000Y-32341762D01*
X104400000Y-37680500D01*
X104380315Y-37747539D01*
X104327511Y-37793294D01*
X104276000Y-37804500D01*
X102949500Y-37804500D01*
X102882461Y-37784815D01*
X102836706Y-37732011D01*
X102825500Y-37680500D01*
X102825500Y-31133676D01*
X102845185Y-31066637D01*
X102861819Y-31045995D01*
X102871108Y-31036706D01*
X102900500Y-31007314D01*
X102966392Y-30893186D01*
X103000500Y-30765892D01*
X103000500Y-30634108D01*
X102966392Y-30506814D01*
X102900500Y-30392686D01*
X102807314Y-30299500D01*
X102722444Y-30250500D01*
X102693187Y-30233608D01*
X102629539Y-30216554D01*
X102565892Y-30199500D01*
X102434108Y-30199500D01*
X102306812Y-30233608D01*
X102192686Y-30299500D01*
X102192683Y-30299502D01*
X102099502Y-30392683D01*
X102099500Y-30392686D01*
X102033608Y-30506812D01*
X101999500Y-30634108D01*
X101999500Y-30765891D01*
X102033608Y-30893187D01*
X102066554Y-30950250D01*
X102099500Y-31007314D01*
X102099502Y-31007316D01*
X102138181Y-31045995D01*
X102171666Y-31107318D01*
X102174500Y-31133676D01*
X102174500Y-38172852D01*
X102196682Y-38255637D01*
X102196685Y-38255644D01*
X102239530Y-38329855D01*
X102239534Y-38329860D01*
X102239535Y-38329862D01*
X102300138Y-38390465D01*
X102300140Y-38390466D01*
X102300144Y-38390469D01*
X102374355Y-38433314D01*
X102374362Y-38433318D01*
X102457147Y-38455500D01*
X102457149Y-38455500D01*
X104276000Y-38455500D01*
X104343039Y-38475185D01*
X104388794Y-38527989D01*
X104400000Y-38579500D01*
X104400000Y-50550500D01*
X104380315Y-50617539D01*
X104327511Y-50663294D01*
X104276000Y-50674500D01*
X95957147Y-50674500D01*
X95874362Y-50696682D01*
X95874355Y-50696685D01*
X95800144Y-50739530D01*
X95800136Y-50739536D01*
X95739536Y-50800136D01*
X95739530Y-50800144D01*
X95696685Y-50874355D01*
X95696682Y-50874362D01*
X95674500Y-50957147D01*
X95674500Y-51500000D01*
X90140532Y-51500000D01*
X90319149Y-50071066D01*
X90322415Y-50054361D01*
X90325500Y-50042853D01*
X90325500Y-50027985D01*
X90326458Y-50012601D01*
X90328302Y-49997851D01*
X90326669Y-49986043D01*
X90325500Y-49969056D01*
X90325500Y-13130247D01*
X94949500Y-13130247D01*
X94949500Y-14869752D01*
X94961131Y-14928229D01*
X94961132Y-14928230D01*
X95005447Y-14994552D01*
X95071769Y-15038867D01*
X95071770Y-15038868D01*
X95130247Y-15050499D01*
X95130250Y-15050500D01*
X95130252Y-15050500D01*
X96869750Y-15050500D01*
X96869751Y-15050499D01*
X96884568Y-15047552D01*
X96928229Y-15038868D01*
X96928229Y-15038867D01*
X96928231Y-15038867D01*
X96994552Y-14994552D01*
X97038867Y-14928231D01*
X97038867Y-14928229D01*
X97038868Y-14928229D01*
X97050499Y-14869752D01*
X97050500Y-14869750D01*
X97050500Y-13896530D01*
X97489500Y-13896530D01*
X97489500Y-14103469D01*
X97529868Y-14306412D01*
X97529870Y-14306420D01*
X97609058Y-14497596D01*
X97724024Y-14669657D01*
X97870342Y-14815975D01*
X97870345Y-14815977D01*
X98042402Y-14930941D01*
X98233580Y-15010130D01*
X98378052Y-15038867D01*
X98436530Y-15050499D01*
X98436534Y-15050500D01*
X98436535Y-15050500D01*
X98643466Y-15050500D01*
X98643467Y-15050499D01*
X98846420Y-15010130D01*
X99037598Y-14930941D01*
X99209655Y-14815977D01*
X99355977Y-14669655D01*
X99470941Y-14497598D01*
X99550130Y-14306420D01*
X99590500Y-14103465D01*
X99590500Y-13896535D01*
X99550130Y-13693580D01*
X99470941Y-13502402D01*
X99355977Y-13330345D01*
X99355975Y-13330342D01*
X99209657Y-13184024D01*
X99041655Y-13071770D01*
X99037598Y-13069059D01*
X98846420Y-12989870D01*
X98846412Y-12989868D01*
X98643469Y-12949500D01*
X98643465Y-12949500D01*
X98436535Y-12949500D01*
X98436530Y-12949500D01*
X98233587Y-12989868D01*
X98233579Y-12989870D01*
X98042403Y-13069058D01*
X97870342Y-13184024D01*
X97724024Y-13330342D01*
X97609058Y-13502403D01*
X97529870Y-13693579D01*
X97529868Y-13693587D01*
X97489500Y-13896530D01*
X97050500Y-13896530D01*
X97050500Y-13130249D01*
X97050499Y-13130247D01*
X97038868Y-13071770D01*
X97038867Y-13071769D01*
X96994552Y-13005447D01*
X96928230Y-12961132D01*
X96928229Y-12961131D01*
X96869752Y-12949500D01*
X96869748Y-12949500D01*
X95130252Y-12949500D01*
X95130247Y-12949500D01*
X95071770Y-12961131D01*
X95071769Y-12961132D01*
X95005447Y-13005447D01*
X94961132Y-13071769D01*
X94961131Y-13071770D01*
X94949500Y-13130247D01*
X90325500Y-13130247D01*
X90325500Y-10449500D01*
X90345185Y-10382461D01*
X90397989Y-10336706D01*
X90449500Y-10325500D01*
X104276000Y-10325500D01*
X104343039Y-10345185D01*
G37*
%TD.AperFunction*%
%TA.AperFunction,Conductor*%
G36*
X102943039Y-51345185D02*
G01*
X102988794Y-51397989D01*
X103000000Y-51449500D01*
X103000000Y-51500000D01*
X96325500Y-51500000D01*
X96325500Y-51449500D01*
X96345185Y-51382461D01*
X96397989Y-51336706D01*
X96449500Y-51325500D01*
X102876000Y-51325500D01*
X102943039Y-51345185D01*
G37*
%TD.AperFunction*%
%TD*%
M02*
