%TF.GenerationSoftware,KiCad,Pcbnew,10.0.5-10.0.5~ubuntu22.04.1*%
%TF.CreationDate,2026-08-21T09:44:32+07:00*%
%TF.ProjectId,esp32-e220,65737033-322d-4653-9232-302e6b696361,rev?*%
%TF.SameCoordinates,Original*%
%TF.FileFunction,Copper,L1,Top*%
%TF.FilePolarity,Positive*%
%FSLAX46Y46*%
G04 Gerber Fmt 4.6, Leading zero omitted, Abs format (unit mm)*
G04 Created by KiCad (PCBNEW 10.0.5-10.0.5~ubuntu22.04.1) date 2026-08-21 09:44:32*
%MOMM*%
%LPD*%
G01*
G04 APERTURE LIST*
G04 Aperture macros list*
%AMRoundRect*
0 Rectangle with rounded corners*
0 $1 Rounding radius*
0 $2 $3 $4 $5 $6 $7 $8 $9 X,Y pos of 4 corners*
0 Add a 4 corners polygon primitive as box body*
4,1,4,$2,$3,$4,$5,$6,$7,$8,$9,$2,$3,0*
0 Add four circle primitives for the rounded corners*
1,1,$1+$1,$2,$3*
1,1,$1+$1,$4,$5*
1,1,$1+$1,$6,$7*
1,1,$1+$1,$8,$9*
0 Add four rect primitives between the rounded corners*
20,1,$1+$1,$2,$3,$4,$5,0*
20,1,$1+$1,$4,$5,$6,$7,0*
20,1,$1+$1,$6,$7,$8,$9,0*
20,1,$1+$1,$8,$9,$2,$3,0*%
G04 Aperture macros list end*
%TA.AperFunction,SMDPad,CuDef*%
%ADD10RoundRect,0.190000X-0.285000X-0.310000X0.285000X-0.310000X0.285000X0.310000X-0.285000X0.310000X0*%
%TD*%
%TA.AperFunction,SMDPad,CuDef*%
%ADD11RoundRect,0.100000X-0.200000X-0.450000X0.200000X-0.450000X0.200000X0.450000X-0.200000X0.450000X0*%
%TD*%
%TA.AperFunction,ComponentPad*%
%ADD12R,1.700000X1.700000*%
%TD*%
%TA.AperFunction,ComponentPad*%
%ADD13O,1.700000X1.700000*%
%TD*%
%TA.AperFunction,SMDPad,CuDef*%
%ADD14RoundRect,0.225000X-0.337500X-1.475000X0.337500X-1.475000X0.337500X1.475000X-0.337500X1.475000X0*%
%TD*%
%TA.AperFunction,SMDPad,CuDef*%
%ADD15RoundRect,0.230000X-0.470000X0.345000X-0.470000X-0.345000X0.470000X-0.345000X0.470000X0.345000X0*%
%TD*%
%TA.AperFunction,ComponentPad*%
%ADD16C,2.000000*%
%TD*%
%TA.AperFunction,SMDPad,CuDef*%
%ADD17RoundRect,0.190000X0.285000X0.310000X-0.285000X0.310000X-0.285000X-0.310000X0.285000X-0.310000X0*%
%TD*%
%TA.AperFunction,ComponentPad*%
%ADD18R,1.700000X2.000000*%
%TD*%
%TA.AperFunction,ComponentPad*%
%ADD19O,1.700000X2.000000*%
%TD*%
%TA.AperFunction,SMDPad,CuDef*%
%ADD20RoundRect,0.190000X0.310000X-0.285000X0.310000X0.285000X-0.310000X0.285000X-0.310000X-0.285000X0*%
%TD*%
%TA.AperFunction,SMDPad,CuDef*%
%ADD21RoundRect,0.230000X0.345000X0.470000X-0.345000X0.470000X-0.345000X-0.470000X0.345000X-0.470000X0*%
%TD*%
%TA.AperFunction,SMDPad,CuDef*%
%ADD22R,0.600000X0.240000*%
%TD*%
%TA.AperFunction,SMDPad,CuDef*%
%ADD23R,0.240000X0.600000*%
%TD*%
%TA.AperFunction,SMDPad,CuDef*%
%ADD24R,1.680000X1.680000*%
%TD*%
%TA.AperFunction,SMDPad,CuDef*%
%ADD25RoundRect,0.190000X-0.310000X0.285000X-0.310000X-0.285000X0.310000X-0.285000X0.310000X0.285000X0*%
%TD*%
%TA.AperFunction,SMDPad,CuDef*%
%ADD26R,2.000000X1.500000*%
%TD*%
%TA.AperFunction,SMDPad,CuDef*%
%ADD27R,2.000000X3.800000*%
%TD*%
%TA.AperFunction,SMDPad,CuDef*%
%ADD28R,3.400000X0.980000*%
%TD*%
%TA.AperFunction,SMDPad,CuDef*%
%ADD29RoundRect,0.460000X0.790000X0.690000X-0.790000X0.690000X-0.790000X-0.690000X0.790000X-0.690000X0*%
%TD*%
%TA.AperFunction,SMDPad,CuDef*%
%ADD30R,0.800000X0.900000*%
%TD*%
%TA.AperFunction,SMDPad,CuDef*%
%ADD31RoundRect,0.230000X-0.345000X-0.470000X0.345000X-0.470000X0.345000X0.470000X-0.345000X0.470000X0*%
%TD*%
%TA.AperFunction,ViaPad*%
%ADD32C,0.600000*%
%TD*%
%TA.AperFunction,Conductor*%
%ADD33C,0.200000*%
%TD*%
%TA.AperFunction,Conductor*%
%ADD34C,0.600000*%
%TD*%
%TA.AperFunction,Conductor*%
%ADD35C,1.000000*%
%TD*%
%TA.AperFunction,Conductor*%
%ADD36C,0.800000*%
%TD*%
%TA.AperFunction,Conductor*%
%ADD37C,0.500000*%
%TD*%
%TA.AperFunction,Conductor*%
%ADD38C,0.250000*%
%TD*%
%TA.AperFunction,Conductor*%
%ADD39C,0.400000*%
%TD*%
%TA.AperFunction,Conductor*%
%ADD40C,0.700000*%
%TD*%
G04 APERTURE END LIST*
D10*
%TO.P,C6,1*%
%TO.N,/5V_SYS*%
X20580000Y-49750000D03*
%TO.P,C6,2*%
%TO.N,/GND*%
X22030000Y-49750000D03*
%TD*%
D11*
%TO.P,U3,1*%
%TO.N,/GND*%
X88050000Y-54750000D03*
%TO.P,U3,2*%
%TO.N,/WS2812_DATA_3V3*%
X89000000Y-54750000D03*
%TO.P,U3,3*%
%TO.N,/GND*%
X89950000Y-54750000D03*
%TO.P,U3,4*%
%TO.N,/WS2812_DATA_5V*%
X89475000Y-53250000D03*
%TO.P,U3,5*%
%TO.N,/5V_SYS*%
X88525000Y-53250000D03*
%TD*%
D10*
%TO.P,C5,1*%
%TO.N,/5V_SYS*%
X23275000Y-48000000D03*
%TO.P,C5,2*%
%TO.N,/GND*%
X24725000Y-48000000D03*
%TD*%
D12*
%TO.P,J3,1*%
%TO.N,/E220_M0*%
X7880000Y-53500000D03*
D13*
%TO.P,J3,2*%
%TO.N,/E220_M1*%
X10420000Y-53500000D03*
%TO.P,J3,3*%
%TO.N,/E220_RXD*%
X12960000Y-53500000D03*
%TO.P,J3,4*%
%TO.N,/E220_TXD*%
X15500000Y-53500000D03*
%TO.P,J3,5*%
%TO.N,/E220_AUX*%
X18040000Y-53500000D03*
%TO.P,J3,6*%
%TO.N,/5V_SYS*%
X20580000Y-53500000D03*
%TO.P,J3,7*%
%TO.N,/GND*%
X23120000Y-53500000D03*
%TD*%
D14*
%TO.P,F1,1*%
%TO.N,/BAT_PLUS*%
X42862000Y-76000000D03*
%TO.P,F1,2*%
%TO.N,/BAT_FUSED*%
X47138000Y-76000000D03*
%TD*%
D12*
%TO.P,J1,1*%
%TO.N,/DEVKIT_VIN*%
X111000000Y-14000000D03*
D13*
%TO.P,J1,2*%
%TO.N,/GND*%
X111000000Y-16540000D03*
%TO.P,J1,3*%
%TO.N,/GPIO13*%
X111000000Y-19080000D03*
%TO.P,J1,4*%
%TO.N,N/C*%
X111000000Y-21620000D03*
%TO.P,J1,5*%
%TO.N,/GPIO14*%
X111000000Y-24160000D03*
%TO.P,J1,6*%
%TO.N,/E220_AUX*%
X111000000Y-26700000D03*
%TO.P,J1,7*%
%TO.N,/E220_M1*%
X111000000Y-29240000D03*
%TO.P,J1,8*%
%TO.N,/E220_M0*%
X111000000Y-31780000D03*
%TO.P,J1,9*%
%TO.N,N/C*%
X111000000Y-34320000D03*
%TO.P,J1,10*%
%TO.N,/BAT_SENSE*%
X111000000Y-36860000D03*
%TO.P,J1,11*%
%TO.N,N/C*%
X111000000Y-39400000D03*
%TO.P,J1,12*%
X111000000Y-41940000D03*
%TO.P,J1,13*%
X111000000Y-44480000D03*
%TO.P,J1,14*%
X111000000Y-47020000D03*
%TO.P,J1,15*%
X111000000Y-49560000D03*
%TD*%
D10*
%TO.P,R8,1*%
%TO.N,/E220_M0*%
X39275000Y-35000000D03*
%TO.P,R8,2*%
%TO.N,/GND*%
X40725000Y-35000000D03*
%TD*%
D12*
%TO.P,J9,1*%
%TO.N,/5V_SYS*%
X100000000Y-54000000D03*
D13*
%TO.P,J9,2*%
%TO.N,/WS2812_DATA_5V*%
X100000000Y-56540000D03*
%TO.P,J9,3*%
%TO.N,/GND*%
X100000000Y-59080000D03*
%TD*%
D12*
%TO.P,JP1,1*%
%TO.N,/5V_SYS*%
X96000000Y-14000000D03*
D13*
%TO.P,JP1,2*%
%TO.N,/DEVKIT_VIN*%
X98540000Y-14000000D03*
%TD*%
D15*
%TO.P,C9,1*%
%TO.N,/5V_SYS*%
X17500000Y-32000000D03*
%TO.P,C9,2*%
%TO.N,/GND*%
X17500000Y-34000000D03*
%TD*%
D16*
%TO.P,TP2,1*%
%TO.N,/GND*%
X53000000Y-87000000D03*
%TD*%
D17*
%TO.P,C2,1*%
%TO.N,/BUCK_IN*%
X66725000Y-56000000D03*
%TO.P,C2,2*%
%TO.N,/GND*%
X65275000Y-56000000D03*
%TD*%
D18*
%TO.P,J8,1*%
%TO.N,/BAT_FUSED*%
X51000000Y-76000000D03*
D19*
%TO.P,J8,2*%
%TO.N,/BAT_SW*%
X53500000Y-76000000D03*
%TD*%
D12*
%TO.P,J2,1*%
%TO.N,/DEVKIT_3V3*%
X136400000Y-14000000D03*
D13*
%TO.P,J2,2*%
%TO.N,/GND*%
X136400000Y-16540000D03*
%TO.P,J2,3*%
%TO.N,N/C*%
X136400000Y-19080000D03*
%TO.P,J2,4*%
X136400000Y-21620000D03*
%TO.P,J2,5*%
%TO.N,/WS2812_DATA_3V3*%
X136400000Y-24160000D03*
%TO.P,J2,6*%
%TO.N,/E220_TXD*%
X136400000Y-26700000D03*
%TO.P,J2,7*%
%TO.N,/E220_RXD*%
X136400000Y-29240000D03*
%TO.P,J2,8*%
%TO.N,N/C*%
X136400000Y-31780000D03*
%TO.P,J2,9*%
%TO.N,/GPIO18*%
X136400000Y-34320000D03*
%TO.P,J2,10*%
%TO.N,/GPIO19*%
X136400000Y-36860000D03*
%TO.P,J2,11*%
%TO.N,/OLED_SDA*%
X136400000Y-39400000D03*
%TO.P,J2,12*%
%TO.N,N/C*%
X136400000Y-41940000D03*
%TO.P,J2,13*%
X136400000Y-44480000D03*
%TO.P,J2,14*%
%TO.N,/OLED_SCL*%
X136400000Y-47020000D03*
%TO.P,J2,15*%
%TO.N,/GPIO23*%
X136400000Y-49560000D03*
%TD*%
D16*
%TO.P,TP5,1*%
%TO.N,/5V_SYS*%
X68000000Y-87000000D03*
%TD*%
D18*
%TO.P,J4,1*%
%TO.N,/BAT_PLUS*%
X35000000Y-76000000D03*
D19*
%TO.P,J4,2*%
%TO.N,/GND*%
X37500000Y-76000000D03*
%TD*%
D20*
%TO.P,R1,1*%
%TO.N,/Q1_GATE*%
X58500000Y-67725000D03*
%TO.P,R1,2*%
%TO.N,/GND*%
X58500000Y-66275000D03*
%TD*%
D16*
%TO.P,TP4,1*%
%TO.N,/5V_SYS*%
X63000000Y-87000000D03*
%TD*%
D10*
%TO.P,R9,1*%
%TO.N,/E220_M1*%
X45275000Y-35000000D03*
%TO.P,R9,2*%
%TO.N,/GND*%
X46725000Y-35000000D03*
%TD*%
D21*
%TO.P,C3,1*%
%TO.N,/5V_SYS*%
X71900000Y-59225000D03*
%TO.P,C3,2*%
%TO.N,/GND*%
X69900000Y-59225000D03*
%TD*%
D20*
%TO.P,R2,1*%
%TO.N,/BUCK_IN*%
X62500000Y-67725000D03*
%TO.P,R2,2*%
%TO.N,/Q1_GATE*%
X62500000Y-66275000D03*
%TD*%
D22*
%TO.P,U1,1*%
%TO.N,/BUCK_SW*%
X71400000Y-56750000D03*
%TO.P,U1,2*%
X71400000Y-56250000D03*
%TO.P,U1,3*%
X71400000Y-55750000D03*
%TO.P,U1,4*%
%TO.N,N/C*%
X71400000Y-55250000D03*
D23*
%TO.P,U1,5*%
%TO.N,/GND*%
X70750000Y-54600000D03*
%TO.P,U1,6*%
X70250000Y-54600000D03*
%TO.P,U1,7*%
%TO.N,/5V_SYS*%
X69750000Y-54600000D03*
%TO.P,U1,8*%
%TO.N,/GND*%
X69250000Y-54600000D03*
D22*
%TO.P,U1,9*%
%TO.N,/SS_TR*%
X68600000Y-55250000D03*
%TO.P,U1,10*%
%TO.N,/BUCK_IN*%
X68600000Y-55750000D03*
%TO.P,U1,11*%
X68600000Y-56250000D03*
%TO.P,U1,12*%
X68600000Y-56750000D03*
D23*
%TO.P,U1,13*%
X69250000Y-57400000D03*
%TO.P,U1,14*%
%TO.N,/5V_SYS*%
X69750000Y-57400000D03*
%TO.P,U1,15*%
%TO.N,/GND*%
X70250000Y-57400000D03*
%TO.P,U1,16*%
X70750000Y-57400000D03*
D24*
%TO.P,U1,EP*%
X70000000Y-56000000D03*
%TD*%
D25*
%TO.P,C4,1*%
%TO.N,/SS_TR*%
X67000000Y-52775000D03*
%TO.P,C4,2*%
%TO.N,/GND*%
X67000000Y-54225000D03*
%TD*%
D21*
%TO.P,C10,1*%
%TO.N,/AUX_3V3*%
X15400000Y-27000000D03*
%TO.P,C10,2*%
%TO.N,/GND*%
X13400000Y-27000000D03*
%TD*%
D26*
%TO.P,U4,1*%
%TO.N,/GND*%
X17500000Y-24700000D03*
%TO.P,U4,2*%
%TO.N,/AUX_3V3*%
X17500000Y-27000000D03*
D27*
X23800000Y-27000000D03*
D26*
%TO.P,U4,3*%
%TO.N,/5V_SYS*%
X17500000Y-29300000D03*
%TD*%
D10*
%TO.P,R4,1*%
%TO.N,/BAT_SENSE*%
X89275000Y-66000000D03*
%TO.P,R4,2*%
%TO.N,/GND*%
X90725000Y-66000000D03*
%TD*%
D28*
%TO.P,L1,1*%
%TO.N,/BUCK_SW*%
X74850000Y-58200000D03*
%TO.P,L1,2*%
%TO.N,/5V_SYS*%
X74850000Y-54850000D03*
%TD*%
D10*
%TO.P,C8,1*%
%TO.N,/BAT_SENSE*%
X87275000Y-69000000D03*
%TO.P,C8,2*%
%TO.N,/GND*%
X88725000Y-69000000D03*
%TD*%
%TO.P,R3,1*%
%TO.N,/BUCK_IN*%
X85275000Y-66000000D03*
%TO.P,R3,2*%
%TO.N,/BAT_SENSE*%
X86725000Y-66000000D03*
%TD*%
D12*
%TO.P,J5,1*%
%TO.N,/GND*%
X63000000Y-20000000D03*
D13*
%TO.P,J5,2*%
%TO.N,/AUX_3V3*%
X63000000Y-22540000D03*
%TO.P,J5,3*%
%TO.N,/OLED_SCL*%
X63000000Y-25080000D03*
%TO.P,J5,4*%
%TO.N,/OLED_SDA*%
X63000000Y-27620000D03*
%TD*%
D16*
%TO.P,TP1,1*%
%TO.N,/BAT_PLUS*%
X48000000Y-87000000D03*
%TD*%
D29*
%TO.P,D3,1*%
%TO.N,/BAT_FUSED*%
X44050000Y-70500000D03*
%TO.P,D3,2*%
%TO.N,/GND*%
X39750000Y-70500000D03*
%TD*%
D30*
%TO.P,Q1,1*%
%TO.N,/Q1_GATE*%
X61650000Y-77000000D03*
%TO.P,Q1,2*%
%TO.N,/BUCK_IN*%
X64350000Y-77000000D03*
%TO.P,Q1,3*%
%TO.N,/BAT_SW*%
X63000000Y-75000000D03*
%TD*%
D12*
%TO.P,J6,1*%
%TO.N,/GND*%
X94000000Y-18000000D03*
D13*
%TO.P,J6,2*%
%TO.N,/GPIO13*%
X94000000Y-20540000D03*
%TO.P,J6,3*%
%TO.N,/GPIO14*%
X94000000Y-23080000D03*
%TO.P,J6,4*%
%TO.N,/GPIO18*%
X94000000Y-25620000D03*
%TO.P,J6,5*%
%TO.N,/GPIO19*%
X94000000Y-28160000D03*
%TO.P,J6,6*%
%TO.N,/GPIO23*%
X94000000Y-30700000D03*
%TD*%
D31*
%TO.P,C1,1*%
%TO.N,/BUCK_IN*%
X66700000Y-59225000D03*
%TO.P,C1,2*%
%TO.N,/GND*%
X68700000Y-59225000D03*
%TD*%
D20*
%TO.P,C7,1*%
%TO.N,/5V_SYS*%
X85500000Y-54725000D03*
%TO.P,C7,2*%
%TO.N,/GND*%
X85500000Y-53275000D03*
%TD*%
D16*
%TO.P,TP3,1*%
%TO.N,/BUCK_IN*%
X58000000Y-87000000D03*
%TD*%
D32*
%TO.N,/5V_SYS*%
X73100000Y-59225000D03*
X72800000Y-54850000D03*
X69750000Y-53750000D03*
X80000000Y-64000000D03*
%TO.N,/GND*%
X59500000Y-66275000D03*
X65950000Y-54225000D03*
X47500000Y-35000000D03*
X24725000Y-51000000D03*
X70500000Y-53000000D03*
X12000000Y-27000000D03*
X90725000Y-69000000D03*
X69900000Y-60300000D03*
X41500000Y-35000000D03*
X64550000Y-56000000D03*
X91000000Y-55000000D03*
X97000000Y-59080000D03*
X42200000Y-70500000D03*
X68700000Y-54000000D03*
X85500000Y-51900000D03*
X14000000Y-34000000D03*
X15500000Y-24700000D03*
X87200000Y-56500000D03*
X22030000Y-51000000D03*
X68700000Y-60300000D03*
%TO.N,/WS2812_DATA_3V3*%
X105000000Y-10000000D03*
X89000000Y-58000000D03*
%TO.N,/E220_M0*%
X104000000Y-31780000D03*
X97000000Y-39200000D03*
X92200000Y-39200000D03*
X27000000Y-39200000D03*
%TO.N,/E220_M1*%
X44000000Y-35000000D03*
X92900000Y-39900000D03*
X97700000Y-39900000D03*
X44000000Y-39900000D03*
X27800000Y-39900000D03*
X105000000Y-29240000D03*
%TO.N,/E220_RXD*%
X93600000Y-40600000D03*
X98400000Y-40600000D03*
X28600000Y-40600000D03*
X108500000Y-30510000D03*
%TO.N,/E220_TXD*%
X99100000Y-41300000D03*
X109300000Y-27970000D03*
X94300000Y-41300000D03*
X29400000Y-41300000D03*
%TO.N,/E220_AUX*%
X95000000Y-42000000D03*
X99800000Y-42000000D03*
X30200000Y-42000000D03*
X100500000Y-42000000D03*
%TO.N,/GPIO13*%
X98000000Y-20540000D03*
%TO.N,/GPIO14*%
X98000000Y-23080000D03*
%TO.N,/BAT_SENSE*%
X86725000Y-63000000D03*
%TO.N,/GPIO18*%
X115000000Y-20350000D03*
%TO.N,/GPIO19*%
X115000000Y-22890000D03*
%TO.N,/GPIO23*%
X118000000Y-38130000D03*
X99000000Y-30700000D03*
X102500000Y-30700000D03*
%TO.N,/Q1_GATE*%
X61650000Y-78500000D03*
X56500000Y-69000000D03*
%TD*%
%TO.N,/5V_SYS*%
D33*
X71200000Y-58180000D02*
X71500000Y-58525000D01*
X69750000Y-57400000D02*
X69750000Y-58180000D01*
D34*
X73150000Y-54850000D02*
X72800000Y-54850000D01*
D35*
X96000000Y-43500000D02*
X96000000Y-14000000D01*
D36*
X20580000Y-43500000D02*
X20580000Y-49750000D01*
D37*
X87000000Y-51900000D02*
X88525000Y-51900000D01*
D38*
X69750000Y-54600000D02*
X69750000Y-53750000D01*
D37*
X87000000Y-54725000D02*
X87000000Y-51900000D01*
D36*
X20580000Y-43500000D02*
X12000000Y-41000000D01*
D35*
X80000000Y-54725000D02*
X80000000Y-43500000D01*
D36*
X17500000Y-32000000D02*
X17500000Y-29300000D01*
D35*
X80000000Y-64000000D02*
X80000000Y-54725000D01*
D33*
X71500000Y-58525000D02*
X71900000Y-59225000D01*
D35*
X96000000Y-43500000D02*
X100000000Y-43500000D01*
D33*
X69750000Y-58180000D02*
X71200000Y-58180000D01*
D34*
X73100000Y-59225000D02*
X71900000Y-59225000D01*
D35*
X100000000Y-43500000D02*
X100000000Y-54000000D01*
D36*
X12000000Y-41000000D02*
X12000000Y-32000000D01*
D37*
X85500000Y-54725000D02*
X87000000Y-54725000D01*
X88525000Y-51900000D02*
X88525000Y-53250000D01*
D35*
X80000000Y-43500000D02*
X96000000Y-43500000D01*
D36*
X20580000Y-49750000D02*
X20580000Y-53500000D01*
X80000000Y-54725000D02*
X85500000Y-54725000D01*
X23275000Y-43500000D02*
X23275000Y-48000000D01*
X12000000Y-32000000D02*
X17500000Y-32000000D01*
D35*
X80000000Y-43500000D02*
X20580000Y-43500000D01*
%TO.N,/GND*%
D38*
X58500000Y-66275000D02*
X59500000Y-66275000D01*
X46725000Y-35000000D02*
X47500000Y-35000000D01*
D37*
X85500000Y-53275000D02*
X85500000Y-51900000D01*
X100000000Y-59080000D02*
X97000000Y-59080000D01*
X89950000Y-54750000D02*
X91000000Y-55000000D01*
D38*
X90725000Y-66000000D02*
X90725000Y-69000000D01*
D35*
X38000000Y-76000000D02*
X37500000Y-76000000D01*
D37*
X17500000Y-24700000D02*
X15500000Y-24700000D01*
X88050000Y-54750000D02*
X87200000Y-56500000D01*
X39750000Y-70500000D02*
X42200000Y-70500000D01*
D35*
X38000000Y-70500000D02*
X38000000Y-76000000D01*
D37*
X13400000Y-27000000D02*
X12000000Y-27000000D01*
D38*
X90725000Y-69000000D02*
X88725000Y-69000000D01*
D37*
X22030000Y-49750000D02*
X22030000Y-51000000D01*
D35*
X39750000Y-70500000D02*
X38000000Y-70500000D01*
D38*
X40725000Y-35000000D02*
X41500000Y-35000000D01*
D37*
X24725000Y-48000000D02*
X24725000Y-51000000D01*
X17500000Y-34000000D02*
X14000000Y-34000000D01*
%TO.N,/WS2812_DATA_3V3*%
D38*
X89000000Y-58000000D02*
X89000000Y-54750000D01*
X130000000Y-10000000D02*
X105000000Y-10000000D01*
X133500000Y-24160000D02*
X130000000Y-10000000D01*
X136400000Y-24160000D02*
X133500000Y-24160000D01*
%TO.N,/WS2812_DATA_5V*%
X89475000Y-53250000D02*
X94000000Y-51500000D01*
X94000000Y-51500000D02*
X98000000Y-54000000D01*
X98000000Y-54000000D02*
X100000000Y-56540000D01*
%TO.N,/E220_M0*%
X97000000Y-39200000D02*
X104000000Y-39200000D01*
X104000000Y-39200000D02*
X104000000Y-31780000D01*
X39275000Y-35000000D02*
X39275000Y-39200000D01*
X27000000Y-39200000D02*
X92200000Y-39200000D01*
%TO.N,/E220_M1*%
X45275000Y-35000000D02*
X44000000Y-35000000D01*
X27800000Y-39900000D02*
X92900000Y-39900000D01*
X97700000Y-39900000D02*
X105000000Y-39900000D01*
X105000000Y-39900000D02*
X105000000Y-29240000D01*
%TO.N,/E220_RXD*%
X108500000Y-40600000D02*
X108500000Y-30510000D01*
X98400000Y-40600000D02*
X108500000Y-40600000D01*
X28600000Y-40600000D02*
X93600000Y-40600000D01*
%TO.N,/E220_TXD*%
X29400000Y-41300000D02*
X94300000Y-41300000D01*
X99100000Y-41300000D02*
X109300000Y-41300000D01*
X109300000Y-41300000D02*
X109300000Y-27970000D01*
%TO.N,/E220_AUX*%
X30200000Y-42000000D02*
X95000000Y-42000000D01*
X99800000Y-42000000D02*
X100500000Y-42000000D01*
%TO.N,/BAT_PLUS*%
D35*
X42862000Y-78500000D02*
X48000000Y-87000000D01*
X35000000Y-76000000D02*
X35000000Y-78500000D01*
X42862000Y-78500000D02*
X42862000Y-76000000D01*
X35000000Y-78500000D02*
X42862000Y-78500000D01*
%TO.N,/BAT_FUSED*%
X44050000Y-72500000D02*
X44050000Y-70500000D01*
X47138000Y-72500000D02*
X44050000Y-72500000D01*
X47138000Y-76000000D02*
X51000000Y-76000000D01*
X47138000Y-76000000D02*
X47138000Y-72500000D01*
%TO.N,/DEVKIT_VIN*%
X98540000Y-14000000D02*
X111000000Y-14000000D01*
%TO.N,/GPIO13*%
D38*
X98000000Y-20540000D02*
X106000000Y-20540000D01*
X106000000Y-20540000D02*
X111000000Y-19080000D01*
%TO.N,/GPIO14*%
X106000000Y-23080000D02*
X111000000Y-24160000D01*
X98000000Y-23080000D02*
X106000000Y-23080000D01*
%TO.N,/BAT_SENSE*%
X86725000Y-66000000D02*
X89275000Y-66000000D01*
X86725000Y-66000000D02*
X86725000Y-63000000D01*
X86725000Y-66000000D02*
X87275000Y-69000000D01*
%TO.N,/BUCK_IN*%
D33*
X66724999Y-56000000D02*
X68600000Y-55750000D01*
D38*
X69250000Y-57400000D02*
X68250000Y-57400000D01*
X68250000Y-56750000D02*
X68600000Y-56750000D01*
X68600000Y-56250000D02*
X68600000Y-55750000D01*
D35*
X65500000Y-61000000D02*
X66700000Y-59225000D01*
D38*
X65500000Y-70000000D02*
X75000000Y-70000000D01*
D35*
X64349999Y-77000000D02*
X65500000Y-77000000D01*
X65500000Y-77000000D02*
X65500000Y-61000000D01*
D38*
X68250000Y-57400000D02*
X68250000Y-56750000D01*
X68600000Y-56750000D02*
X68600000Y-56250000D01*
X62500000Y-67725000D02*
X65500000Y-70000000D01*
D35*
X64349999Y-77000000D02*
X58000000Y-87000000D01*
D38*
X75000000Y-70000000D02*
X82000000Y-66000000D01*
D34*
X66700000Y-59225000D02*
X67700000Y-58300000D01*
X67700000Y-58300000D02*
X67700000Y-56750000D01*
D39*
X67700000Y-56750000D02*
X68600000Y-56750000D01*
D38*
X82000000Y-66000000D02*
X85275000Y-66000000D01*
%TO.N,/BAT_SW*%
D35*
X60000000Y-74000000D02*
X63000000Y-75000000D01*
X56500000Y-76000000D02*
X60000000Y-74000000D01*
X53500000Y-76000000D02*
X56500000Y-76000000D01*
%TO.N,/GPIO18*%
D38*
X115000000Y-20350000D02*
X130000000Y-32000000D01*
X130000000Y-32000000D02*
X136400000Y-34320000D01*
%TO.N,/GPIO19*%
X130500000Y-35000000D02*
X136400000Y-36860000D01*
X115000000Y-22890000D02*
X130500000Y-35000000D01*
%TO.N,/OLED_SDA*%
X133000000Y-38000000D02*
X136400000Y-39400000D01*
X114250000Y-25500000D02*
X133000000Y-38000000D01*
X112500000Y-12000000D02*
X114250000Y-16000000D01*
X114250000Y-16000000D02*
X114250000Y-25500000D01*
X96000000Y-12000000D02*
X112500000Y-12000000D01*
X63000000Y-27620000D02*
X96000000Y-12000000D01*
%TO.N,/OLED_SCL*%
X63000000Y-25080000D02*
X97000000Y-10900000D01*
X138000000Y-31500000D02*
X138000000Y-45000000D01*
X137000000Y-30500000D02*
X138000000Y-31500000D01*
X97000000Y-10900000D02*
X112000000Y-10900000D01*
X138000000Y-45000000D02*
X136400000Y-47020000D01*
X112000000Y-10900000D02*
X135500000Y-30500000D01*
X135500000Y-30500000D02*
X137000000Y-30500000D01*
%TO.N,/GPIO23*%
X126000000Y-43000000D02*
X131000000Y-47000000D01*
X131000000Y-47000000D02*
X136400000Y-49560000D01*
X118000000Y-38130000D02*
X126000000Y-43000000D01*
X99000000Y-30700000D02*
X102500000Y-30700000D01*
%TO.N,/Q1_GATE*%
X56500000Y-69000000D02*
X56500000Y-64500000D01*
X62500000Y-64500000D02*
X62500000Y-66275000D01*
X56500000Y-64500000D02*
X62500000Y-64500000D01*
X56500000Y-69000000D02*
X56500000Y-68750000D01*
X58500000Y-68750000D02*
X58500000Y-67725000D01*
X61650000Y-77000000D02*
X61650000Y-78500000D01*
X56500000Y-68750000D02*
X58500000Y-68750000D01*
%TO.N,/BUCK_SW*%
X71400000Y-56750000D02*
X72200000Y-56750000D01*
X71400000Y-55750000D02*
X72200000Y-55750000D01*
X72200000Y-55750000D02*
X72200000Y-56750000D01*
D40*
X72200000Y-56750000D02*
X72800000Y-57350000D01*
D38*
X71400000Y-56250000D02*
X72200000Y-56250000D01*
D40*
X72800000Y-57350000D02*
X73150000Y-58200000D01*
%TO.N,/SS_TR*%
D38*
X67850000Y-52775000D02*
X67000000Y-52775000D01*
D33*
X68600000Y-55250000D02*
X67850000Y-55250000D01*
D38*
X67850000Y-55250000D02*
X67850000Y-52775000D01*
%TO.N,/AUX_3V3*%
D36*
X37500000Y-22540000D02*
X63000000Y-22540000D01*
X17500000Y-27000000D02*
X23800000Y-27000000D01*
X30000000Y-22540000D02*
X37500000Y-22540000D01*
X15400000Y-27000000D02*
X17500000Y-27000000D01*
%TD*%
%TA.AperFunction,Conductor*%
%TO.N,/AUX_3V3*%
G36*
X29943039Y-22019685D02*
G01*
X29988794Y-22072489D01*
X30000000Y-22124000D01*
X30000000Y-31876000D01*
X29980315Y-31943039D01*
X29927511Y-31988794D01*
X29876000Y-32000000D01*
X22124000Y-32000000D01*
X22056961Y-31980315D01*
X22011206Y-31927511D01*
X22000000Y-31876000D01*
X22000000Y-22124000D01*
X22019685Y-22056961D01*
X22072489Y-22011206D01*
X22124000Y-22000000D01*
X29876000Y-22000000D01*
X29943039Y-22019685D01*
G37*
%TD.AperFunction*%
%TD*%
%TA.AperFunction,Conductor*%
%TO.N,/GND*%
G36*
X66395426Y-52019685D02*
G01*
X66441181Y-52072489D01*
X66451125Y-52141647D01*
X66422100Y-52205203D01*
X66416068Y-52211681D01*
X66370145Y-52257603D01*
X66370142Y-52257608D01*
X66313981Y-52367827D01*
X66313981Y-52367828D01*
X66299500Y-52459264D01*
X66299500Y-53090739D01*
X66313981Y-53182170D01*
X66313981Y-53182171D01*
X66370142Y-53292392D01*
X66370145Y-53292396D01*
X66457603Y-53379854D01*
X66457605Y-53379855D01*
X66457609Y-53379859D01*
X66567825Y-53436017D01*
X66567826Y-53436017D01*
X66567828Y-53436018D01*
X66602947Y-53441579D01*
X66659265Y-53450500D01*
X67340734Y-53450499D01*
X67340738Y-53450499D01*
X67381102Y-53444106D01*
X67450395Y-53453061D01*
X67503847Y-53498057D01*
X67524487Y-53564808D01*
X67524500Y-53566579D01*
X67524500Y-55292854D01*
X67536273Y-55336793D01*
X67534610Y-55406643D01*
X67495446Y-55464505D01*
X67431217Y-55492008D01*
X67362315Y-55480421D01*
X67328817Y-55456566D01*
X67242396Y-55370145D01*
X67242393Y-55370143D01*
X67242391Y-55370141D01*
X67132175Y-55313983D01*
X67132174Y-55313982D01*
X67132171Y-55313981D01*
X67040735Y-55299500D01*
X66409260Y-55299500D01*
X66409260Y-55299501D01*
X66317829Y-55313981D01*
X66317828Y-55313981D01*
X66207607Y-55370142D01*
X66207603Y-55370145D01*
X66120145Y-55457603D01*
X66120142Y-55457608D01*
X66120141Y-55457609D01*
X66108518Y-55480421D01*
X66063981Y-55567827D01*
X66063981Y-55567828D01*
X66049500Y-55659264D01*
X66049500Y-56340739D01*
X66063981Y-56432170D01*
X66063981Y-56432171D01*
X66063982Y-56432174D01*
X66063983Y-56432175D01*
X66072162Y-56448228D01*
X66120142Y-56542392D01*
X66120145Y-56542396D01*
X66207603Y-56629854D01*
X66207605Y-56629855D01*
X66207609Y-56629859D01*
X66317825Y-56686017D01*
X66317826Y-56686017D01*
X66317828Y-56686018D01*
X66352947Y-56691579D01*
X66409265Y-56700500D01*
X67040734Y-56700499D01*
X67056100Y-56698065D01*
X67125392Y-56707018D01*
X67178845Y-56752013D01*
X67199487Y-56818763D01*
X67199500Y-56820538D01*
X67199500Y-58026960D01*
X67179815Y-58093999D01*
X67159701Y-58117988D01*
X66972090Y-58291528D01*
X66909510Y-58322601D01*
X66887889Y-58324500D01*
X66303147Y-58324500D01*
X66287193Y-58325995D01*
X66274061Y-58327227D01*
X66274059Y-58327227D01*
X66274055Y-58327228D01*
X66151570Y-58370088D01*
X66047152Y-58447152D01*
X65970088Y-58551570D01*
X65927226Y-58674058D01*
X65927226Y-58674060D01*
X65924500Y-58703136D01*
X65924500Y-59083382D01*
X65904815Y-59150421D01*
X65903227Y-59152831D01*
X64961596Y-60545659D01*
X64956786Y-60552109D01*
X64918685Y-60609130D01*
X64918311Y-60609685D01*
X64880976Y-60664909D01*
X64880246Y-60666276D01*
X64879951Y-60666825D01*
X64879262Y-60668096D01*
X64877044Y-60673453D01*
X64833203Y-60727856D01*
X64766908Y-60749921D01*
X64762483Y-60750000D01*
X64124000Y-60750000D01*
X64056961Y-60730315D01*
X64011206Y-60677511D01*
X64000000Y-60626000D01*
X64000000Y-52124000D01*
X64019685Y-52056961D01*
X64072489Y-52011206D01*
X64124000Y-52000000D01*
X66328387Y-52000000D01*
X66395426Y-52019685D01*
G37*
%TD.AperFunction*%
%TA.AperFunction,Conductor*%
G36*
X68906659Y-57745185D02*
G01*
X68942722Y-57780609D01*
X68985447Y-57844552D01*
X69051769Y-57888867D01*
X69051770Y-57888868D01*
X69110247Y-57900499D01*
X69110250Y-57900500D01*
X69325500Y-57900500D01*
X69392539Y-57920185D01*
X69438294Y-57972989D01*
X69449500Y-58024500D01*
X69449500Y-58140438D01*
X69449500Y-58219562D01*
X69463152Y-58270513D01*
X69469979Y-58295990D01*
X69469982Y-58295995D01*
X69509535Y-58364504D01*
X69509539Y-58364509D01*
X69509540Y-58364511D01*
X69565489Y-58420460D01*
X69565491Y-58420461D01*
X69565495Y-58420464D01*
X69611721Y-58447152D01*
X69634011Y-58460021D01*
X69710438Y-58480500D01*
X70826000Y-58480500D01*
X70893039Y-58500185D01*
X70938794Y-58552989D01*
X70950000Y-58604500D01*
X70950000Y-60626000D01*
X70930315Y-60693039D01*
X70877511Y-60738794D01*
X70826000Y-60750000D01*
X66748086Y-60750000D01*
X66681047Y-60730315D01*
X66635292Y-60677511D01*
X66625348Y-60608353D01*
X66645359Y-60556551D01*
X66899895Y-60180050D01*
X66953750Y-60135536D01*
X67002622Y-60125499D01*
X67096852Y-60125499D01*
X67096858Y-60125499D01*
X67125939Y-60122773D01*
X67248431Y-60079911D01*
X67352848Y-60002848D01*
X67429911Y-59898431D01*
X67451342Y-59837185D01*
X67472773Y-59775941D01*
X67472773Y-59775939D01*
X67475500Y-59746859D01*
X67475499Y-59243662D01*
X67495183Y-59176624D01*
X67515294Y-59152639D01*
X67988565Y-58714864D01*
X68001035Y-58705678D01*
X68000861Y-58705451D01*
X68007309Y-58700502D01*
X68007314Y-58700500D01*
X68045321Y-58662491D01*
X68048722Y-58659219D01*
X68088232Y-58622674D01*
X68088234Y-58622670D01*
X68093427Y-58616423D01*
X68093649Y-58616607D01*
X68095780Y-58613940D01*
X68095550Y-58613764D01*
X68100497Y-58607317D01*
X68100497Y-58607316D01*
X68100500Y-58607314D01*
X68127395Y-58560728D01*
X68129842Y-58556674D01*
X68158517Y-58511197D01*
X68158519Y-58511190D01*
X68161916Y-58503817D01*
X68162176Y-58503936D01*
X68163547Y-58500801D01*
X68163282Y-58500691D01*
X68166386Y-58493195D01*
X68166392Y-58493186D01*
X68180306Y-58441256D01*
X68181634Y-58436659D01*
X68197555Y-58385328D01*
X68197555Y-58385325D01*
X68197556Y-58385323D01*
X68198930Y-58377314D01*
X68199211Y-58377362D01*
X68199722Y-58373990D01*
X68199439Y-58373953D01*
X68200500Y-58365894D01*
X68200500Y-58312160D01*
X68200594Y-58307333D01*
X68201210Y-58291528D01*
X68202686Y-58253643D01*
X68202684Y-58253634D01*
X68201939Y-58245544D01*
X68202223Y-58245517D01*
X68200500Y-58230121D01*
X68200500Y-57849500D01*
X68220185Y-57782461D01*
X68272989Y-57736706D01*
X68324500Y-57725500D01*
X68839620Y-57725500D01*
X68906659Y-57745185D01*
G37*
%TD.AperFunction*%
%TA.AperFunction,Conductor*%
G36*
X70893039Y-52019685D02*
G01*
X70938794Y-52072489D01*
X70950000Y-52124000D01*
X70950000Y-54955986D01*
X70930315Y-55023025D01*
X70929102Y-55024877D01*
X70911133Y-55051769D01*
X70911131Y-55051773D01*
X70899500Y-55110247D01*
X70899500Y-55389752D01*
X70911131Y-55448229D01*
X70912921Y-55452549D01*
X70920388Y-55522019D01*
X70912921Y-55547451D01*
X70911131Y-55551770D01*
X70899500Y-55610247D01*
X70899500Y-55889752D01*
X70911131Y-55948229D01*
X70912921Y-55952549D01*
X70920388Y-56022019D01*
X70912921Y-56047451D01*
X70911131Y-56051770D01*
X70899500Y-56110247D01*
X70899500Y-56389752D01*
X70911131Y-56448229D01*
X70912921Y-56452549D01*
X70920388Y-56522019D01*
X70912921Y-56547451D01*
X70911131Y-56551770D01*
X70899500Y-56610247D01*
X70899500Y-56889752D01*
X70911131Y-56948228D01*
X70911132Y-56948230D01*
X70911133Y-56948231D01*
X70929101Y-56975122D01*
X70949980Y-57041797D01*
X70950000Y-57044013D01*
X70950000Y-57755500D01*
X70930315Y-57822539D01*
X70877511Y-57868294D01*
X70826000Y-57879500D01*
X70189818Y-57879500D01*
X70122779Y-57859815D01*
X70077024Y-57807011D01*
X70067080Y-57737853D01*
X70068201Y-57731308D01*
X70070500Y-57719750D01*
X70070500Y-57080249D01*
X70070499Y-57080247D01*
X70058868Y-57021770D01*
X70058867Y-57021769D01*
X70014552Y-56955447D01*
X69948230Y-56911132D01*
X69948229Y-56911131D01*
X69889752Y-56899500D01*
X69889748Y-56899500D01*
X69610252Y-56899500D01*
X69610247Y-56899500D01*
X69551770Y-56911131D01*
X69547451Y-56912921D01*
X69477981Y-56920388D01*
X69452549Y-56912921D01*
X69448229Y-56911131D01*
X69389752Y-56899500D01*
X69389748Y-56899500D01*
X69224500Y-56899500D01*
X69157461Y-56879815D01*
X69111706Y-56827011D01*
X69100500Y-56775500D01*
X69100500Y-56610249D01*
X69100499Y-56610247D01*
X69088868Y-56551771D01*
X69087081Y-56547457D01*
X69079609Y-56477988D01*
X69087081Y-56452543D01*
X69088868Y-56448228D01*
X69100499Y-56389752D01*
X69100500Y-56389750D01*
X69100500Y-56110249D01*
X69100499Y-56110247D01*
X69088868Y-56051771D01*
X69087081Y-56047457D01*
X69079609Y-55977988D01*
X69087081Y-55952543D01*
X69088868Y-55948228D01*
X69100499Y-55889752D01*
X69100500Y-55889750D01*
X69100500Y-55610249D01*
X69100499Y-55610247D01*
X69088868Y-55551771D01*
X69087081Y-55547457D01*
X69079609Y-55477988D01*
X69087081Y-55452543D01*
X69088868Y-55448228D01*
X69100499Y-55389752D01*
X69100500Y-55389750D01*
X69100500Y-55110249D01*
X69100499Y-55110247D01*
X69088868Y-55051770D01*
X69088867Y-55051769D01*
X69044552Y-54985447D01*
X68978230Y-54941132D01*
X68978229Y-54941131D01*
X68919752Y-54929500D01*
X68919748Y-54929500D01*
X68299500Y-54929500D01*
X68232461Y-54909815D01*
X68186706Y-54857011D01*
X68175500Y-54805500D01*
X68175500Y-53684108D01*
X69249500Y-53684108D01*
X69249500Y-53815891D01*
X69283608Y-53943187D01*
X69316554Y-54000250D01*
X69349500Y-54057314D01*
X69349502Y-54057316D01*
X69388181Y-54095995D01*
X69421666Y-54157318D01*
X69424500Y-54183676D01*
X69424500Y-54642852D01*
X69425275Y-54645744D01*
X69429500Y-54677837D01*
X69429500Y-54919752D01*
X69441131Y-54978229D01*
X69441132Y-54978230D01*
X69485447Y-55044552D01*
X69551769Y-55088867D01*
X69551770Y-55088868D01*
X69610247Y-55100499D01*
X69610250Y-55100500D01*
X69610252Y-55100500D01*
X69889750Y-55100500D01*
X69889751Y-55100499D01*
X69904568Y-55097552D01*
X69948229Y-55088868D01*
X69948229Y-55088867D01*
X69948231Y-55088867D01*
X70014552Y-55044552D01*
X70058867Y-54978231D01*
X70058867Y-54978229D01*
X70058868Y-54978229D01*
X70070499Y-54919752D01*
X70070500Y-54919750D01*
X70070500Y-54677837D01*
X70074725Y-54645744D01*
X70075500Y-54642853D01*
X70075500Y-54183676D01*
X70095185Y-54116637D01*
X70111819Y-54095995D01*
X70150500Y-54057314D01*
X70216392Y-53943186D01*
X70250500Y-53815892D01*
X70250500Y-53684108D01*
X70216392Y-53556814D01*
X70150500Y-53442686D01*
X70057314Y-53349500D01*
X70000250Y-53316554D01*
X69943187Y-53283608D01*
X69879539Y-53266554D01*
X69815892Y-53249500D01*
X69684108Y-53249500D01*
X69556812Y-53283608D01*
X69442686Y-53349500D01*
X69442683Y-53349502D01*
X69349502Y-53442683D01*
X69349500Y-53442686D01*
X69283608Y-53556812D01*
X69249500Y-53684108D01*
X68175500Y-53684108D01*
X68175500Y-52732149D01*
X68175500Y-52732147D01*
X68153318Y-52649362D01*
X68153314Y-52649355D01*
X68110469Y-52575144D01*
X68110463Y-52575136D01*
X68049863Y-52514536D01*
X68049855Y-52514530D01*
X67975644Y-52471685D01*
X67975640Y-52471683D01*
X67975638Y-52471682D01*
X67892853Y-52449500D01*
X67892852Y-52449500D01*
X67802646Y-52449500D01*
X67735607Y-52429815D01*
X67689852Y-52377011D01*
X67687112Y-52369976D01*
X67686017Y-52367827D01*
X67686017Y-52367825D01*
X67629859Y-52257609D01*
X67629857Y-52257607D01*
X67629854Y-52257603D01*
X67583932Y-52211681D01*
X67550447Y-52150358D01*
X67555431Y-52080666D01*
X67597303Y-52024733D01*
X67662767Y-52000316D01*
X67671613Y-52000000D01*
X70826000Y-52000000D01*
X70893039Y-52019685D01*
G37*
%TD.AperFunction*%
%TD*%
M02*
