M48
; DRILL file KiCad 10.0.5-10.0.5~ubuntu22.04.1 date 2026-08-21T09:44:33
; FORMAT={-:-/ absolute / metric / decimal}
; #@! TF.CreationDate,2026-08-21T09:44:33+07:00
; #@! TF.GenerationSoftware,Kicad,Pcbnew,10.0.5-10.0.5~ubuntu22.04.1
; #@! TF.FileFunction,Plated,1,2,PTH
FMAT,2
METRIC
; #@! TA.AperFunction,Plated,PTH,ViaDrill
T1C0.300
; #@! TA.AperFunction,Plated,PTH,ComponentDrill
T2C1.000
; #@! TA.AperFunction,Plated,PTH,ComponentDrill
T3C1.040
%
G90
G05
T1
X12.0Y-27.0
X14.0Y-34.0
X15.5Y-24.7
X22.03Y-51.0
X24.725Y-51.0
X27.0Y-39.2
X27.8Y-39.9
X28.6Y-40.6
X29.4Y-41.3
X30.2Y-42.0
X41.5Y-35.0
X42.2Y-70.5
X44.0Y-35.0
X44.0Y-39.9
X47.5Y-35.0
X56.5Y-69.0
X59.5Y-66.275
X61.65Y-78.5
X64.55Y-56.0
X65.95Y-54.225
X68.7Y-54.0
X68.7Y-60.3
X69.75Y-53.75
X69.9Y-60.3
X70.5Y-53.0
X72.8Y-54.85
X73.1Y-59.225
X80.0Y-64.0
X85.5Y-51.9
X86.725Y-63.0
X87.2Y-56.5
X89.0Y-58.0
X90.725Y-69.0
X91.0Y-55.0
X92.2Y-39.2
X92.9Y-39.9
X93.6Y-40.6
X94.3Y-41.3
X95.0Y-42.0
X97.0Y-39.2
X97.0Y-59.08
X97.7Y-39.9
X98.0Y-20.54
X98.0Y-23.08
X98.4Y-40.6
X99.0Y-30.7
X99.1Y-41.3
X99.8Y-42.0
X100.5Y-42.0
X102.5Y-30.7
X104.0Y-31.78
X105.0Y-10.0
X105.0Y-29.24
X108.5Y-30.51
X109.3Y-27.97
X115.0Y-20.35
X115.0Y-22.89
X118.0Y-38.13
T2
X35.0Y-76.0
X37.5Y-76.0
X48.0Y-87.0
X51.0Y-76.0
X53.0Y-87.0
X53.5Y-76.0
X58.0Y-87.0
X63.0Y-87.0
X68.0Y-87.0
X94.0Y-18.0
X94.0Y-20.54
X94.0Y-23.08
X94.0Y-25.62
X94.0Y-28.16
X94.0Y-30.7
X96.0Y-14.0
X98.54Y-14.0
X100.0Y-54.0
X100.0Y-56.54
X100.0Y-59.08
T3
X7.88Y-53.5
X10.42Y-53.5
X12.96Y-53.5
X15.5Y-53.5
X18.04Y-53.5
X20.58Y-53.5
X23.12Y-53.5
X63.0Y-20.0
X63.0Y-22.54
X63.0Y-25.08
X63.0Y-27.62
X111.0Y-14.0
X111.0Y-16.54
X111.0Y-19.08
X111.0Y-21.62
X111.0Y-24.16
X111.0Y-26.7
X111.0Y-29.24
X111.0Y-31.78
X111.0Y-34.32
X111.0Y-36.86
X111.0Y-39.4
X111.0Y-41.94
X111.0Y-44.48
X111.0Y-47.02
X111.0Y-49.56
X136.4Y-14.0
X136.4Y-16.54
X136.4Y-19.08
X136.4Y-21.62
X136.4Y-24.16
X136.4Y-26.7
X136.4Y-29.24
X136.4Y-31.78
X136.4Y-34.32
X136.4Y-36.86
X136.4Y-39.4
X136.4Y-41.94
X136.4Y-44.48
X136.4Y-47.02
X136.4Y-49.56
M30
