G04 #@! TF.GenerationSoftware,KiCad,Pcbnew,10.0.6-10.0.6~ubuntu22.04.1*
G04 #@! TF.CreationDate,2026-09-16T09:36:57+07:00*
G04 #@! TF.ProjectId,candidate-d3-murata,63616e64-6964-4617-9465-2d64332d6d75,rev?*
G04 #@! TF.SameCoordinates,Original*
G04 #@! TF.FileFunction,Other,User*
%FSLAX46Y46*%
G04 Gerber Fmt 4.6, Leading zero omitted, Abs format (unit mm)*
G04 Created by KiCad (PCBNEW 10.0.6-10.0.6~ubuntu22.04.1) date 2026-09-16 09:36:57*
%MOMM*%
%LPD*%
G01*
G04 APERTURE LIST*
%ADD10C,0.050000*%
G04 APERTURE END LIST*
G04 #@! TO.C,C6*
D10*
X20005000Y-48850000D02*
X22605000Y-48850000D01*
X20005000Y-50650000D02*
X20005000Y-48850000D01*
X22605000Y-48850000D02*
X22605000Y-50650000D01*
X22605000Y-50650000D02*
X20005000Y-50650000D01*
G04 #@! TO.C,U3*
X87200000Y-51900000D02*
X90800000Y-51900000D01*
X87200000Y-56100000D02*
X87200000Y-51900000D01*
X90800000Y-51900000D02*
X90800000Y-56100000D01*
X90800000Y-56100000D02*
X87200000Y-56100000D01*
G04 #@! TO.C,C5*
X22700000Y-47100000D02*
X25300000Y-47100000D01*
X22700000Y-48900000D02*
X22700000Y-47100000D01*
X25300000Y-47100000D02*
X25300000Y-48900000D01*
X25300000Y-48900000D02*
X22700000Y-48900000D01*
G04 #@! TO.C,J3*
X4000000Y-51000000D02*
X27000000Y-51000000D01*
X4000000Y-89000000D02*
X4000000Y-51000000D01*
X27000000Y-51000000D02*
X27000000Y-89000000D01*
X27000000Y-89000000D02*
X4000000Y-89000000D01*
G04 #@! TO.C,F1*
X40700000Y-73880000D02*
X47800000Y-73880000D01*
X40700000Y-78120000D02*
X40700000Y-73880000D01*
X47800000Y-73880000D02*
X47800000Y-78120000D01*
X47800000Y-78120000D02*
X40700000Y-78120000D01*
G04 #@! TO.C,J1*
X109150000Y-12100000D02*
X112850000Y-12100000D01*
X109150000Y-51460000D02*
X109150000Y-12100000D01*
X112850000Y-12100000D02*
X112850000Y-51460000D01*
X112850000Y-51460000D02*
X109150000Y-51460000D01*
G04 #@! TO.C,R8*
X38700000Y-34100000D02*
X41300000Y-34100000D01*
X38700000Y-35900000D02*
X38700000Y-34100000D01*
X41300000Y-34100000D02*
X41300000Y-35900000D01*
X41300000Y-35900000D02*
X38700000Y-35900000D01*
G04 #@! TO.C,J9*
X98150000Y-52150000D02*
X101850000Y-52150000D01*
X98150000Y-60930000D02*
X98150000Y-52150000D01*
X101850000Y-52150000D02*
X101850000Y-60930000D01*
X101850000Y-60930000D02*
X98150000Y-60930000D01*
G04 #@! TO.C,JP1*
X94100000Y-12150000D02*
X100440000Y-12150000D01*
X94100000Y-15850000D02*
X94100000Y-12150000D01*
X100440000Y-12150000D02*
X100440000Y-15850000D01*
X100440000Y-15850000D02*
X94100000Y-15850000D01*
G04 #@! TO.C,C9*
X16375000Y-31350000D02*
X18625000Y-31350000D01*
X16375000Y-34650000D02*
X16375000Y-31350000D01*
X18625000Y-31350000D02*
X18625000Y-34650000D01*
X18625000Y-34650000D02*
X16375000Y-34650000D01*
G04 #@! TO.C,TP2*
X54800000Y-87000000D02*
X54799931Y-87015708D01*
X54799931Y-87015708D02*
X54799726Y-87031414D01*
X54799726Y-87031414D02*
X54799383Y-87047119D01*
X54799383Y-87047119D02*
X54798903Y-87062819D01*
X54798903Y-87062819D02*
X54798287Y-87078515D01*
X54798287Y-87078515D02*
X54797533Y-87094205D01*
X54797533Y-87094205D02*
X54796643Y-87109887D01*
X54796643Y-87109887D02*
X54795615Y-87125562D01*
X54795615Y-87125562D02*
X54794451Y-87141226D01*
X54794451Y-87141226D02*
X54793150Y-87156880D01*
X54793150Y-87156880D02*
X54791713Y-87172522D01*
X54791713Y-87172522D02*
X54790139Y-87188151D01*
X54790139Y-87188151D02*
X54788429Y-87203766D01*
X54788429Y-87203766D02*
X54786583Y-87219365D01*
X54786583Y-87219365D02*
X54784601Y-87234947D01*
X54784601Y-87234947D02*
X54782483Y-87250512D01*
X54782483Y-87250512D02*
X54780229Y-87266057D01*
X54780229Y-87266057D02*
X54777839Y-87281582D01*
X54777839Y-87281582D02*
X54775314Y-87297086D01*
X54775314Y-87297086D02*
X54772654Y-87312567D01*
X54772654Y-87312567D02*
X54769859Y-87328024D01*
X54769859Y-87328024D02*
X54766929Y-87343456D01*
X54766929Y-87343456D02*
X54763864Y-87358862D01*
X54763864Y-87358862D02*
X54760666Y-87374241D01*
X54760666Y-87374241D02*
X54757333Y-87389591D01*
X54757333Y-87389591D02*
X54753866Y-87404912D01*
X54753866Y-87404912D02*
X54750266Y-87420202D01*
X54750266Y-87420202D02*
X54746532Y-87435459D01*
X54746532Y-87435459D02*
X54742666Y-87450684D01*
X54742666Y-87450684D02*
X54738666Y-87465874D01*
X54738666Y-87465874D02*
X54734535Y-87481029D01*
X54734535Y-87481029D02*
X54730271Y-87496147D01*
X54730271Y-87496147D02*
X54725876Y-87511228D01*
X54725876Y-87511228D02*
X54721349Y-87526269D01*
X54721349Y-87526269D02*
X54716691Y-87541270D01*
X54716691Y-87541270D02*
X54716624Y-87541481D01*
X54645998Y-87728486D02*
X54639578Y-87742822D01*
X54639578Y-87742822D02*
X54633033Y-87757102D01*
X54633033Y-87757102D02*
X54626364Y-87771324D01*
X54626364Y-87771324D02*
X54619571Y-87785487D01*
X54619571Y-87785487D02*
X54612655Y-87799590D01*
X54612655Y-87799590D02*
X54605616Y-87813633D01*
X54605616Y-87813633D02*
X54598454Y-87827613D01*
X54598454Y-87827613D02*
X54591171Y-87841531D01*
X54591171Y-87841531D02*
X54583767Y-87855384D01*
X54583767Y-87855384D02*
X54576242Y-87869172D01*
X54576242Y-87869172D02*
X54568597Y-87882894D01*
X54568597Y-87882894D02*
X54560833Y-87896549D01*
X54560833Y-87896549D02*
X54552950Y-87910136D01*
X54552950Y-87910136D02*
X54544948Y-87923653D01*
X54544948Y-87923653D02*
X54536829Y-87937100D01*
X54536829Y-87937100D02*
X54528593Y-87950475D01*
X54528593Y-87950475D02*
X54520241Y-87963778D01*
X54520241Y-87963778D02*
X54511772Y-87977008D01*
X54511772Y-87977008D02*
X54503189Y-87990163D01*
X54503189Y-87990163D02*
X54494491Y-88003243D01*
X54494491Y-88003243D02*
X54485679Y-88016247D01*
X54485679Y-88016247D02*
X54476754Y-88029173D01*
X54476754Y-88029173D02*
X54467717Y-88042021D01*
X54467717Y-88042021D02*
X54458568Y-88054789D01*
X54458568Y-88054789D02*
X54449308Y-88067477D01*
X54449308Y-88067477D02*
X54439937Y-88080084D01*
X54439937Y-88080084D02*
X54430457Y-88092609D01*
X54430457Y-88092609D02*
X54420868Y-88105050D01*
X54420868Y-88105050D02*
X54411170Y-88117407D01*
X54411170Y-88117407D02*
X54401365Y-88129679D01*
X54401365Y-88129679D02*
X54391454Y-88141865D01*
X54391454Y-88141865D02*
X54381436Y-88153964D01*
X54381436Y-88153964D02*
X54371314Y-88165976D01*
X54371314Y-88165976D02*
X54361087Y-88177898D01*
X54361087Y-88177898D02*
X54350756Y-88189731D01*
X54350756Y-88189731D02*
X54350609Y-88189897D01*
X54210342Y-88332318D02*
X54198669Y-88342830D01*
X54198669Y-88342830D02*
X54186906Y-88353239D01*
X54186906Y-88353239D02*
X54175051Y-88363545D01*
X54175051Y-88363545D02*
X54163107Y-88373747D01*
X54163107Y-88373747D02*
X54151075Y-88383845D01*
X54151075Y-88383845D02*
X54138955Y-88393837D01*
X54138955Y-88393837D02*
X54126748Y-88403723D01*
X54126748Y-88403723D02*
X54114456Y-88413502D01*
X54114456Y-88413502D02*
X54102078Y-88423174D01*
X54102078Y-88423174D02*
X54089617Y-88432737D01*
X54089617Y-88432737D02*
X54077073Y-88442191D01*
X54077073Y-88442191D02*
X54064446Y-88451535D01*
X54064446Y-88451535D02*
X54051739Y-88460769D01*
X54051739Y-88460769D02*
X54038952Y-88469891D01*
X54038952Y-88469891D02*
X54026085Y-88478902D01*
X54026085Y-88478902D02*
X54013140Y-88487799D01*
X54013140Y-88487799D02*
X54000118Y-88496584D01*
X54000118Y-88496584D02*
X53987020Y-88505254D01*
X53987020Y-88505254D02*
X53973847Y-88513810D01*
X53973847Y-88513810D02*
X53960600Y-88522251D01*
X53960600Y-88522251D02*
X53947279Y-88530576D01*
X53947279Y-88530576D02*
X53933886Y-88538784D01*
X53933886Y-88538784D02*
X53920423Y-88546875D01*
X53920423Y-88546875D02*
X53906889Y-88554848D01*
X53906889Y-88554848D02*
X53893286Y-88562703D01*
X53893286Y-88562703D02*
X53879615Y-88570439D01*
X53879615Y-88570439D02*
X53865877Y-88578055D01*
X53865877Y-88578055D02*
X53852073Y-88585551D01*
X53852073Y-88585551D02*
X53838204Y-88592926D01*
X53838204Y-88592926D02*
X53824271Y-88600180D01*
X53824271Y-88600180D02*
X53810276Y-88607312D01*
X53810276Y-88607312D02*
X53796219Y-88614322D01*
X53796219Y-88614322D02*
X53782101Y-88621209D01*
X53782101Y-88621209D02*
X53767924Y-88627972D01*
X53767924Y-88627972D02*
X53753688Y-88634611D01*
X53753688Y-88634611D02*
X53753487Y-88634704D01*
X53567580Y-88708172D02*
X53552652Y-88713060D01*
X53552652Y-88713060D02*
X53537682Y-88717818D01*
X53537682Y-88717818D02*
X53522671Y-88722444D01*
X53522671Y-88722444D02*
X53507620Y-88726940D01*
X53507620Y-88726940D02*
X53492531Y-88731304D01*
X53492531Y-88731304D02*
X53477404Y-88735536D01*
X53477404Y-88735536D02*
X53462240Y-88739636D01*
X53462240Y-88739636D02*
X53447042Y-88743604D01*
X53447042Y-88743604D02*
X53431809Y-88747438D01*
X53431809Y-88747438D02*
X53416543Y-88751140D01*
X53416543Y-88751140D02*
X53401246Y-88754708D01*
X53401246Y-88754708D02*
X53385918Y-88758143D01*
X53385918Y-88758143D02*
X53370561Y-88761444D01*
X53370561Y-88761444D02*
X53355176Y-88764610D01*
X53355176Y-88764610D02*
X53339763Y-88767643D01*
X53339763Y-88767643D02*
X53324325Y-88770540D01*
X53324325Y-88770540D02*
X53308862Y-88773303D01*
X53308862Y-88773303D02*
X53293375Y-88775931D01*
X53293375Y-88775931D02*
X53277866Y-88778424D01*
X53277866Y-88778424D02*
X53262336Y-88780781D01*
X53262336Y-88780781D02*
X53246786Y-88783002D01*
X53246786Y-88783002D02*
X53231218Y-88785088D01*
X53231218Y-88785088D02*
X53215631Y-88787038D01*
X53215631Y-88787038D02*
X53200028Y-88788851D01*
X53200028Y-88788851D02*
X53184410Y-88790529D01*
X53184410Y-88790529D02*
X53168778Y-88792070D01*
X53168778Y-88792070D02*
X53153133Y-88793474D01*
X53153133Y-88793474D02*
X53137476Y-88794742D01*
X53137476Y-88794742D02*
X53121809Y-88795874D01*
X53121809Y-88795874D02*
X53106133Y-88796868D01*
X53106133Y-88796868D02*
X53090448Y-88797726D01*
X53090448Y-88797726D02*
X53074757Y-88798447D01*
X53074757Y-88798447D02*
X53059060Y-88799031D01*
X53059060Y-88799031D02*
X53043358Y-88799478D01*
X53043358Y-88799478D02*
X53027654Y-88799788D01*
X53027654Y-88799788D02*
X53027432Y-88799791D01*
X52827698Y-88791734D02*
X52812069Y-88790162D01*
X52812069Y-88790162D02*
X52796454Y-88788454D01*
X52796454Y-88788454D02*
X52780855Y-88786610D01*
X52780855Y-88786610D02*
X52765272Y-88784630D01*
X52765272Y-88784630D02*
X52749707Y-88782513D01*
X52749707Y-88782513D02*
X52734162Y-88780261D01*
X52734162Y-88780261D02*
X52718636Y-88777874D01*
X52718636Y-88777874D02*
X52703132Y-88775351D01*
X52703132Y-88775351D02*
X52687651Y-88772692D01*
X52687651Y-88772692D02*
X52672193Y-88769899D01*
X52672193Y-88769899D02*
X52656761Y-88766971D01*
X52656761Y-88766971D02*
X52641354Y-88763909D01*
X52641354Y-88763909D02*
X52625975Y-88760712D01*
X52625975Y-88760712D02*
X52610624Y-88757381D01*
X52610624Y-88757381D02*
X52595303Y-88753916D01*
X52595303Y-88753916D02*
X52580013Y-88750317D01*
X52580013Y-88750317D02*
X52564755Y-88746586D01*
X52564755Y-88746586D02*
X52549530Y-88742721D01*
X52549530Y-88742721D02*
X52534339Y-88738724D01*
X52534339Y-88738724D02*
X52519184Y-88734594D01*
X52519184Y-88734594D02*
X52504065Y-88730332D01*
X52504065Y-88730332D02*
X52488984Y-88725938D01*
X52488984Y-88725938D02*
X52473942Y-88721413D01*
X52473942Y-88721413D02*
X52458940Y-88716757D01*
X52458940Y-88716757D02*
X52443980Y-88711970D01*
X52443980Y-88711970D02*
X52429061Y-88707053D01*
X52429061Y-88707053D02*
X52414186Y-88702005D01*
X52414186Y-88702005D02*
X52399356Y-88696828D01*
X52399356Y-88696828D02*
X52384571Y-88691522D01*
X52384571Y-88691522D02*
X52369834Y-88686087D01*
X52369834Y-88686087D02*
X52355144Y-88680524D01*
X52355144Y-88680524D02*
X52340503Y-88674833D01*
X52340503Y-88674833D02*
X52325913Y-88669014D01*
X52325913Y-88669014D02*
X52311374Y-88663068D01*
X52311374Y-88663068D02*
X52296887Y-88656995D01*
X52296887Y-88656995D02*
X52296684Y-88656909D01*
X52117298Y-88568706D02*
X52103643Y-88560943D01*
X52103643Y-88560943D02*
X52090055Y-88553062D01*
X52090055Y-88553062D02*
X52076537Y-88545062D01*
X52076537Y-88545062D02*
X52063089Y-88536944D01*
X52063089Y-88536944D02*
X52049712Y-88528710D01*
X52049712Y-88528710D02*
X52036408Y-88520359D01*
X52036408Y-88520359D02*
X52023178Y-88511892D01*
X52023178Y-88511892D02*
X52010021Y-88503310D01*
X52010021Y-88503310D02*
X51996940Y-88494614D01*
X51996940Y-88494614D02*
X51983936Y-88485804D01*
X51983936Y-88485804D02*
X51971008Y-88476881D01*
X51971008Y-88476881D02*
X51958159Y-88467845D01*
X51958159Y-88467845D02*
X51945390Y-88458697D01*
X51945390Y-88458697D02*
X51932701Y-88449439D01*
X51932701Y-88449439D02*
X51920093Y-88440070D01*
X51920093Y-88440070D02*
X51907567Y-88430591D01*
X51907567Y-88430591D02*
X51895125Y-88421003D01*
X51895125Y-88421003D02*
X51882766Y-88411307D01*
X51882766Y-88411307D02*
X51870493Y-88401504D01*
X51870493Y-88401504D02*
X51858306Y-88391594D01*
X51858306Y-88391594D02*
X51846205Y-88381578D01*
X51846205Y-88381578D02*
X51834193Y-88371457D01*
X51834193Y-88371457D02*
X51822269Y-88361231D01*
X51822269Y-88361231D02*
X51810435Y-88350902D01*
X51810435Y-88350902D02*
X51798692Y-88340470D01*
X51798692Y-88340470D02*
X51787040Y-88329935D01*
X51787040Y-88329935D02*
X51775480Y-88319300D01*
X51775480Y-88319300D02*
X51764014Y-88308564D01*
X51764014Y-88308564D02*
X51752642Y-88297728D01*
X51752642Y-88297728D02*
X51741365Y-88286793D01*
X51741365Y-88286793D02*
X51730183Y-88275761D01*
X51730183Y-88275761D02*
X51719099Y-88264631D01*
X51719099Y-88264631D02*
X51708112Y-88253405D01*
X51708112Y-88253405D02*
X51697223Y-88242084D01*
X51697223Y-88242084D02*
X51686434Y-88230668D01*
X51686434Y-88230668D02*
X51686282Y-88230506D01*
X51557941Y-88077250D02*
X51548596Y-88064625D01*
X51548596Y-88064625D02*
X51539361Y-88051918D01*
X51539361Y-88051918D02*
X51530237Y-88039132D01*
X51530237Y-88039132D02*
X51521224Y-88026267D01*
X51521224Y-88026267D02*
X51512325Y-88013323D01*
X51512325Y-88013323D02*
X51503539Y-88000302D01*
X51503539Y-88000302D02*
X51494867Y-87987205D01*
X51494867Y-87987205D02*
X51486309Y-87974033D01*
X51486309Y-87974033D02*
X51477867Y-87960786D01*
X51477867Y-87960786D02*
X51469540Y-87947467D01*
X51469540Y-87947467D02*
X51461331Y-87934075D01*
X51461331Y-87934075D02*
X51453238Y-87920612D01*
X51453238Y-87920612D02*
X51445263Y-87907079D01*
X51445263Y-87907079D02*
X51437407Y-87893477D01*
X51437407Y-87893477D02*
X51429669Y-87879807D01*
X51429669Y-87879807D02*
X51422051Y-87866070D01*
X51422051Y-87866070D02*
X51414554Y-87852267D01*
X51414554Y-87852267D02*
X51407177Y-87838399D01*
X51407177Y-87838399D02*
X51399921Y-87824468D01*
X51399921Y-87824468D02*
X51392787Y-87810473D01*
X51392787Y-87810473D02*
X51385776Y-87796417D01*
X51385776Y-87796417D02*
X51378887Y-87782300D01*
X51378887Y-87782300D02*
X51372122Y-87768124D01*
X51372122Y-87768124D02*
X51365481Y-87753889D01*
X51365481Y-87753889D02*
X51358964Y-87739596D01*
X51358964Y-87739596D02*
X51352573Y-87725247D01*
X51352573Y-87725247D02*
X51346307Y-87710843D01*
X51346307Y-87710843D02*
X51340166Y-87696385D01*
X51340166Y-87696385D02*
X51334153Y-87681874D01*
X51334153Y-87681874D02*
X51328266Y-87667311D01*
X51328266Y-87667311D02*
X51322506Y-87652697D01*
X51322506Y-87652697D02*
X51316874Y-87638034D01*
X51316874Y-87638034D02*
X51311370Y-87623322D01*
X51311370Y-87623322D02*
X51305995Y-87608562D01*
X51305995Y-87608562D02*
X51300749Y-87593756D01*
X51300749Y-87593756D02*
X51300676Y-87593547D01*
X51245341Y-87401462D02*
X51241904Y-87386134D01*
X51241904Y-87386134D02*
X51238602Y-87370777D01*
X51238602Y-87370777D02*
X51235433Y-87355392D01*
X51235433Y-87355392D02*
X51232399Y-87339980D01*
X51232399Y-87339980D02*
X51229499Y-87324542D01*
X51229499Y-87324542D02*
X51226735Y-87309080D01*
X51226735Y-87309080D02*
X51224105Y-87293593D01*
X51224105Y-87293593D02*
X51221611Y-87278085D01*
X51221611Y-87278085D02*
X51219252Y-87262555D01*
X51219252Y-87262555D02*
X51217028Y-87247005D01*
X51217028Y-87247005D02*
X51214941Y-87231437D01*
X51214941Y-87231437D02*
X51212989Y-87215851D01*
X51212989Y-87215851D02*
X51211173Y-87200248D01*
X51211173Y-87200248D02*
X51209494Y-87184630D01*
X51209494Y-87184630D02*
X51207951Y-87168998D01*
X51207951Y-87168998D02*
X51206544Y-87153353D01*
X51206544Y-87153353D02*
X51205275Y-87137697D01*
X51205275Y-87137697D02*
X51204141Y-87122030D01*
X51204141Y-87122030D02*
X51203145Y-87106353D01*
X51203145Y-87106353D02*
X51202285Y-87090669D01*
X51202285Y-87090669D02*
X51201562Y-87074978D01*
X51201562Y-87074978D02*
X51200976Y-87059281D01*
X51200976Y-87059281D02*
X51200528Y-87043579D01*
X51200528Y-87043579D02*
X51200216Y-87027875D01*
X51200216Y-87027875D02*
X51200041Y-87012168D01*
X51200041Y-87012168D02*
X51200003Y-86996460D01*
X51200003Y-86996460D02*
X51200103Y-86980752D01*
X51200103Y-86980752D02*
X51200339Y-86965046D01*
X51200339Y-86965046D02*
X51200713Y-86949343D01*
X51200713Y-86949343D02*
X51201224Y-86933643D01*
X51201224Y-86933643D02*
X51201871Y-86917948D01*
X51201871Y-86917948D02*
X51202656Y-86902260D01*
X51202656Y-86902260D02*
X51203577Y-86886579D01*
X51203577Y-86886579D02*
X51204635Y-86870907D01*
X51204635Y-86870907D02*
X51205830Y-86855245D01*
X51205830Y-86855245D02*
X51205848Y-86855024D01*
X51232987Y-86656978D02*
X51236047Y-86641571D01*
X51236047Y-86641571D02*
X51239242Y-86626191D01*
X51239242Y-86626191D02*
X51242572Y-86610840D01*
X51242572Y-86610840D02*
X51246035Y-86595519D01*
X51246035Y-86595519D02*
X51249631Y-86580228D01*
X51249631Y-86580228D02*
X51253361Y-86564969D01*
X51253361Y-86564969D02*
X51257224Y-86549744D01*
X51257224Y-86549744D02*
X51261219Y-86534553D01*
X51261219Y-86534553D02*
X51265347Y-86519397D01*
X51265347Y-86519397D02*
X51269607Y-86504278D01*
X51269607Y-86504278D02*
X51273999Y-86489196D01*
X51273999Y-86489196D02*
X51278522Y-86474154D01*
X51278522Y-86474154D02*
X51283177Y-86459151D01*
X51283177Y-86459151D02*
X51287962Y-86444190D01*
X51287962Y-86444190D02*
X51292877Y-86429271D01*
X51292877Y-86429271D02*
X51297923Y-86414395D01*
X51297923Y-86414395D02*
X51303098Y-86399564D01*
X51303098Y-86399564D02*
X51308402Y-86384779D01*
X51308402Y-86384779D02*
X51313835Y-86370041D01*
X51313835Y-86370041D02*
X51319397Y-86355350D01*
X51319397Y-86355350D02*
X51325086Y-86340709D01*
X51325086Y-86340709D02*
X51330904Y-86326118D01*
X51330904Y-86326118D02*
X51336848Y-86311578D01*
X51336848Y-86311578D02*
X51342919Y-86297091D01*
X51342919Y-86297091D02*
X51349116Y-86282657D01*
X51349116Y-86282657D02*
X51355438Y-86268278D01*
X51355438Y-86268278D02*
X51361886Y-86253954D01*
X51361886Y-86253954D02*
X51368459Y-86239688D01*
X51368459Y-86239688D02*
X51375156Y-86225479D01*
X51375156Y-86225479D02*
X51381977Y-86211329D01*
X51381977Y-86211329D02*
X51388921Y-86197239D01*
X51388921Y-86197239D02*
X51395988Y-86183211D01*
X51395988Y-86183211D02*
X51403176Y-86169245D01*
X51403176Y-86169245D02*
X51410487Y-86155341D01*
X51410487Y-86155341D02*
X51417918Y-86141503D01*
X51417918Y-86141503D02*
X51418024Y-86141308D01*
X51522993Y-85971190D02*
X51532027Y-85958340D01*
X51532027Y-85958340D02*
X51541173Y-85945569D01*
X51541173Y-85945569D02*
X51550430Y-85932879D01*
X51550430Y-85932879D02*
X51559798Y-85920270D01*
X51559798Y-85920270D02*
X51569275Y-85907743D01*
X51569275Y-85907743D02*
X51578861Y-85895299D01*
X51578861Y-85895299D02*
X51588555Y-85882939D01*
X51588555Y-85882939D02*
X51598357Y-85870665D01*
X51598357Y-85870665D02*
X51608266Y-85858476D01*
X51608266Y-85858476D02*
X51618280Y-85846375D01*
X51618280Y-85846375D02*
X51628400Y-85834361D01*
X51628400Y-85834361D02*
X51638624Y-85822436D01*
X51638624Y-85822436D02*
X51648952Y-85810601D01*
X51648952Y-85810601D02*
X51659383Y-85798856D01*
X51659383Y-85798856D02*
X51669916Y-85787203D01*
X51669916Y-85787203D02*
X51680550Y-85775642D01*
X51680550Y-85775642D02*
X51691285Y-85764175D01*
X51691285Y-85764175D02*
X51702119Y-85752801D01*
X51702119Y-85752801D02*
X51713052Y-85741523D01*
X51713052Y-85741523D02*
X51724083Y-85730340D01*
X51724083Y-85730340D02*
X51735212Y-85719254D01*
X51735212Y-85719254D02*
X51746436Y-85708266D01*
X51746436Y-85708266D02*
X51757756Y-85697375D01*
X51757756Y-85697375D02*
X51769171Y-85686585D01*
X51769171Y-85686585D02*
X51780679Y-85675894D01*
X51780679Y-85675894D02*
X51792281Y-85665304D01*
X51792281Y-85665304D02*
X51803974Y-85654815D01*
X51803974Y-85654815D02*
X51815758Y-85644429D01*
X51815758Y-85644429D02*
X51827633Y-85634147D01*
X51827633Y-85634147D02*
X51839597Y-85623968D01*
X51839597Y-85623968D02*
X51851649Y-85613894D01*
X51851649Y-85613894D02*
X51863788Y-85603926D01*
X51863788Y-85603926D02*
X51876015Y-85594064D01*
X51876015Y-85594064D02*
X51888326Y-85584309D01*
X51888326Y-85584309D02*
X51900723Y-85574662D01*
X51900723Y-85574662D02*
X51900898Y-85574526D01*
X52065736Y-85461445D02*
X52079198Y-85453351D01*
X52079198Y-85453351D02*
X52092730Y-85445374D01*
X52092730Y-85445374D02*
X52106331Y-85437516D01*
X52106331Y-85437516D02*
X52120000Y-85429777D01*
X52120000Y-85429777D02*
X52133736Y-85422158D01*
X52133736Y-85422158D02*
X52147538Y-85414658D01*
X52147538Y-85414658D02*
X52161405Y-85407280D01*
X52161405Y-85407280D02*
X52175336Y-85400022D01*
X52175336Y-85400022D02*
X52189330Y-85392887D01*
X52189330Y-85392887D02*
X52203385Y-85385873D01*
X52203385Y-85385873D02*
X52217501Y-85378983D01*
X52217501Y-85378983D02*
X52231677Y-85372216D01*
X52231677Y-85372216D02*
X52245911Y-85365574D01*
X52245911Y-85365574D02*
X52260202Y-85359055D01*
X52260202Y-85359055D02*
X52274550Y-85352662D01*
X52274550Y-85352662D02*
X52288953Y-85346394D01*
X52288953Y-85346394D02*
X52303411Y-85340252D01*
X52303411Y-85340252D02*
X52317921Y-85334236D01*
X52317921Y-85334236D02*
X52332484Y-85328348D01*
X52332484Y-85328348D02*
X52347097Y-85322586D01*
X52347097Y-85322586D02*
X52361760Y-85316952D01*
X52361760Y-85316952D02*
X52376471Y-85311447D01*
X52376471Y-85311447D02*
X52391230Y-85306070D01*
X52391230Y-85306070D02*
X52406035Y-85300822D01*
X52406035Y-85300822D02*
X52420886Y-85295703D01*
X52420886Y-85295703D02*
X52435781Y-85290715D01*
X52435781Y-85290715D02*
X52450718Y-85285856D01*
X52450718Y-85285856D02*
X52465698Y-85281128D01*
X52465698Y-85281128D02*
X52480718Y-85276531D01*
X52480718Y-85276531D02*
X52495777Y-85272065D01*
X52495777Y-85272065D02*
X52510875Y-85267731D01*
X52510875Y-85267731D02*
X52526011Y-85263528D01*
X52526011Y-85263528D02*
X52541182Y-85259458D01*
X52541182Y-85259458D02*
X52556389Y-85255520D01*
X52556389Y-85255520D02*
X52571629Y-85251716D01*
X52571629Y-85251716D02*
X52571844Y-85251663D01*
X52768344Y-85214969D02*
X52783930Y-85213015D01*
X52783930Y-85213015D02*
X52799533Y-85211198D01*
X52799533Y-85211198D02*
X52815150Y-85209517D01*
X52815150Y-85209517D02*
X52830782Y-85207972D01*
X52830782Y-85207972D02*
X52846427Y-85206563D01*
X52846427Y-85206563D02*
X52862083Y-85205291D01*
X52862083Y-85205291D02*
X52877750Y-85204156D01*
X52877750Y-85204156D02*
X52893426Y-85203158D01*
X52893426Y-85203158D02*
X52909110Y-85202296D01*
X52909110Y-85202296D02*
X52924801Y-85201571D01*
X52924801Y-85201571D02*
X52940498Y-85200984D01*
X52940498Y-85200984D02*
X52956200Y-85200533D01*
X52956200Y-85200533D02*
X52971904Y-85200219D01*
X52971904Y-85200219D02*
X52987611Y-85200043D01*
X52987611Y-85200043D02*
X53003319Y-85200003D01*
X53003319Y-85200003D02*
X53019027Y-85200101D01*
X53019027Y-85200101D02*
X53034733Y-85200335D01*
X53034733Y-85200335D02*
X53050437Y-85200707D01*
X53050437Y-85200707D02*
X53066136Y-85201215D01*
X53066136Y-85201215D02*
X53081831Y-85201861D01*
X53081831Y-85201861D02*
X53097519Y-85202644D01*
X53097519Y-85202644D02*
X53113200Y-85203563D01*
X53113200Y-85203563D02*
X53128873Y-85204619D01*
X53128873Y-85204619D02*
X53144535Y-85205812D01*
X53144535Y-85205812D02*
X53160187Y-85207142D01*
X53160187Y-85207142D02*
X53175826Y-85208608D01*
X53175826Y-85208608D02*
X53191452Y-85210211D01*
X53191452Y-85210211D02*
X53207063Y-85211949D01*
X53207063Y-85211949D02*
X53222659Y-85213824D01*
X53222659Y-85213824D02*
X53238238Y-85215836D01*
X53238238Y-85215836D02*
X53253798Y-85217982D01*
X53253798Y-85217982D02*
X53269339Y-85220265D01*
X53269339Y-85220265D02*
X53284860Y-85222683D01*
X53284860Y-85222683D02*
X53300359Y-85225237D01*
X53300359Y-85225237D02*
X53315835Y-85227925D01*
X53315835Y-85227925D02*
X53316053Y-85227964D01*
X53510592Y-85273936D02*
X53525635Y-85278458D01*
X53525635Y-85278458D02*
X53540638Y-85283110D01*
X53540638Y-85283110D02*
X53555600Y-85287894D01*
X53555600Y-85287894D02*
X53570520Y-85292807D01*
X53570520Y-85292807D02*
X53585396Y-85297851D01*
X53585396Y-85297851D02*
X53600227Y-85303024D01*
X53600227Y-85303024D02*
X53615013Y-85308327D01*
X53615013Y-85308327D02*
X53629752Y-85313758D01*
X53629752Y-85313758D02*
X53644443Y-85319318D01*
X53644443Y-85319318D02*
X53659085Y-85325006D01*
X53659085Y-85325006D02*
X53673677Y-85330821D01*
X53673677Y-85330821D02*
X53688218Y-85336763D01*
X53688218Y-85336763D02*
X53702706Y-85342832D01*
X53702706Y-85342832D02*
X53717140Y-85349028D01*
X53717140Y-85349028D02*
X53731520Y-85355349D01*
X53731520Y-85355349D02*
X53745845Y-85361795D01*
X53745845Y-85361795D02*
X53760112Y-85368366D01*
X53760112Y-85368366D02*
X53774322Y-85375061D01*
X53774322Y-85375061D02*
X53788472Y-85381880D01*
X53788472Y-85381880D02*
X53802563Y-85388822D01*
X53802563Y-85388822D02*
X53816592Y-85395887D01*
X53816592Y-85395887D02*
X53830559Y-85403074D01*
X53830559Y-85403074D02*
X53844463Y-85410383D01*
X53844463Y-85410383D02*
X53858303Y-85417813D01*
X53858303Y-85417813D02*
X53872077Y-85425363D01*
X53872077Y-85425363D02*
X53885785Y-85433033D01*
X53885785Y-85433033D02*
X53899426Y-85440823D01*
X53899426Y-85440823D02*
X53912998Y-85448731D01*
X53912998Y-85448731D02*
X53926500Y-85456758D01*
X53926500Y-85456758D02*
X53939932Y-85464901D01*
X53939932Y-85464901D02*
X53953292Y-85473162D01*
X53953292Y-85473162D02*
X53966580Y-85481539D01*
X53966580Y-85481539D02*
X53979794Y-85490032D01*
X53979794Y-85490032D02*
X53992934Y-85498640D01*
X53992934Y-85498640D02*
X54005998Y-85507362D01*
X54005998Y-85507362D02*
X54006181Y-85507485D01*
X54165470Y-85628257D02*
X54177397Y-85638480D01*
X54177397Y-85638480D02*
X54189233Y-85648806D01*
X54189233Y-85648806D02*
X54200979Y-85659236D01*
X54200979Y-85659236D02*
X54212634Y-85669767D01*
X54212634Y-85669767D02*
X54224196Y-85680400D01*
X54224196Y-85680400D02*
X54235665Y-85691133D01*
X54235665Y-85691133D02*
X54247039Y-85701966D01*
X54247039Y-85701966D02*
X54258319Y-85712898D01*
X54258319Y-85712898D02*
X54269503Y-85723927D01*
X54269503Y-85723927D02*
X54280591Y-85735054D01*
X54280591Y-85735054D02*
X54291581Y-85746278D01*
X54291581Y-85746278D02*
X54302472Y-85757596D01*
X54302472Y-85757596D02*
X54313264Y-85769010D01*
X54313264Y-85769010D02*
X54323957Y-85780517D01*
X54323957Y-85780517D02*
X54334548Y-85792117D01*
X54334548Y-85792117D02*
X54345038Y-85803809D01*
X54345038Y-85803809D02*
X54355425Y-85815592D01*
X54355425Y-85815592D02*
X54365709Y-85827465D01*
X54365709Y-85827465D02*
X54375890Y-85839428D01*
X54375890Y-85839428D02*
X54385965Y-85851479D01*
X54385965Y-85851479D02*
X54395935Y-85863617D01*
X54395935Y-85863617D02*
X54405798Y-85875842D01*
X54405798Y-85875842D02*
X54415555Y-85888153D01*
X54415555Y-85888153D02*
X54425203Y-85900548D01*
X54425203Y-85900548D02*
X54434744Y-85913027D01*
X54434744Y-85913027D02*
X54444174Y-85925588D01*
X54444174Y-85925588D02*
X54453495Y-85938232D01*
X54453495Y-85938232D02*
X54462706Y-85950956D01*
X54462706Y-85950956D02*
X54471804Y-85963761D01*
X54471804Y-85963761D02*
X54480791Y-85976644D01*
X54480791Y-85976644D02*
X54489665Y-85989605D01*
X54489665Y-85989605D02*
X54498426Y-86002643D01*
X54498426Y-86002643D02*
X54507072Y-86015757D01*
X54507072Y-86015757D02*
X54515604Y-86028946D01*
X54515604Y-86028946D02*
X54524020Y-86042209D01*
X54524020Y-86042209D02*
X54524138Y-86042397D01*
X54620921Y-86217302D02*
X54627689Y-86231477D01*
X54627689Y-86231477D02*
X54634334Y-86245710D01*
X54634334Y-86245710D02*
X54640854Y-86260001D01*
X54640854Y-86260001D02*
X54647249Y-86274348D01*
X54647249Y-86274348D02*
X54653519Y-86288750D01*
X54653519Y-86288750D02*
X54659662Y-86303207D01*
X54659662Y-86303207D02*
X54665680Y-86317717D01*
X54665680Y-86317717D02*
X54671570Y-86332278D01*
X54671570Y-86332278D02*
X54677334Y-86346891D01*
X54677334Y-86346891D02*
X54682969Y-86361553D01*
X54682969Y-86361553D02*
X54688477Y-86376264D01*
X54688477Y-86376264D02*
X54693855Y-86391022D01*
X54693855Y-86391022D02*
X54699105Y-86405827D01*
X54699105Y-86405827D02*
X54704225Y-86420677D01*
X54704225Y-86420677D02*
X54709216Y-86435571D01*
X54709216Y-86435571D02*
X54714076Y-86450508D01*
X54714076Y-86450508D02*
X54718806Y-86465487D01*
X54718806Y-86465487D02*
X54723405Y-86480506D01*
X54723405Y-86480506D02*
X54727873Y-86495565D01*
X54727873Y-86495565D02*
X54732209Y-86510663D01*
X54732209Y-86510663D02*
X54736414Y-86525798D01*
X54736414Y-86525798D02*
X54740486Y-86540969D01*
X54740486Y-86540969D02*
X54744425Y-86556174D01*
X54744425Y-86556174D02*
X54748232Y-86571414D01*
X54748232Y-86571414D02*
X54751905Y-86586686D01*
X54751905Y-86586686D02*
X54755445Y-86601990D01*
X54755445Y-86601990D02*
X54758852Y-86617324D01*
X54758852Y-86617324D02*
X54762124Y-86632688D01*
X54762124Y-86632688D02*
X54765262Y-86648079D01*
X54765262Y-86648079D02*
X54768266Y-86663497D01*
X54768266Y-86663497D02*
X54771135Y-86678941D01*
X54771135Y-86678941D02*
X54773870Y-86694409D01*
X54773870Y-86694409D02*
X54776469Y-86709900D01*
X54776469Y-86709900D02*
X54778933Y-86725413D01*
X54778933Y-86725413D02*
X54781261Y-86740948D01*
X54781261Y-86740948D02*
X54781293Y-86741167D01*
X54799009Y-86940277D02*
X54799462Y-86955979D01*
X54799462Y-86955979D02*
X54799777Y-86971684D01*
X54799777Y-86971684D02*
X54799956Y-86987390D01*
X54799956Y-86987390D02*
X54800000Y-87000000D01*
G04 #@! TO.C,C2*
X64700000Y-55100000D02*
X67300000Y-55100000D01*
X64700000Y-56900000D02*
X64700000Y-55100000D01*
X67300000Y-55100000D02*
X67300000Y-56900000D01*
X67300000Y-56900000D02*
X64700000Y-56900000D01*
G04 #@! TO.C,J8*
X48050000Y-73150000D02*
X56450000Y-73150000D01*
X48050000Y-79900000D02*
X48050000Y-73150000D01*
X56450000Y-73150000D02*
X56450000Y-79900000D01*
X56450000Y-79900000D02*
X48050000Y-79900000D01*
G04 #@! TO.C,J2*
X134550000Y-12100000D02*
X138250000Y-12100000D01*
X134550000Y-51460000D02*
X134550000Y-12100000D01*
X138250000Y-12100000D02*
X138250000Y-51460000D01*
X138250000Y-51460000D02*
X134550000Y-51460000D01*
G04 #@! TO.C,TP5*
X69800000Y-87000000D02*
X69799931Y-87015708D01*
X69799931Y-87015708D02*
X69799726Y-87031414D01*
X69799726Y-87031414D02*
X69799383Y-87047119D01*
X69799383Y-87047119D02*
X69798903Y-87062819D01*
X69798903Y-87062819D02*
X69798287Y-87078515D01*
X69798287Y-87078515D02*
X69797533Y-87094205D01*
X69797533Y-87094205D02*
X69796643Y-87109887D01*
X69796643Y-87109887D02*
X69795615Y-87125562D01*
X69795615Y-87125562D02*
X69794451Y-87141226D01*
X69794451Y-87141226D02*
X69793150Y-87156880D01*
X69793150Y-87156880D02*
X69791713Y-87172522D01*
X69791713Y-87172522D02*
X69790139Y-87188151D01*
X69790139Y-87188151D02*
X69788429Y-87203766D01*
X69788429Y-87203766D02*
X69786583Y-87219365D01*
X69786583Y-87219365D02*
X69784601Y-87234947D01*
X69784601Y-87234947D02*
X69782483Y-87250512D01*
X69782483Y-87250512D02*
X69780229Y-87266057D01*
X69780229Y-87266057D02*
X69777839Y-87281582D01*
X69777839Y-87281582D02*
X69775314Y-87297086D01*
X69775314Y-87297086D02*
X69772654Y-87312567D01*
X69772654Y-87312567D02*
X69769859Y-87328024D01*
X69769859Y-87328024D02*
X69766929Y-87343456D01*
X69766929Y-87343456D02*
X69763864Y-87358862D01*
X69763864Y-87358862D02*
X69760666Y-87374241D01*
X69760666Y-87374241D02*
X69757333Y-87389591D01*
X69757333Y-87389591D02*
X69753866Y-87404912D01*
X69753866Y-87404912D02*
X69750266Y-87420202D01*
X69750266Y-87420202D02*
X69746532Y-87435459D01*
X69746532Y-87435459D02*
X69742666Y-87450684D01*
X69742666Y-87450684D02*
X69738666Y-87465874D01*
X69738666Y-87465874D02*
X69734535Y-87481029D01*
X69734535Y-87481029D02*
X69730271Y-87496147D01*
X69730271Y-87496147D02*
X69725876Y-87511228D01*
X69725876Y-87511228D02*
X69721349Y-87526269D01*
X69721349Y-87526269D02*
X69716691Y-87541270D01*
X69716691Y-87541270D02*
X69716624Y-87541481D01*
X69645998Y-87728486D02*
X69639578Y-87742822D01*
X69639578Y-87742822D02*
X69633033Y-87757102D01*
X69633033Y-87757102D02*
X69626364Y-87771324D01*
X69626364Y-87771324D02*
X69619571Y-87785487D01*
X69619571Y-87785487D02*
X69612655Y-87799590D01*
X69612655Y-87799590D02*
X69605616Y-87813633D01*
X69605616Y-87813633D02*
X69598454Y-87827613D01*
X69598454Y-87827613D02*
X69591171Y-87841531D01*
X69591171Y-87841531D02*
X69583767Y-87855384D01*
X69583767Y-87855384D02*
X69576242Y-87869172D01*
X69576242Y-87869172D02*
X69568597Y-87882894D01*
X69568597Y-87882894D02*
X69560833Y-87896549D01*
X69560833Y-87896549D02*
X69552950Y-87910136D01*
X69552950Y-87910136D02*
X69544948Y-87923653D01*
X69544948Y-87923653D02*
X69536829Y-87937100D01*
X69536829Y-87937100D02*
X69528593Y-87950475D01*
X69528593Y-87950475D02*
X69520241Y-87963778D01*
X69520241Y-87963778D02*
X69511772Y-87977008D01*
X69511772Y-87977008D02*
X69503189Y-87990163D01*
X69503189Y-87990163D02*
X69494491Y-88003243D01*
X69494491Y-88003243D02*
X69485679Y-88016247D01*
X69485679Y-88016247D02*
X69476754Y-88029173D01*
X69476754Y-88029173D02*
X69467717Y-88042021D01*
X69467717Y-88042021D02*
X69458568Y-88054789D01*
X69458568Y-88054789D02*
X69449308Y-88067477D01*
X69449308Y-88067477D02*
X69439937Y-88080084D01*
X69439937Y-88080084D02*
X69430457Y-88092609D01*
X69430457Y-88092609D02*
X69420868Y-88105050D01*
X69420868Y-88105050D02*
X69411170Y-88117407D01*
X69411170Y-88117407D02*
X69401365Y-88129679D01*
X69401365Y-88129679D02*
X69391454Y-88141865D01*
X69391454Y-88141865D02*
X69381436Y-88153964D01*
X69381436Y-88153964D02*
X69371314Y-88165976D01*
X69371314Y-88165976D02*
X69361087Y-88177898D01*
X69361087Y-88177898D02*
X69350756Y-88189731D01*
X69350756Y-88189731D02*
X69350609Y-88189897D01*
X69210342Y-88332318D02*
X69198669Y-88342830D01*
X69198669Y-88342830D02*
X69186906Y-88353239D01*
X69186906Y-88353239D02*
X69175051Y-88363545D01*
X69175051Y-88363545D02*
X69163107Y-88373747D01*
X69163107Y-88373747D02*
X69151075Y-88383845D01*
X69151075Y-88383845D02*
X69138955Y-88393837D01*
X69138955Y-88393837D02*
X69126748Y-88403723D01*
X69126748Y-88403723D02*
X69114456Y-88413502D01*
X69114456Y-88413502D02*
X69102078Y-88423174D01*
X69102078Y-88423174D02*
X69089617Y-88432737D01*
X69089617Y-88432737D02*
X69077073Y-88442191D01*
X69077073Y-88442191D02*
X69064446Y-88451535D01*
X69064446Y-88451535D02*
X69051739Y-88460769D01*
X69051739Y-88460769D02*
X69038952Y-88469891D01*
X69038952Y-88469891D02*
X69026085Y-88478902D01*
X69026085Y-88478902D02*
X69013140Y-88487799D01*
X69013140Y-88487799D02*
X69000118Y-88496584D01*
X69000118Y-88496584D02*
X68987020Y-88505254D01*
X68987020Y-88505254D02*
X68973847Y-88513810D01*
X68973847Y-88513810D02*
X68960600Y-88522251D01*
X68960600Y-88522251D02*
X68947279Y-88530576D01*
X68947279Y-88530576D02*
X68933886Y-88538784D01*
X68933886Y-88538784D02*
X68920423Y-88546875D01*
X68920423Y-88546875D02*
X68906889Y-88554848D01*
X68906889Y-88554848D02*
X68893286Y-88562703D01*
X68893286Y-88562703D02*
X68879615Y-88570439D01*
X68879615Y-88570439D02*
X68865877Y-88578055D01*
X68865877Y-88578055D02*
X68852073Y-88585551D01*
X68852073Y-88585551D02*
X68838204Y-88592926D01*
X68838204Y-88592926D02*
X68824271Y-88600180D01*
X68824271Y-88600180D02*
X68810276Y-88607312D01*
X68810276Y-88607312D02*
X68796219Y-88614322D01*
X68796219Y-88614322D02*
X68782101Y-88621209D01*
X68782101Y-88621209D02*
X68767924Y-88627972D01*
X68767924Y-88627972D02*
X68753688Y-88634611D01*
X68753688Y-88634611D02*
X68753487Y-88634704D01*
X68567580Y-88708172D02*
X68552652Y-88713060D01*
X68552652Y-88713060D02*
X68537682Y-88717818D01*
X68537682Y-88717818D02*
X68522671Y-88722444D01*
X68522671Y-88722444D02*
X68507620Y-88726940D01*
X68507620Y-88726940D02*
X68492531Y-88731304D01*
X68492531Y-88731304D02*
X68477404Y-88735536D01*
X68477404Y-88735536D02*
X68462240Y-88739636D01*
X68462240Y-88739636D02*
X68447042Y-88743604D01*
X68447042Y-88743604D02*
X68431809Y-88747438D01*
X68431809Y-88747438D02*
X68416543Y-88751140D01*
X68416543Y-88751140D02*
X68401246Y-88754708D01*
X68401246Y-88754708D02*
X68385918Y-88758143D01*
X68385918Y-88758143D02*
X68370561Y-88761444D01*
X68370561Y-88761444D02*
X68355176Y-88764610D01*
X68355176Y-88764610D02*
X68339763Y-88767643D01*
X68339763Y-88767643D02*
X68324325Y-88770540D01*
X68324325Y-88770540D02*
X68308862Y-88773303D01*
X68308862Y-88773303D02*
X68293375Y-88775931D01*
X68293375Y-88775931D02*
X68277866Y-88778424D01*
X68277866Y-88778424D02*
X68262336Y-88780781D01*
X68262336Y-88780781D02*
X68246786Y-88783002D01*
X68246786Y-88783002D02*
X68231218Y-88785088D01*
X68231218Y-88785088D02*
X68215631Y-88787038D01*
X68215631Y-88787038D02*
X68200028Y-88788851D01*
X68200028Y-88788851D02*
X68184410Y-88790529D01*
X68184410Y-88790529D02*
X68168778Y-88792070D01*
X68168778Y-88792070D02*
X68153133Y-88793474D01*
X68153133Y-88793474D02*
X68137476Y-88794742D01*
X68137476Y-88794742D02*
X68121809Y-88795874D01*
X68121809Y-88795874D02*
X68106133Y-88796868D01*
X68106133Y-88796868D02*
X68090448Y-88797726D01*
X68090448Y-88797726D02*
X68074757Y-88798447D01*
X68074757Y-88798447D02*
X68059060Y-88799031D01*
X68059060Y-88799031D02*
X68043358Y-88799478D01*
X68043358Y-88799478D02*
X68027654Y-88799788D01*
X68027654Y-88799788D02*
X68027432Y-88799791D01*
X67827698Y-88791734D02*
X67812069Y-88790162D01*
X67812069Y-88790162D02*
X67796454Y-88788454D01*
X67796454Y-88788454D02*
X67780855Y-88786610D01*
X67780855Y-88786610D02*
X67765272Y-88784630D01*
X67765272Y-88784630D02*
X67749707Y-88782513D01*
X67749707Y-88782513D02*
X67734162Y-88780261D01*
X67734162Y-88780261D02*
X67718636Y-88777874D01*
X67718636Y-88777874D02*
X67703132Y-88775351D01*
X67703132Y-88775351D02*
X67687651Y-88772692D01*
X67687651Y-88772692D02*
X67672193Y-88769899D01*
X67672193Y-88769899D02*
X67656761Y-88766971D01*
X67656761Y-88766971D02*
X67641354Y-88763909D01*
X67641354Y-88763909D02*
X67625975Y-88760712D01*
X67625975Y-88760712D02*
X67610624Y-88757381D01*
X67610624Y-88757381D02*
X67595303Y-88753916D01*
X67595303Y-88753916D02*
X67580013Y-88750317D01*
X67580013Y-88750317D02*
X67564755Y-88746586D01*
X67564755Y-88746586D02*
X67549530Y-88742721D01*
X67549530Y-88742721D02*
X67534339Y-88738724D01*
X67534339Y-88738724D02*
X67519184Y-88734594D01*
X67519184Y-88734594D02*
X67504065Y-88730332D01*
X67504065Y-88730332D02*
X67488984Y-88725938D01*
X67488984Y-88725938D02*
X67473942Y-88721413D01*
X67473942Y-88721413D02*
X67458940Y-88716757D01*
X67458940Y-88716757D02*
X67443980Y-88711970D01*
X67443980Y-88711970D02*
X67429061Y-88707053D01*
X67429061Y-88707053D02*
X67414186Y-88702005D01*
X67414186Y-88702005D02*
X67399356Y-88696828D01*
X67399356Y-88696828D02*
X67384571Y-88691522D01*
X67384571Y-88691522D02*
X67369834Y-88686087D01*
X67369834Y-88686087D02*
X67355144Y-88680524D01*
X67355144Y-88680524D02*
X67340503Y-88674833D01*
X67340503Y-88674833D02*
X67325913Y-88669014D01*
X67325913Y-88669014D02*
X67311374Y-88663068D01*
X67311374Y-88663068D02*
X67296887Y-88656995D01*
X67296887Y-88656995D02*
X67296684Y-88656909D01*
X67117298Y-88568706D02*
X67103643Y-88560943D01*
X67103643Y-88560943D02*
X67090055Y-88553062D01*
X67090055Y-88553062D02*
X67076537Y-88545062D01*
X67076537Y-88545062D02*
X67063089Y-88536944D01*
X67063089Y-88536944D02*
X67049712Y-88528710D01*
X67049712Y-88528710D02*
X67036408Y-88520359D01*
X67036408Y-88520359D02*
X67023178Y-88511892D01*
X67023178Y-88511892D02*
X67010021Y-88503310D01*
X67010021Y-88503310D02*
X66996940Y-88494614D01*
X66996940Y-88494614D02*
X66983936Y-88485804D01*
X66983936Y-88485804D02*
X66971008Y-88476881D01*
X66971008Y-88476881D02*
X66958159Y-88467845D01*
X66958159Y-88467845D02*
X66945390Y-88458697D01*
X66945390Y-88458697D02*
X66932701Y-88449439D01*
X66932701Y-88449439D02*
X66920093Y-88440070D01*
X66920093Y-88440070D02*
X66907567Y-88430591D01*
X66907567Y-88430591D02*
X66895125Y-88421003D01*
X66895125Y-88421003D02*
X66882766Y-88411307D01*
X66882766Y-88411307D02*
X66870493Y-88401504D01*
X66870493Y-88401504D02*
X66858306Y-88391594D01*
X66858306Y-88391594D02*
X66846205Y-88381578D01*
X66846205Y-88381578D02*
X66834193Y-88371457D01*
X66834193Y-88371457D02*
X66822269Y-88361231D01*
X66822269Y-88361231D02*
X66810435Y-88350902D01*
X66810435Y-88350902D02*
X66798692Y-88340470D01*
X66798692Y-88340470D02*
X66787040Y-88329935D01*
X66787040Y-88329935D02*
X66775480Y-88319300D01*
X66775480Y-88319300D02*
X66764014Y-88308564D01*
X66764014Y-88308564D02*
X66752642Y-88297728D01*
X66752642Y-88297728D02*
X66741365Y-88286793D01*
X66741365Y-88286793D02*
X66730183Y-88275761D01*
X66730183Y-88275761D02*
X66719099Y-88264631D01*
X66719099Y-88264631D02*
X66708112Y-88253405D01*
X66708112Y-88253405D02*
X66697223Y-88242084D01*
X66697223Y-88242084D02*
X66686434Y-88230668D01*
X66686434Y-88230668D02*
X66686282Y-88230506D01*
X66557941Y-88077250D02*
X66548596Y-88064625D01*
X66548596Y-88064625D02*
X66539361Y-88051918D01*
X66539361Y-88051918D02*
X66530237Y-88039132D01*
X66530237Y-88039132D02*
X66521224Y-88026267D01*
X66521224Y-88026267D02*
X66512325Y-88013323D01*
X66512325Y-88013323D02*
X66503539Y-88000302D01*
X66503539Y-88000302D02*
X66494867Y-87987205D01*
X66494867Y-87987205D02*
X66486309Y-87974033D01*
X66486309Y-87974033D02*
X66477867Y-87960786D01*
X66477867Y-87960786D02*
X66469540Y-87947467D01*
X66469540Y-87947467D02*
X66461331Y-87934075D01*
X66461331Y-87934075D02*
X66453238Y-87920612D01*
X66453238Y-87920612D02*
X66445263Y-87907079D01*
X66445263Y-87907079D02*
X66437407Y-87893477D01*
X66437407Y-87893477D02*
X66429669Y-87879807D01*
X66429669Y-87879807D02*
X66422051Y-87866070D01*
X66422051Y-87866070D02*
X66414554Y-87852267D01*
X66414554Y-87852267D02*
X66407177Y-87838399D01*
X66407177Y-87838399D02*
X66399921Y-87824468D01*
X66399921Y-87824468D02*
X66392787Y-87810473D01*
X66392787Y-87810473D02*
X66385776Y-87796417D01*
X66385776Y-87796417D02*
X66378887Y-87782300D01*
X66378887Y-87782300D02*
X66372122Y-87768124D01*
X66372122Y-87768124D02*
X66365481Y-87753889D01*
X66365481Y-87753889D02*
X66358964Y-87739596D01*
X66358964Y-87739596D02*
X66352573Y-87725247D01*
X66352573Y-87725247D02*
X66346307Y-87710843D01*
X66346307Y-87710843D02*
X66340166Y-87696385D01*
X66340166Y-87696385D02*
X66334153Y-87681874D01*
X66334153Y-87681874D02*
X66328266Y-87667311D01*
X66328266Y-87667311D02*
X66322506Y-87652697D01*
X66322506Y-87652697D02*
X66316874Y-87638034D01*
X66316874Y-87638034D02*
X66311370Y-87623322D01*
X66311370Y-87623322D02*
X66305995Y-87608562D01*
X66305995Y-87608562D02*
X66300749Y-87593756D01*
X66300749Y-87593756D02*
X66300676Y-87593547D01*
X66245341Y-87401462D02*
X66241904Y-87386134D01*
X66241904Y-87386134D02*
X66238602Y-87370777D01*
X66238602Y-87370777D02*
X66235433Y-87355392D01*
X66235433Y-87355392D02*
X66232399Y-87339980D01*
X66232399Y-87339980D02*
X66229499Y-87324542D01*
X66229499Y-87324542D02*
X66226735Y-87309080D01*
X66226735Y-87309080D02*
X66224105Y-87293593D01*
X66224105Y-87293593D02*
X66221611Y-87278085D01*
X66221611Y-87278085D02*
X66219252Y-87262555D01*
X66219252Y-87262555D02*
X66217028Y-87247005D01*
X66217028Y-87247005D02*
X66214941Y-87231437D01*
X66214941Y-87231437D02*
X66212989Y-87215851D01*
X66212989Y-87215851D02*
X66211173Y-87200248D01*
X66211173Y-87200248D02*
X66209494Y-87184630D01*
X66209494Y-87184630D02*
X66207951Y-87168998D01*
X66207951Y-87168998D02*
X66206544Y-87153353D01*
X66206544Y-87153353D02*
X66205275Y-87137697D01*
X66205275Y-87137697D02*
X66204141Y-87122030D01*
X66204141Y-87122030D02*
X66203145Y-87106353D01*
X66203145Y-87106353D02*
X66202285Y-87090669D01*
X66202285Y-87090669D02*
X66201562Y-87074978D01*
X66201562Y-87074978D02*
X66200976Y-87059281D01*
X66200976Y-87059281D02*
X66200528Y-87043579D01*
X66200528Y-87043579D02*
X66200216Y-87027875D01*
X66200216Y-87027875D02*
X66200041Y-87012168D01*
X66200041Y-87012168D02*
X66200003Y-86996460D01*
X66200003Y-86996460D02*
X66200103Y-86980752D01*
X66200103Y-86980752D02*
X66200339Y-86965046D01*
X66200339Y-86965046D02*
X66200713Y-86949343D01*
X66200713Y-86949343D02*
X66201224Y-86933643D01*
X66201224Y-86933643D02*
X66201871Y-86917948D01*
X66201871Y-86917948D02*
X66202656Y-86902260D01*
X66202656Y-86902260D02*
X66203577Y-86886579D01*
X66203577Y-86886579D02*
X66204635Y-86870907D01*
X66204635Y-86870907D02*
X66205830Y-86855245D01*
X66205830Y-86855245D02*
X66205848Y-86855024D01*
X66232987Y-86656978D02*
X66236047Y-86641571D01*
X66236047Y-86641571D02*
X66239242Y-86626191D01*
X66239242Y-86626191D02*
X66242572Y-86610840D01*
X66242572Y-86610840D02*
X66246035Y-86595519D01*
X66246035Y-86595519D02*
X66249631Y-86580228D01*
X66249631Y-86580228D02*
X66253361Y-86564969D01*
X66253361Y-86564969D02*
X66257224Y-86549744D01*
X66257224Y-86549744D02*
X66261219Y-86534553D01*
X66261219Y-86534553D02*
X66265347Y-86519397D01*
X66265347Y-86519397D02*
X66269607Y-86504278D01*
X66269607Y-86504278D02*
X66273999Y-86489196D01*
X66273999Y-86489196D02*
X66278522Y-86474154D01*
X66278522Y-86474154D02*
X66283177Y-86459151D01*
X66283177Y-86459151D02*
X66287962Y-86444190D01*
X66287962Y-86444190D02*
X66292877Y-86429271D01*
X66292877Y-86429271D02*
X66297923Y-86414395D01*
X66297923Y-86414395D02*
X66303098Y-86399564D01*
X66303098Y-86399564D02*
X66308402Y-86384779D01*
X66308402Y-86384779D02*
X66313835Y-86370041D01*
X66313835Y-86370041D02*
X66319397Y-86355350D01*
X66319397Y-86355350D02*
X66325086Y-86340709D01*
X66325086Y-86340709D02*
X66330904Y-86326118D01*
X66330904Y-86326118D02*
X66336848Y-86311578D01*
X66336848Y-86311578D02*
X66342919Y-86297091D01*
X66342919Y-86297091D02*
X66349116Y-86282657D01*
X66349116Y-86282657D02*
X66355438Y-86268278D01*
X66355438Y-86268278D02*
X66361886Y-86253954D01*
X66361886Y-86253954D02*
X66368459Y-86239688D01*
X66368459Y-86239688D02*
X66375156Y-86225479D01*
X66375156Y-86225479D02*
X66381977Y-86211329D01*
X66381977Y-86211329D02*
X66388921Y-86197239D01*
X66388921Y-86197239D02*
X66395988Y-86183211D01*
X66395988Y-86183211D02*
X66403176Y-86169245D01*
X66403176Y-86169245D02*
X66410487Y-86155341D01*
X66410487Y-86155341D02*
X66417918Y-86141503D01*
X66417918Y-86141503D02*
X66418024Y-86141308D01*
X66522993Y-85971190D02*
X66532027Y-85958340D01*
X66532027Y-85958340D02*
X66541173Y-85945569D01*
X66541173Y-85945569D02*
X66550430Y-85932879D01*
X66550430Y-85932879D02*
X66559798Y-85920270D01*
X66559798Y-85920270D02*
X66569275Y-85907743D01*
X66569275Y-85907743D02*
X66578861Y-85895299D01*
X66578861Y-85895299D02*
X66588555Y-85882939D01*
X66588555Y-85882939D02*
X66598357Y-85870665D01*
X66598357Y-85870665D02*
X66608266Y-85858476D01*
X66608266Y-85858476D02*
X66618280Y-85846375D01*
X66618280Y-85846375D02*
X66628400Y-85834361D01*
X66628400Y-85834361D02*
X66638624Y-85822436D01*
X66638624Y-85822436D02*
X66648952Y-85810601D01*
X66648952Y-85810601D02*
X66659383Y-85798856D01*
X66659383Y-85798856D02*
X66669916Y-85787203D01*
X66669916Y-85787203D02*
X66680550Y-85775642D01*
X66680550Y-85775642D02*
X66691285Y-85764175D01*
X66691285Y-85764175D02*
X66702119Y-85752801D01*
X66702119Y-85752801D02*
X66713052Y-85741523D01*
X66713052Y-85741523D02*
X66724083Y-85730340D01*
X66724083Y-85730340D02*
X66735212Y-85719254D01*
X66735212Y-85719254D02*
X66746436Y-85708266D01*
X66746436Y-85708266D02*
X66757756Y-85697375D01*
X66757756Y-85697375D02*
X66769171Y-85686585D01*
X66769171Y-85686585D02*
X66780679Y-85675894D01*
X66780679Y-85675894D02*
X66792281Y-85665304D01*
X66792281Y-85665304D02*
X66803974Y-85654815D01*
X66803974Y-85654815D02*
X66815758Y-85644429D01*
X66815758Y-85644429D02*
X66827633Y-85634147D01*
X66827633Y-85634147D02*
X66839597Y-85623968D01*
X66839597Y-85623968D02*
X66851649Y-85613894D01*
X66851649Y-85613894D02*
X66863788Y-85603926D01*
X66863788Y-85603926D02*
X66876015Y-85594064D01*
X66876015Y-85594064D02*
X66888326Y-85584309D01*
X66888326Y-85584309D02*
X66900723Y-85574662D01*
X66900723Y-85574662D02*
X66900898Y-85574526D01*
X67065736Y-85461445D02*
X67079198Y-85453351D01*
X67079198Y-85453351D02*
X67092730Y-85445374D01*
X67092730Y-85445374D02*
X67106331Y-85437516D01*
X67106331Y-85437516D02*
X67120000Y-85429777D01*
X67120000Y-85429777D02*
X67133736Y-85422158D01*
X67133736Y-85422158D02*
X67147538Y-85414658D01*
X67147538Y-85414658D02*
X67161405Y-85407280D01*
X67161405Y-85407280D02*
X67175336Y-85400022D01*
X67175336Y-85400022D02*
X67189330Y-85392887D01*
X67189330Y-85392887D02*
X67203385Y-85385873D01*
X67203385Y-85385873D02*
X67217501Y-85378983D01*
X67217501Y-85378983D02*
X67231677Y-85372216D01*
X67231677Y-85372216D02*
X67245911Y-85365574D01*
X67245911Y-85365574D02*
X67260202Y-85359055D01*
X67260202Y-85359055D02*
X67274550Y-85352662D01*
X67274550Y-85352662D02*
X67288953Y-85346394D01*
X67288953Y-85346394D02*
X67303411Y-85340252D01*
X67303411Y-85340252D02*
X67317921Y-85334236D01*
X67317921Y-85334236D02*
X67332484Y-85328348D01*
X67332484Y-85328348D02*
X67347097Y-85322586D01*
X67347097Y-85322586D02*
X67361760Y-85316952D01*
X67361760Y-85316952D02*
X67376471Y-85311447D01*
X67376471Y-85311447D02*
X67391230Y-85306070D01*
X67391230Y-85306070D02*
X67406035Y-85300822D01*
X67406035Y-85300822D02*
X67420886Y-85295703D01*
X67420886Y-85295703D02*
X67435781Y-85290715D01*
X67435781Y-85290715D02*
X67450718Y-85285856D01*
X67450718Y-85285856D02*
X67465698Y-85281128D01*
X67465698Y-85281128D02*
X67480718Y-85276531D01*
X67480718Y-85276531D02*
X67495777Y-85272065D01*
X67495777Y-85272065D02*
X67510875Y-85267731D01*
X67510875Y-85267731D02*
X67526011Y-85263528D01*
X67526011Y-85263528D02*
X67541182Y-85259458D01*
X67541182Y-85259458D02*
X67556389Y-85255520D01*
X67556389Y-85255520D02*
X67571629Y-85251716D01*
X67571629Y-85251716D02*
X67571844Y-85251663D01*
X67768344Y-85214969D02*
X67783930Y-85213015D01*
X67783930Y-85213015D02*
X67799533Y-85211198D01*
X67799533Y-85211198D02*
X67815150Y-85209517D01*
X67815150Y-85209517D02*
X67830782Y-85207972D01*
X67830782Y-85207972D02*
X67846427Y-85206563D01*
X67846427Y-85206563D02*
X67862083Y-85205291D01*
X67862083Y-85205291D02*
X67877750Y-85204156D01*
X67877750Y-85204156D02*
X67893426Y-85203158D01*
X67893426Y-85203158D02*
X67909110Y-85202296D01*
X67909110Y-85202296D02*
X67924801Y-85201571D01*
X67924801Y-85201571D02*
X67940498Y-85200984D01*
X67940498Y-85200984D02*
X67956200Y-85200533D01*
X67956200Y-85200533D02*
X67971904Y-85200219D01*
X67971904Y-85200219D02*
X67987611Y-85200043D01*
X67987611Y-85200043D02*
X68003319Y-85200003D01*
X68003319Y-85200003D02*
X68019027Y-85200101D01*
X68019027Y-85200101D02*
X68034733Y-85200335D01*
X68034733Y-85200335D02*
X68050437Y-85200707D01*
X68050437Y-85200707D02*
X68066136Y-85201215D01*
X68066136Y-85201215D02*
X68081831Y-85201861D01*
X68081831Y-85201861D02*
X68097519Y-85202644D01*
X68097519Y-85202644D02*
X68113200Y-85203563D01*
X68113200Y-85203563D02*
X68128873Y-85204619D01*
X68128873Y-85204619D02*
X68144535Y-85205812D01*
X68144535Y-85205812D02*
X68160187Y-85207142D01*
X68160187Y-85207142D02*
X68175826Y-85208608D01*
X68175826Y-85208608D02*
X68191452Y-85210211D01*
X68191452Y-85210211D02*
X68207063Y-85211949D01*
X68207063Y-85211949D02*
X68222659Y-85213824D01*
X68222659Y-85213824D02*
X68238238Y-85215836D01*
X68238238Y-85215836D02*
X68253798Y-85217982D01*
X68253798Y-85217982D02*
X68269339Y-85220265D01*
X68269339Y-85220265D02*
X68284860Y-85222683D01*
X68284860Y-85222683D02*
X68300359Y-85225237D01*
X68300359Y-85225237D02*
X68315835Y-85227925D01*
X68315835Y-85227925D02*
X68316053Y-85227964D01*
X68510592Y-85273936D02*
X68525635Y-85278458D01*
X68525635Y-85278458D02*
X68540638Y-85283110D01*
X68540638Y-85283110D02*
X68555600Y-85287894D01*
X68555600Y-85287894D02*
X68570520Y-85292807D01*
X68570520Y-85292807D02*
X68585396Y-85297851D01*
X68585396Y-85297851D02*
X68600227Y-85303024D01*
X68600227Y-85303024D02*
X68615013Y-85308327D01*
X68615013Y-85308327D02*
X68629752Y-85313758D01*
X68629752Y-85313758D02*
X68644443Y-85319318D01*
X68644443Y-85319318D02*
X68659085Y-85325006D01*
X68659085Y-85325006D02*
X68673677Y-85330821D01*
X68673677Y-85330821D02*
X68688218Y-85336763D01*
X68688218Y-85336763D02*
X68702706Y-85342832D01*
X68702706Y-85342832D02*
X68717140Y-85349028D01*
X68717140Y-85349028D02*
X68731520Y-85355349D01*
X68731520Y-85355349D02*
X68745845Y-85361795D01*
X68745845Y-85361795D02*
X68760112Y-85368366D01*
X68760112Y-85368366D02*
X68774322Y-85375061D01*
X68774322Y-85375061D02*
X68788472Y-85381880D01*
X68788472Y-85381880D02*
X68802563Y-85388822D01*
X68802563Y-85388822D02*
X68816592Y-85395887D01*
X68816592Y-85395887D02*
X68830559Y-85403074D01*
X68830559Y-85403074D02*
X68844463Y-85410383D01*
X68844463Y-85410383D02*
X68858303Y-85417813D01*
X68858303Y-85417813D02*
X68872077Y-85425363D01*
X68872077Y-85425363D02*
X68885785Y-85433033D01*
X68885785Y-85433033D02*
X68899426Y-85440823D01*
X68899426Y-85440823D02*
X68912998Y-85448731D01*
X68912998Y-85448731D02*
X68926500Y-85456758D01*
X68926500Y-85456758D02*
X68939932Y-85464901D01*
X68939932Y-85464901D02*
X68953292Y-85473162D01*
X68953292Y-85473162D02*
X68966580Y-85481539D01*
X68966580Y-85481539D02*
X68979794Y-85490032D01*
X68979794Y-85490032D02*
X68992934Y-85498640D01*
X68992934Y-85498640D02*
X69005998Y-85507362D01*
X69005998Y-85507362D02*
X69006181Y-85507485D01*
X69165470Y-85628257D02*
X69177397Y-85638480D01*
X69177397Y-85638480D02*
X69189233Y-85648806D01*
X69189233Y-85648806D02*
X69200979Y-85659236D01*
X69200979Y-85659236D02*
X69212634Y-85669767D01*
X69212634Y-85669767D02*
X69224196Y-85680400D01*
X69224196Y-85680400D02*
X69235665Y-85691133D01*
X69235665Y-85691133D02*
X69247039Y-85701966D01*
X69247039Y-85701966D02*
X69258319Y-85712898D01*
X69258319Y-85712898D02*
X69269503Y-85723927D01*
X69269503Y-85723927D02*
X69280591Y-85735054D01*
X69280591Y-85735054D02*
X69291581Y-85746278D01*
X69291581Y-85746278D02*
X69302472Y-85757596D01*
X69302472Y-85757596D02*
X69313264Y-85769010D01*
X69313264Y-85769010D02*
X69323957Y-85780517D01*
X69323957Y-85780517D02*
X69334548Y-85792117D01*
X69334548Y-85792117D02*
X69345038Y-85803809D01*
X69345038Y-85803809D02*
X69355425Y-85815592D01*
X69355425Y-85815592D02*
X69365709Y-85827465D01*
X69365709Y-85827465D02*
X69375890Y-85839428D01*
X69375890Y-85839428D02*
X69385965Y-85851479D01*
X69385965Y-85851479D02*
X69395935Y-85863617D01*
X69395935Y-85863617D02*
X69405798Y-85875842D01*
X69405798Y-85875842D02*
X69415555Y-85888153D01*
X69415555Y-85888153D02*
X69425203Y-85900548D01*
X69425203Y-85900548D02*
X69434744Y-85913027D01*
X69434744Y-85913027D02*
X69444174Y-85925588D01*
X69444174Y-85925588D02*
X69453495Y-85938232D01*
X69453495Y-85938232D02*
X69462706Y-85950956D01*
X69462706Y-85950956D02*
X69471804Y-85963761D01*
X69471804Y-85963761D02*
X69480791Y-85976644D01*
X69480791Y-85976644D02*
X69489665Y-85989605D01*
X69489665Y-85989605D02*
X69498426Y-86002643D01*
X69498426Y-86002643D02*
X69507072Y-86015757D01*
X69507072Y-86015757D02*
X69515604Y-86028946D01*
X69515604Y-86028946D02*
X69524020Y-86042209D01*
X69524020Y-86042209D02*
X69524138Y-86042397D01*
X69620921Y-86217302D02*
X69627689Y-86231477D01*
X69627689Y-86231477D02*
X69634334Y-86245710D01*
X69634334Y-86245710D02*
X69640854Y-86260001D01*
X69640854Y-86260001D02*
X69647249Y-86274348D01*
X69647249Y-86274348D02*
X69653519Y-86288750D01*
X69653519Y-86288750D02*
X69659662Y-86303207D01*
X69659662Y-86303207D02*
X69665680Y-86317717D01*
X69665680Y-86317717D02*
X69671570Y-86332278D01*
X69671570Y-86332278D02*
X69677334Y-86346891D01*
X69677334Y-86346891D02*
X69682969Y-86361553D01*
X69682969Y-86361553D02*
X69688477Y-86376264D01*
X69688477Y-86376264D02*
X69693855Y-86391022D01*
X69693855Y-86391022D02*
X69699105Y-86405827D01*
X69699105Y-86405827D02*
X69704225Y-86420677D01*
X69704225Y-86420677D02*
X69709216Y-86435571D01*
X69709216Y-86435571D02*
X69714076Y-86450508D01*
X69714076Y-86450508D02*
X69718806Y-86465487D01*
X69718806Y-86465487D02*
X69723405Y-86480506D01*
X69723405Y-86480506D02*
X69727873Y-86495565D01*
X69727873Y-86495565D02*
X69732209Y-86510663D01*
X69732209Y-86510663D02*
X69736414Y-86525798D01*
X69736414Y-86525798D02*
X69740486Y-86540969D01*
X69740486Y-86540969D02*
X69744425Y-86556174D01*
X69744425Y-86556174D02*
X69748232Y-86571414D01*
X69748232Y-86571414D02*
X69751905Y-86586686D01*
X69751905Y-86586686D02*
X69755445Y-86601990D01*
X69755445Y-86601990D02*
X69758852Y-86617324D01*
X69758852Y-86617324D02*
X69762124Y-86632688D01*
X69762124Y-86632688D02*
X69765262Y-86648079D01*
X69765262Y-86648079D02*
X69768266Y-86663497D01*
X69768266Y-86663497D02*
X69771135Y-86678941D01*
X69771135Y-86678941D02*
X69773870Y-86694409D01*
X69773870Y-86694409D02*
X69776469Y-86709900D01*
X69776469Y-86709900D02*
X69778933Y-86725413D01*
X69778933Y-86725413D02*
X69781261Y-86740948D01*
X69781261Y-86740948D02*
X69781293Y-86741167D01*
X69799009Y-86940277D02*
X69799462Y-86955979D01*
X69799462Y-86955979D02*
X69799777Y-86971684D01*
X69799777Y-86971684D02*
X69799956Y-86987390D01*
X69799956Y-86987390D02*
X69800000Y-87000000D01*
G04 #@! TO.C,J4*
X32050000Y-73150000D02*
X40450000Y-73150000D01*
X32050000Y-79900000D02*
X32050000Y-73150000D01*
X40450000Y-73150000D02*
X40450000Y-79900000D01*
X40450000Y-79900000D02*
X32050000Y-79900000D01*
G04 #@! TO.C,R1*
X57600000Y-65700000D02*
X59400000Y-65700000D01*
X57600000Y-68300000D02*
X57600000Y-65700000D01*
X59400000Y-65700000D02*
X59400000Y-68300000D01*
X59400000Y-68300000D02*
X57600000Y-68300000D01*
G04 #@! TO.C,TP4*
X64800000Y-87000000D02*
X64799931Y-87015708D01*
X64799931Y-87015708D02*
X64799726Y-87031414D01*
X64799726Y-87031414D02*
X64799383Y-87047119D01*
X64799383Y-87047119D02*
X64798903Y-87062819D01*
X64798903Y-87062819D02*
X64798287Y-87078515D01*
X64798287Y-87078515D02*
X64797533Y-87094205D01*
X64797533Y-87094205D02*
X64796643Y-87109887D01*
X64796643Y-87109887D02*
X64795615Y-87125562D01*
X64795615Y-87125562D02*
X64794451Y-87141226D01*
X64794451Y-87141226D02*
X64793150Y-87156880D01*
X64793150Y-87156880D02*
X64791713Y-87172522D01*
X64791713Y-87172522D02*
X64790139Y-87188151D01*
X64790139Y-87188151D02*
X64788429Y-87203766D01*
X64788429Y-87203766D02*
X64786583Y-87219365D01*
X64786583Y-87219365D02*
X64784601Y-87234947D01*
X64784601Y-87234947D02*
X64782483Y-87250512D01*
X64782483Y-87250512D02*
X64780229Y-87266057D01*
X64780229Y-87266057D02*
X64777839Y-87281582D01*
X64777839Y-87281582D02*
X64775314Y-87297086D01*
X64775314Y-87297086D02*
X64772654Y-87312567D01*
X64772654Y-87312567D02*
X64769859Y-87328024D01*
X64769859Y-87328024D02*
X64766929Y-87343456D01*
X64766929Y-87343456D02*
X64763864Y-87358862D01*
X64763864Y-87358862D02*
X64760666Y-87374241D01*
X64760666Y-87374241D02*
X64757333Y-87389591D01*
X64757333Y-87389591D02*
X64753866Y-87404912D01*
X64753866Y-87404912D02*
X64750266Y-87420202D01*
X64750266Y-87420202D02*
X64746532Y-87435459D01*
X64746532Y-87435459D02*
X64742666Y-87450684D01*
X64742666Y-87450684D02*
X64738666Y-87465874D01*
X64738666Y-87465874D02*
X64734535Y-87481029D01*
X64734535Y-87481029D02*
X64730271Y-87496147D01*
X64730271Y-87496147D02*
X64725876Y-87511228D01*
X64725876Y-87511228D02*
X64721349Y-87526269D01*
X64721349Y-87526269D02*
X64716691Y-87541270D01*
X64716691Y-87541270D02*
X64716624Y-87541481D01*
X64645998Y-87728486D02*
X64639578Y-87742822D01*
X64639578Y-87742822D02*
X64633033Y-87757102D01*
X64633033Y-87757102D02*
X64626364Y-87771324D01*
X64626364Y-87771324D02*
X64619571Y-87785487D01*
X64619571Y-87785487D02*
X64612655Y-87799590D01*
X64612655Y-87799590D02*
X64605616Y-87813633D01*
X64605616Y-87813633D02*
X64598454Y-87827613D01*
X64598454Y-87827613D02*
X64591171Y-87841531D01*
X64591171Y-87841531D02*
X64583767Y-87855384D01*
X64583767Y-87855384D02*
X64576242Y-87869172D01*
X64576242Y-87869172D02*
X64568597Y-87882894D01*
X64568597Y-87882894D02*
X64560833Y-87896549D01*
X64560833Y-87896549D02*
X64552950Y-87910136D01*
X64552950Y-87910136D02*
X64544948Y-87923653D01*
X64544948Y-87923653D02*
X64536829Y-87937100D01*
X64536829Y-87937100D02*
X64528593Y-87950475D01*
X64528593Y-87950475D02*
X64520241Y-87963778D01*
X64520241Y-87963778D02*
X64511772Y-87977008D01*
X64511772Y-87977008D02*
X64503189Y-87990163D01*
X64503189Y-87990163D02*
X64494491Y-88003243D01*
X64494491Y-88003243D02*
X64485679Y-88016247D01*
X64485679Y-88016247D02*
X64476754Y-88029173D01*
X64476754Y-88029173D02*
X64467717Y-88042021D01*
X64467717Y-88042021D02*
X64458568Y-88054789D01*
X64458568Y-88054789D02*
X64449308Y-88067477D01*
X64449308Y-88067477D02*
X64439937Y-88080084D01*
X64439937Y-88080084D02*
X64430457Y-88092609D01*
X64430457Y-88092609D02*
X64420868Y-88105050D01*
X64420868Y-88105050D02*
X64411170Y-88117407D01*
X64411170Y-88117407D02*
X64401365Y-88129679D01*
X64401365Y-88129679D02*
X64391454Y-88141865D01*
X64391454Y-88141865D02*
X64381436Y-88153964D01*
X64381436Y-88153964D02*
X64371314Y-88165976D01*
X64371314Y-88165976D02*
X64361087Y-88177898D01*
X64361087Y-88177898D02*
X64350756Y-88189731D01*
X64350756Y-88189731D02*
X64350609Y-88189897D01*
X64210342Y-88332318D02*
X64198669Y-88342830D01*
X64198669Y-88342830D02*
X64186906Y-88353239D01*
X64186906Y-88353239D02*
X64175051Y-88363545D01*
X64175051Y-88363545D02*
X64163107Y-88373747D01*
X64163107Y-88373747D02*
X64151075Y-88383845D01*
X64151075Y-88383845D02*
X64138955Y-88393837D01*
X64138955Y-88393837D02*
X64126748Y-88403723D01*
X64126748Y-88403723D02*
X64114456Y-88413502D01*
X64114456Y-88413502D02*
X64102078Y-88423174D01*
X64102078Y-88423174D02*
X64089617Y-88432737D01*
X64089617Y-88432737D02*
X64077073Y-88442191D01*
X64077073Y-88442191D02*
X64064446Y-88451535D01*
X64064446Y-88451535D02*
X64051739Y-88460769D01*
X64051739Y-88460769D02*
X64038952Y-88469891D01*
X64038952Y-88469891D02*
X64026085Y-88478902D01*
X64026085Y-88478902D02*
X64013140Y-88487799D01*
X64013140Y-88487799D02*
X64000118Y-88496584D01*
X64000118Y-88496584D02*
X63987020Y-88505254D01*
X63987020Y-88505254D02*
X63973847Y-88513810D01*
X63973847Y-88513810D02*
X63960600Y-88522251D01*
X63960600Y-88522251D02*
X63947279Y-88530576D01*
X63947279Y-88530576D02*
X63933886Y-88538784D01*
X63933886Y-88538784D02*
X63920423Y-88546875D01*
X63920423Y-88546875D02*
X63906889Y-88554848D01*
X63906889Y-88554848D02*
X63893286Y-88562703D01*
X63893286Y-88562703D02*
X63879615Y-88570439D01*
X63879615Y-88570439D02*
X63865877Y-88578055D01*
X63865877Y-88578055D02*
X63852073Y-88585551D01*
X63852073Y-88585551D02*
X63838204Y-88592926D01*
X63838204Y-88592926D02*
X63824271Y-88600180D01*
X63824271Y-88600180D02*
X63810276Y-88607312D01*
X63810276Y-88607312D02*
X63796219Y-88614322D01*
X63796219Y-88614322D02*
X63782101Y-88621209D01*
X63782101Y-88621209D02*
X63767924Y-88627972D01*
X63767924Y-88627972D02*
X63753688Y-88634611D01*
X63753688Y-88634611D02*
X63753487Y-88634704D01*
X63567580Y-88708172D02*
X63552652Y-88713060D01*
X63552652Y-88713060D02*
X63537682Y-88717818D01*
X63537682Y-88717818D02*
X63522671Y-88722444D01*
X63522671Y-88722444D02*
X63507620Y-88726940D01*
X63507620Y-88726940D02*
X63492531Y-88731304D01*
X63492531Y-88731304D02*
X63477404Y-88735536D01*
X63477404Y-88735536D02*
X63462240Y-88739636D01*
X63462240Y-88739636D02*
X63447042Y-88743604D01*
X63447042Y-88743604D02*
X63431809Y-88747438D01*
X63431809Y-88747438D02*
X63416543Y-88751140D01*
X63416543Y-88751140D02*
X63401246Y-88754708D01*
X63401246Y-88754708D02*
X63385918Y-88758143D01*
X63385918Y-88758143D02*
X63370561Y-88761444D01*
X63370561Y-88761444D02*
X63355176Y-88764610D01*
X63355176Y-88764610D02*
X63339763Y-88767643D01*
X63339763Y-88767643D02*
X63324325Y-88770540D01*
X63324325Y-88770540D02*
X63308862Y-88773303D01*
X63308862Y-88773303D02*
X63293375Y-88775931D01*
X63293375Y-88775931D02*
X63277866Y-88778424D01*
X63277866Y-88778424D02*
X63262336Y-88780781D01*
X63262336Y-88780781D02*
X63246786Y-88783002D01*
X63246786Y-88783002D02*
X63231218Y-88785088D01*
X63231218Y-88785088D02*
X63215631Y-88787038D01*
X63215631Y-88787038D02*
X63200028Y-88788851D01*
X63200028Y-88788851D02*
X63184410Y-88790529D01*
X63184410Y-88790529D02*
X63168778Y-88792070D01*
X63168778Y-88792070D02*
X63153133Y-88793474D01*
X63153133Y-88793474D02*
X63137476Y-88794742D01*
X63137476Y-88794742D02*
X63121809Y-88795874D01*
X63121809Y-88795874D02*
X63106133Y-88796868D01*
X63106133Y-88796868D02*
X63090448Y-88797726D01*
X63090448Y-88797726D02*
X63074757Y-88798447D01*
X63074757Y-88798447D02*
X63059060Y-88799031D01*
X63059060Y-88799031D02*
X63043358Y-88799478D01*
X63043358Y-88799478D02*
X63027654Y-88799788D01*
X63027654Y-88799788D02*
X63027432Y-88799791D01*
X62827698Y-88791734D02*
X62812069Y-88790162D01*
X62812069Y-88790162D02*
X62796454Y-88788454D01*
X62796454Y-88788454D02*
X62780855Y-88786610D01*
X62780855Y-88786610D02*
X62765272Y-88784630D01*
X62765272Y-88784630D02*
X62749707Y-88782513D01*
X62749707Y-88782513D02*
X62734162Y-88780261D01*
X62734162Y-88780261D02*
X62718636Y-88777874D01*
X62718636Y-88777874D02*
X62703132Y-88775351D01*
X62703132Y-88775351D02*
X62687651Y-88772692D01*
X62687651Y-88772692D02*
X62672193Y-88769899D01*
X62672193Y-88769899D02*
X62656761Y-88766971D01*
X62656761Y-88766971D02*
X62641354Y-88763909D01*
X62641354Y-88763909D02*
X62625975Y-88760712D01*
X62625975Y-88760712D02*
X62610624Y-88757381D01*
X62610624Y-88757381D02*
X62595303Y-88753916D01*
X62595303Y-88753916D02*
X62580013Y-88750317D01*
X62580013Y-88750317D02*
X62564755Y-88746586D01*
X62564755Y-88746586D02*
X62549530Y-88742721D01*
X62549530Y-88742721D02*
X62534339Y-88738724D01*
X62534339Y-88738724D02*
X62519184Y-88734594D01*
X62519184Y-88734594D02*
X62504065Y-88730332D01*
X62504065Y-88730332D02*
X62488984Y-88725938D01*
X62488984Y-88725938D02*
X62473942Y-88721413D01*
X62473942Y-88721413D02*
X62458940Y-88716757D01*
X62458940Y-88716757D02*
X62443980Y-88711970D01*
X62443980Y-88711970D02*
X62429061Y-88707053D01*
X62429061Y-88707053D02*
X62414186Y-88702005D01*
X62414186Y-88702005D02*
X62399356Y-88696828D01*
X62399356Y-88696828D02*
X62384571Y-88691522D01*
X62384571Y-88691522D02*
X62369834Y-88686087D01*
X62369834Y-88686087D02*
X62355144Y-88680524D01*
X62355144Y-88680524D02*
X62340503Y-88674833D01*
X62340503Y-88674833D02*
X62325913Y-88669014D01*
X62325913Y-88669014D02*
X62311374Y-88663068D01*
X62311374Y-88663068D02*
X62296887Y-88656995D01*
X62296887Y-88656995D02*
X62296684Y-88656909D01*
X62117298Y-88568706D02*
X62103643Y-88560943D01*
X62103643Y-88560943D02*
X62090055Y-88553062D01*
X62090055Y-88553062D02*
X62076537Y-88545062D01*
X62076537Y-88545062D02*
X62063089Y-88536944D01*
X62063089Y-88536944D02*
X62049712Y-88528710D01*
X62049712Y-88528710D02*
X62036408Y-88520359D01*
X62036408Y-88520359D02*
X62023178Y-88511892D01*
X62023178Y-88511892D02*
X62010021Y-88503310D01*
X62010021Y-88503310D02*
X61996940Y-88494614D01*
X61996940Y-88494614D02*
X61983936Y-88485804D01*
X61983936Y-88485804D02*
X61971008Y-88476881D01*
X61971008Y-88476881D02*
X61958159Y-88467845D01*
X61958159Y-88467845D02*
X61945390Y-88458697D01*
X61945390Y-88458697D02*
X61932701Y-88449439D01*
X61932701Y-88449439D02*
X61920093Y-88440070D01*
X61920093Y-88440070D02*
X61907567Y-88430591D01*
X61907567Y-88430591D02*
X61895125Y-88421003D01*
X61895125Y-88421003D02*
X61882766Y-88411307D01*
X61882766Y-88411307D02*
X61870493Y-88401504D01*
X61870493Y-88401504D02*
X61858306Y-88391594D01*
X61858306Y-88391594D02*
X61846205Y-88381578D01*
X61846205Y-88381578D02*
X61834193Y-88371457D01*
X61834193Y-88371457D02*
X61822269Y-88361231D01*
X61822269Y-88361231D02*
X61810435Y-88350902D01*
X61810435Y-88350902D02*
X61798692Y-88340470D01*
X61798692Y-88340470D02*
X61787040Y-88329935D01*
X61787040Y-88329935D02*
X61775480Y-88319300D01*
X61775480Y-88319300D02*
X61764014Y-88308564D01*
X61764014Y-88308564D02*
X61752642Y-88297728D01*
X61752642Y-88297728D02*
X61741365Y-88286793D01*
X61741365Y-88286793D02*
X61730183Y-88275761D01*
X61730183Y-88275761D02*
X61719099Y-88264631D01*
X61719099Y-88264631D02*
X61708112Y-88253405D01*
X61708112Y-88253405D02*
X61697223Y-88242084D01*
X61697223Y-88242084D02*
X61686434Y-88230668D01*
X61686434Y-88230668D02*
X61686282Y-88230506D01*
X61557941Y-88077250D02*
X61548596Y-88064625D01*
X61548596Y-88064625D02*
X61539361Y-88051918D01*
X61539361Y-88051918D02*
X61530237Y-88039132D01*
X61530237Y-88039132D02*
X61521224Y-88026267D01*
X61521224Y-88026267D02*
X61512325Y-88013323D01*
X61512325Y-88013323D02*
X61503539Y-88000302D01*
X61503539Y-88000302D02*
X61494867Y-87987205D01*
X61494867Y-87987205D02*
X61486309Y-87974033D01*
X61486309Y-87974033D02*
X61477867Y-87960786D01*
X61477867Y-87960786D02*
X61469540Y-87947467D01*
X61469540Y-87947467D02*
X61461331Y-87934075D01*
X61461331Y-87934075D02*
X61453238Y-87920612D01*
X61453238Y-87920612D02*
X61445263Y-87907079D01*
X61445263Y-87907079D02*
X61437407Y-87893477D01*
X61437407Y-87893477D02*
X61429669Y-87879807D01*
X61429669Y-87879807D02*
X61422051Y-87866070D01*
X61422051Y-87866070D02*
X61414554Y-87852267D01*
X61414554Y-87852267D02*
X61407177Y-87838399D01*
X61407177Y-87838399D02*
X61399921Y-87824468D01*
X61399921Y-87824468D02*
X61392787Y-87810473D01*
X61392787Y-87810473D02*
X61385776Y-87796417D01*
X61385776Y-87796417D02*
X61378887Y-87782300D01*
X61378887Y-87782300D02*
X61372122Y-87768124D01*
X61372122Y-87768124D02*
X61365481Y-87753889D01*
X61365481Y-87753889D02*
X61358964Y-87739596D01*
X61358964Y-87739596D02*
X61352573Y-87725247D01*
X61352573Y-87725247D02*
X61346307Y-87710843D01*
X61346307Y-87710843D02*
X61340166Y-87696385D01*
X61340166Y-87696385D02*
X61334153Y-87681874D01*
X61334153Y-87681874D02*
X61328266Y-87667311D01*
X61328266Y-87667311D02*
X61322506Y-87652697D01*
X61322506Y-87652697D02*
X61316874Y-87638034D01*
X61316874Y-87638034D02*
X61311370Y-87623322D01*
X61311370Y-87623322D02*
X61305995Y-87608562D01*
X61305995Y-87608562D02*
X61300749Y-87593756D01*
X61300749Y-87593756D02*
X61300676Y-87593547D01*
X61245341Y-87401462D02*
X61241904Y-87386134D01*
X61241904Y-87386134D02*
X61238602Y-87370777D01*
X61238602Y-87370777D02*
X61235433Y-87355392D01*
X61235433Y-87355392D02*
X61232399Y-87339980D01*
X61232399Y-87339980D02*
X61229499Y-87324542D01*
X61229499Y-87324542D02*
X61226735Y-87309080D01*
X61226735Y-87309080D02*
X61224105Y-87293593D01*
X61224105Y-87293593D02*
X61221611Y-87278085D01*
X61221611Y-87278085D02*
X61219252Y-87262555D01*
X61219252Y-87262555D02*
X61217028Y-87247005D01*
X61217028Y-87247005D02*
X61214941Y-87231437D01*
X61214941Y-87231437D02*
X61212989Y-87215851D01*
X61212989Y-87215851D02*
X61211173Y-87200248D01*
X61211173Y-87200248D02*
X61209494Y-87184630D01*
X61209494Y-87184630D02*
X61207951Y-87168998D01*
X61207951Y-87168998D02*
X61206544Y-87153353D01*
X61206544Y-87153353D02*
X61205275Y-87137697D01*
X61205275Y-87137697D02*
X61204141Y-87122030D01*
X61204141Y-87122030D02*
X61203145Y-87106353D01*
X61203145Y-87106353D02*
X61202285Y-87090669D01*
X61202285Y-87090669D02*
X61201562Y-87074978D01*
X61201562Y-87074978D02*
X61200976Y-87059281D01*
X61200976Y-87059281D02*
X61200528Y-87043579D01*
X61200528Y-87043579D02*
X61200216Y-87027875D01*
X61200216Y-87027875D02*
X61200041Y-87012168D01*
X61200041Y-87012168D02*
X61200003Y-86996460D01*
X61200003Y-86996460D02*
X61200103Y-86980752D01*
X61200103Y-86980752D02*
X61200339Y-86965046D01*
X61200339Y-86965046D02*
X61200713Y-86949343D01*
X61200713Y-86949343D02*
X61201224Y-86933643D01*
X61201224Y-86933643D02*
X61201871Y-86917948D01*
X61201871Y-86917948D02*
X61202656Y-86902260D01*
X61202656Y-86902260D02*
X61203577Y-86886579D01*
X61203577Y-86886579D02*
X61204635Y-86870907D01*
X61204635Y-86870907D02*
X61205830Y-86855245D01*
X61205830Y-86855245D02*
X61205848Y-86855024D01*
X61232987Y-86656978D02*
X61236047Y-86641571D01*
X61236047Y-86641571D02*
X61239242Y-86626191D01*
X61239242Y-86626191D02*
X61242572Y-86610840D01*
X61242572Y-86610840D02*
X61246035Y-86595519D01*
X61246035Y-86595519D02*
X61249631Y-86580228D01*
X61249631Y-86580228D02*
X61253361Y-86564969D01*
X61253361Y-86564969D02*
X61257224Y-86549744D01*
X61257224Y-86549744D02*
X61261219Y-86534553D01*
X61261219Y-86534553D02*
X61265347Y-86519397D01*
X61265347Y-86519397D02*
X61269607Y-86504278D01*
X61269607Y-86504278D02*
X61273999Y-86489196D01*
X61273999Y-86489196D02*
X61278522Y-86474154D01*
X61278522Y-86474154D02*
X61283177Y-86459151D01*
X61283177Y-86459151D02*
X61287962Y-86444190D01*
X61287962Y-86444190D02*
X61292877Y-86429271D01*
X61292877Y-86429271D02*
X61297923Y-86414395D01*
X61297923Y-86414395D02*
X61303098Y-86399564D01*
X61303098Y-86399564D02*
X61308402Y-86384779D01*
X61308402Y-86384779D02*
X61313835Y-86370041D01*
X61313835Y-86370041D02*
X61319397Y-86355350D01*
X61319397Y-86355350D02*
X61325086Y-86340709D01*
X61325086Y-86340709D02*
X61330904Y-86326118D01*
X61330904Y-86326118D02*
X61336848Y-86311578D01*
X61336848Y-86311578D02*
X61342919Y-86297091D01*
X61342919Y-86297091D02*
X61349116Y-86282657D01*
X61349116Y-86282657D02*
X61355438Y-86268278D01*
X61355438Y-86268278D02*
X61361886Y-86253954D01*
X61361886Y-86253954D02*
X61368459Y-86239688D01*
X61368459Y-86239688D02*
X61375156Y-86225479D01*
X61375156Y-86225479D02*
X61381977Y-86211329D01*
X61381977Y-86211329D02*
X61388921Y-86197239D01*
X61388921Y-86197239D02*
X61395988Y-86183211D01*
X61395988Y-86183211D02*
X61403176Y-86169245D01*
X61403176Y-86169245D02*
X61410487Y-86155341D01*
X61410487Y-86155341D02*
X61417918Y-86141503D01*
X61417918Y-86141503D02*
X61418024Y-86141308D01*
X61522993Y-85971190D02*
X61532027Y-85958340D01*
X61532027Y-85958340D02*
X61541173Y-85945569D01*
X61541173Y-85945569D02*
X61550430Y-85932879D01*
X61550430Y-85932879D02*
X61559798Y-85920270D01*
X61559798Y-85920270D02*
X61569275Y-85907743D01*
X61569275Y-85907743D02*
X61578861Y-85895299D01*
X61578861Y-85895299D02*
X61588555Y-85882939D01*
X61588555Y-85882939D02*
X61598357Y-85870665D01*
X61598357Y-85870665D02*
X61608266Y-85858476D01*
X61608266Y-85858476D02*
X61618280Y-85846375D01*
X61618280Y-85846375D02*
X61628400Y-85834361D01*
X61628400Y-85834361D02*
X61638624Y-85822436D01*
X61638624Y-85822436D02*
X61648952Y-85810601D01*
X61648952Y-85810601D02*
X61659383Y-85798856D01*
X61659383Y-85798856D02*
X61669916Y-85787203D01*
X61669916Y-85787203D02*
X61680550Y-85775642D01*
X61680550Y-85775642D02*
X61691285Y-85764175D01*
X61691285Y-85764175D02*
X61702119Y-85752801D01*
X61702119Y-85752801D02*
X61713052Y-85741523D01*
X61713052Y-85741523D02*
X61724083Y-85730340D01*
X61724083Y-85730340D02*
X61735212Y-85719254D01*
X61735212Y-85719254D02*
X61746436Y-85708266D01*
X61746436Y-85708266D02*
X61757756Y-85697375D01*
X61757756Y-85697375D02*
X61769171Y-85686585D01*
X61769171Y-85686585D02*
X61780679Y-85675894D01*
X61780679Y-85675894D02*
X61792281Y-85665304D01*
X61792281Y-85665304D02*
X61803974Y-85654815D01*
X61803974Y-85654815D02*
X61815758Y-85644429D01*
X61815758Y-85644429D02*
X61827633Y-85634147D01*
X61827633Y-85634147D02*
X61839597Y-85623968D01*
X61839597Y-85623968D02*
X61851649Y-85613894D01*
X61851649Y-85613894D02*
X61863788Y-85603926D01*
X61863788Y-85603926D02*
X61876015Y-85594064D01*
X61876015Y-85594064D02*
X61888326Y-85584309D01*
X61888326Y-85584309D02*
X61900723Y-85574662D01*
X61900723Y-85574662D02*
X61900898Y-85574526D01*
X62065736Y-85461445D02*
X62079198Y-85453351D01*
X62079198Y-85453351D02*
X62092730Y-85445374D01*
X62092730Y-85445374D02*
X62106331Y-85437516D01*
X62106331Y-85437516D02*
X62120000Y-85429777D01*
X62120000Y-85429777D02*
X62133736Y-85422158D01*
X62133736Y-85422158D02*
X62147538Y-85414658D01*
X62147538Y-85414658D02*
X62161405Y-85407280D01*
X62161405Y-85407280D02*
X62175336Y-85400022D01*
X62175336Y-85400022D02*
X62189330Y-85392887D01*
X62189330Y-85392887D02*
X62203385Y-85385873D01*
X62203385Y-85385873D02*
X62217501Y-85378983D01*
X62217501Y-85378983D02*
X62231677Y-85372216D01*
X62231677Y-85372216D02*
X62245911Y-85365574D01*
X62245911Y-85365574D02*
X62260202Y-85359055D01*
X62260202Y-85359055D02*
X62274550Y-85352662D01*
X62274550Y-85352662D02*
X62288953Y-85346394D01*
X62288953Y-85346394D02*
X62303411Y-85340252D01*
X62303411Y-85340252D02*
X62317921Y-85334236D01*
X62317921Y-85334236D02*
X62332484Y-85328348D01*
X62332484Y-85328348D02*
X62347097Y-85322586D01*
X62347097Y-85322586D02*
X62361760Y-85316952D01*
X62361760Y-85316952D02*
X62376471Y-85311447D01*
X62376471Y-85311447D02*
X62391230Y-85306070D01*
X62391230Y-85306070D02*
X62406035Y-85300822D01*
X62406035Y-85300822D02*
X62420886Y-85295703D01*
X62420886Y-85295703D02*
X62435781Y-85290715D01*
X62435781Y-85290715D02*
X62450718Y-85285856D01*
X62450718Y-85285856D02*
X62465698Y-85281128D01*
X62465698Y-85281128D02*
X62480718Y-85276531D01*
X62480718Y-85276531D02*
X62495777Y-85272065D01*
X62495777Y-85272065D02*
X62510875Y-85267731D01*
X62510875Y-85267731D02*
X62526011Y-85263528D01*
X62526011Y-85263528D02*
X62541182Y-85259458D01*
X62541182Y-85259458D02*
X62556389Y-85255520D01*
X62556389Y-85255520D02*
X62571629Y-85251716D01*
X62571629Y-85251716D02*
X62571844Y-85251663D01*
X62768344Y-85214969D02*
X62783930Y-85213015D01*
X62783930Y-85213015D02*
X62799533Y-85211198D01*
X62799533Y-85211198D02*
X62815150Y-85209517D01*
X62815150Y-85209517D02*
X62830782Y-85207972D01*
X62830782Y-85207972D02*
X62846427Y-85206563D01*
X62846427Y-85206563D02*
X62862083Y-85205291D01*
X62862083Y-85205291D02*
X62877750Y-85204156D01*
X62877750Y-85204156D02*
X62893426Y-85203158D01*
X62893426Y-85203158D02*
X62909110Y-85202296D01*
X62909110Y-85202296D02*
X62924801Y-85201571D01*
X62924801Y-85201571D02*
X62940498Y-85200984D01*
X62940498Y-85200984D02*
X62956200Y-85200533D01*
X62956200Y-85200533D02*
X62971904Y-85200219D01*
X62971904Y-85200219D02*
X62987611Y-85200043D01*
X62987611Y-85200043D02*
X63003319Y-85200003D01*
X63003319Y-85200003D02*
X63019027Y-85200101D01*
X63019027Y-85200101D02*
X63034733Y-85200335D01*
X63034733Y-85200335D02*
X63050437Y-85200707D01*
X63050437Y-85200707D02*
X63066136Y-85201215D01*
X63066136Y-85201215D02*
X63081831Y-85201861D01*
X63081831Y-85201861D02*
X63097519Y-85202644D01*
X63097519Y-85202644D02*
X63113200Y-85203563D01*
X63113200Y-85203563D02*
X63128873Y-85204619D01*
X63128873Y-85204619D02*
X63144535Y-85205812D01*
X63144535Y-85205812D02*
X63160187Y-85207142D01*
X63160187Y-85207142D02*
X63175826Y-85208608D01*
X63175826Y-85208608D02*
X63191452Y-85210211D01*
X63191452Y-85210211D02*
X63207063Y-85211949D01*
X63207063Y-85211949D02*
X63222659Y-85213824D01*
X63222659Y-85213824D02*
X63238238Y-85215836D01*
X63238238Y-85215836D02*
X63253798Y-85217982D01*
X63253798Y-85217982D02*
X63269339Y-85220265D01*
X63269339Y-85220265D02*
X63284860Y-85222683D01*
X63284860Y-85222683D02*
X63300359Y-85225237D01*
X63300359Y-85225237D02*
X63315835Y-85227925D01*
X63315835Y-85227925D02*
X63316053Y-85227964D01*
X63510592Y-85273936D02*
X63525635Y-85278458D01*
X63525635Y-85278458D02*
X63540638Y-85283110D01*
X63540638Y-85283110D02*
X63555600Y-85287894D01*
X63555600Y-85287894D02*
X63570520Y-85292807D01*
X63570520Y-85292807D02*
X63585396Y-85297851D01*
X63585396Y-85297851D02*
X63600227Y-85303024D01*
X63600227Y-85303024D02*
X63615013Y-85308327D01*
X63615013Y-85308327D02*
X63629752Y-85313758D01*
X63629752Y-85313758D02*
X63644443Y-85319318D01*
X63644443Y-85319318D02*
X63659085Y-85325006D01*
X63659085Y-85325006D02*
X63673677Y-85330821D01*
X63673677Y-85330821D02*
X63688218Y-85336763D01*
X63688218Y-85336763D02*
X63702706Y-85342832D01*
X63702706Y-85342832D02*
X63717140Y-85349028D01*
X63717140Y-85349028D02*
X63731520Y-85355349D01*
X63731520Y-85355349D02*
X63745845Y-85361795D01*
X63745845Y-85361795D02*
X63760112Y-85368366D01*
X63760112Y-85368366D02*
X63774322Y-85375061D01*
X63774322Y-85375061D02*
X63788472Y-85381880D01*
X63788472Y-85381880D02*
X63802563Y-85388822D01*
X63802563Y-85388822D02*
X63816592Y-85395887D01*
X63816592Y-85395887D02*
X63830559Y-85403074D01*
X63830559Y-85403074D02*
X63844463Y-85410383D01*
X63844463Y-85410383D02*
X63858303Y-85417813D01*
X63858303Y-85417813D02*
X63872077Y-85425363D01*
X63872077Y-85425363D02*
X63885785Y-85433033D01*
X63885785Y-85433033D02*
X63899426Y-85440823D01*
X63899426Y-85440823D02*
X63912998Y-85448731D01*
X63912998Y-85448731D02*
X63926500Y-85456758D01*
X63926500Y-85456758D02*
X63939932Y-85464901D01*
X63939932Y-85464901D02*
X63953292Y-85473162D01*
X63953292Y-85473162D02*
X63966580Y-85481539D01*
X63966580Y-85481539D02*
X63979794Y-85490032D01*
X63979794Y-85490032D02*
X63992934Y-85498640D01*
X63992934Y-85498640D02*
X64005998Y-85507362D01*
X64005998Y-85507362D02*
X64006181Y-85507485D01*
X64165470Y-85628257D02*
X64177397Y-85638480D01*
X64177397Y-85638480D02*
X64189233Y-85648806D01*
X64189233Y-85648806D02*
X64200979Y-85659236D01*
X64200979Y-85659236D02*
X64212634Y-85669767D01*
X64212634Y-85669767D02*
X64224196Y-85680400D01*
X64224196Y-85680400D02*
X64235665Y-85691133D01*
X64235665Y-85691133D02*
X64247039Y-85701966D01*
X64247039Y-85701966D02*
X64258319Y-85712898D01*
X64258319Y-85712898D02*
X64269503Y-85723927D01*
X64269503Y-85723927D02*
X64280591Y-85735054D01*
X64280591Y-85735054D02*
X64291581Y-85746278D01*
X64291581Y-85746278D02*
X64302472Y-85757596D01*
X64302472Y-85757596D02*
X64313264Y-85769010D01*
X64313264Y-85769010D02*
X64323957Y-85780517D01*
X64323957Y-85780517D02*
X64334548Y-85792117D01*
X64334548Y-85792117D02*
X64345038Y-85803809D01*
X64345038Y-85803809D02*
X64355425Y-85815592D01*
X64355425Y-85815592D02*
X64365709Y-85827465D01*
X64365709Y-85827465D02*
X64375890Y-85839428D01*
X64375890Y-85839428D02*
X64385965Y-85851479D01*
X64385965Y-85851479D02*
X64395935Y-85863617D01*
X64395935Y-85863617D02*
X64405798Y-85875842D01*
X64405798Y-85875842D02*
X64415555Y-85888153D01*
X64415555Y-85888153D02*
X64425203Y-85900548D01*
X64425203Y-85900548D02*
X64434744Y-85913027D01*
X64434744Y-85913027D02*
X64444174Y-85925588D01*
X64444174Y-85925588D02*
X64453495Y-85938232D01*
X64453495Y-85938232D02*
X64462706Y-85950956D01*
X64462706Y-85950956D02*
X64471804Y-85963761D01*
X64471804Y-85963761D02*
X64480791Y-85976644D01*
X64480791Y-85976644D02*
X64489665Y-85989605D01*
X64489665Y-85989605D02*
X64498426Y-86002643D01*
X64498426Y-86002643D02*
X64507072Y-86015757D01*
X64507072Y-86015757D02*
X64515604Y-86028946D01*
X64515604Y-86028946D02*
X64524020Y-86042209D01*
X64524020Y-86042209D02*
X64524138Y-86042397D01*
X64620921Y-86217302D02*
X64627689Y-86231477D01*
X64627689Y-86231477D02*
X64634334Y-86245710D01*
X64634334Y-86245710D02*
X64640854Y-86260001D01*
X64640854Y-86260001D02*
X64647249Y-86274348D01*
X64647249Y-86274348D02*
X64653519Y-86288750D01*
X64653519Y-86288750D02*
X64659662Y-86303207D01*
X64659662Y-86303207D02*
X64665680Y-86317717D01*
X64665680Y-86317717D02*
X64671570Y-86332278D01*
X64671570Y-86332278D02*
X64677334Y-86346891D01*
X64677334Y-86346891D02*
X64682969Y-86361553D01*
X64682969Y-86361553D02*
X64688477Y-86376264D01*
X64688477Y-86376264D02*
X64693855Y-86391022D01*
X64693855Y-86391022D02*
X64699105Y-86405827D01*
X64699105Y-86405827D02*
X64704225Y-86420677D01*
X64704225Y-86420677D02*
X64709216Y-86435571D01*
X64709216Y-86435571D02*
X64714076Y-86450508D01*
X64714076Y-86450508D02*
X64718806Y-86465487D01*
X64718806Y-86465487D02*
X64723405Y-86480506D01*
X64723405Y-86480506D02*
X64727873Y-86495565D01*
X64727873Y-86495565D02*
X64732209Y-86510663D01*
X64732209Y-86510663D02*
X64736414Y-86525798D01*
X64736414Y-86525798D02*
X64740486Y-86540969D01*
X64740486Y-86540969D02*
X64744425Y-86556174D01*
X64744425Y-86556174D02*
X64748232Y-86571414D01*
X64748232Y-86571414D02*
X64751905Y-86586686D01*
X64751905Y-86586686D02*
X64755445Y-86601990D01*
X64755445Y-86601990D02*
X64758852Y-86617324D01*
X64758852Y-86617324D02*
X64762124Y-86632688D01*
X64762124Y-86632688D02*
X64765262Y-86648079D01*
X64765262Y-86648079D02*
X64768266Y-86663497D01*
X64768266Y-86663497D02*
X64771135Y-86678941D01*
X64771135Y-86678941D02*
X64773870Y-86694409D01*
X64773870Y-86694409D02*
X64776469Y-86709900D01*
X64776469Y-86709900D02*
X64778933Y-86725413D01*
X64778933Y-86725413D02*
X64781261Y-86740948D01*
X64781261Y-86740948D02*
X64781293Y-86741167D01*
X64799009Y-86940277D02*
X64799462Y-86955979D01*
X64799462Y-86955979D02*
X64799777Y-86971684D01*
X64799777Y-86971684D02*
X64799956Y-86987390D01*
X64799956Y-86987390D02*
X64800000Y-87000000D01*
G04 #@! TO.C,R9*
X44700000Y-34100000D02*
X47300000Y-34100000D01*
X44700000Y-35900000D02*
X44700000Y-34100000D01*
X47300000Y-34100000D02*
X47300000Y-35900000D01*
X47300000Y-35900000D02*
X44700000Y-35900000D01*
G04 #@! TO.C,C3*
X69400000Y-58100000D02*
X72400000Y-58100000D01*
X69400000Y-60350000D02*
X69400000Y-58100000D01*
X72400000Y-58100000D02*
X72400000Y-60350000D01*
X72400000Y-60350000D02*
X69400000Y-60350000D01*
G04 #@! TO.C,R2*
X61600000Y-65700000D02*
X63400000Y-65700000D01*
X61600000Y-68300000D02*
X61600000Y-65700000D01*
X63400000Y-65700000D02*
X63400000Y-68300000D01*
X63400000Y-68300000D02*
X61600000Y-68300000D01*
G04 #@! TO.C,H3*
X100000000Y-83000000D02*
G75*
G02*
X92000000Y-83000000I-4000000J0D01*
G01*
X92000000Y-83000000D02*
G75*
G02*
X100000000Y-83000000I4000000J0D01*
G01*
G04 #@! TO.C,U1*
X68000000Y-54000000D02*
X72000000Y-54000000D01*
X68000000Y-58000000D02*
X68000000Y-54000000D01*
X72000000Y-54000000D02*
X72000000Y-58000000D01*
X72000000Y-58000000D02*
X68000000Y-58000000D01*
G04 #@! TO.C,C4*
X66100000Y-52200000D02*
X67900000Y-52200000D01*
X66100000Y-54800000D02*
X66100000Y-52200000D01*
X67900000Y-52200000D02*
X67900000Y-54800000D01*
X67900000Y-54800000D02*
X66100000Y-54800000D01*
G04 #@! TO.C,C10*
X12750000Y-25875000D02*
X16050000Y-25875000D01*
X12750000Y-28125000D02*
X12750000Y-25875000D01*
X16050000Y-25875000D02*
X16050000Y-28125000D01*
X16050000Y-28125000D02*
X12750000Y-28125000D01*
G04 #@! TO.C,U4*
X16250000Y-23400000D02*
X16250000Y-30600000D01*
X16250000Y-30600000D02*
X25050000Y-30600000D01*
X25050000Y-23400000D02*
X16250000Y-23400000D01*
X25050000Y-30600000D02*
X25050000Y-23400000D01*
G04 #@! TO.C,R4*
X88700000Y-65100000D02*
X91300000Y-65100000D01*
X88700000Y-66900000D02*
X88700000Y-65100000D01*
X91300000Y-65100000D02*
X91300000Y-66900000D01*
X91300000Y-66900000D02*
X88700000Y-66900000D01*
G04 #@! TO.C,L1*
X72600000Y-53975000D02*
X77100000Y-53975000D01*
X72600000Y-59075000D02*
X72600000Y-53975000D01*
X77100000Y-53975000D02*
X77100000Y-59075000D01*
X77100000Y-59075000D02*
X72600000Y-59075000D01*
G04 #@! TO.C,H2*
X84000000Y-7000000D02*
G75*
G02*
X76000000Y-7000000I-4000000J0D01*
G01*
X76000000Y-7000000D02*
G75*
G02*
X84000000Y-7000000I4000000J0D01*
G01*
G04 #@! TO.C,H1*
X11000000Y-7000000D02*
G75*
G02*
X3000000Y-7000000I-4000000J0D01*
G01*
X3000000Y-7000000D02*
G75*
G02*
X11000000Y-7000000I4000000J0D01*
G01*
G04 #@! TO.C,C8*
X86700000Y-68100000D02*
X89300000Y-68100000D01*
X86700000Y-69900000D02*
X86700000Y-68100000D01*
X89300000Y-68100000D02*
X89300000Y-69900000D01*
X89300000Y-69900000D02*
X86700000Y-69900000D01*
G04 #@! TO.C,R3*
X84700000Y-65100000D02*
X87300000Y-65100000D01*
X84700000Y-66900000D02*
X84700000Y-65100000D01*
X87300000Y-65100000D02*
X87300000Y-66900000D01*
X87300000Y-66900000D02*
X84700000Y-66900000D01*
G04 #@! TO.C,J5*
X61150000Y-18100000D02*
X64850000Y-18100000D01*
X61150000Y-29520000D02*
X61150000Y-18100000D01*
X64850000Y-18100000D02*
X64850000Y-29520000D01*
X64850000Y-29520000D02*
X61150000Y-29520000D01*
G04 #@! TO.C,TP1*
X49800000Y-87000000D02*
X49799931Y-87015708D01*
X49799931Y-87015708D02*
X49799726Y-87031414D01*
X49799726Y-87031414D02*
X49799383Y-87047119D01*
X49799383Y-87047119D02*
X49798903Y-87062819D01*
X49798903Y-87062819D02*
X49798287Y-87078515D01*
X49798287Y-87078515D02*
X49797533Y-87094205D01*
X49797533Y-87094205D02*
X49796643Y-87109887D01*
X49796643Y-87109887D02*
X49795615Y-87125562D01*
X49795615Y-87125562D02*
X49794451Y-87141226D01*
X49794451Y-87141226D02*
X49793150Y-87156880D01*
X49793150Y-87156880D02*
X49791713Y-87172522D01*
X49791713Y-87172522D02*
X49790139Y-87188151D01*
X49790139Y-87188151D02*
X49788429Y-87203766D01*
X49788429Y-87203766D02*
X49786583Y-87219365D01*
X49786583Y-87219365D02*
X49784601Y-87234947D01*
X49784601Y-87234947D02*
X49782483Y-87250512D01*
X49782483Y-87250512D02*
X49780229Y-87266057D01*
X49780229Y-87266057D02*
X49777839Y-87281582D01*
X49777839Y-87281582D02*
X49775314Y-87297086D01*
X49775314Y-87297086D02*
X49772654Y-87312567D01*
X49772654Y-87312567D02*
X49769859Y-87328024D01*
X49769859Y-87328024D02*
X49766929Y-87343456D01*
X49766929Y-87343456D02*
X49763864Y-87358862D01*
X49763864Y-87358862D02*
X49760666Y-87374241D01*
X49760666Y-87374241D02*
X49757333Y-87389591D01*
X49757333Y-87389591D02*
X49753866Y-87404912D01*
X49753866Y-87404912D02*
X49750266Y-87420202D01*
X49750266Y-87420202D02*
X49746532Y-87435459D01*
X49746532Y-87435459D02*
X49742666Y-87450684D01*
X49742666Y-87450684D02*
X49738666Y-87465874D01*
X49738666Y-87465874D02*
X49734535Y-87481029D01*
X49734535Y-87481029D02*
X49730271Y-87496147D01*
X49730271Y-87496147D02*
X49725876Y-87511228D01*
X49725876Y-87511228D02*
X49721349Y-87526269D01*
X49721349Y-87526269D02*
X49716691Y-87541270D01*
X49716691Y-87541270D02*
X49716624Y-87541481D01*
X49645998Y-87728486D02*
X49639578Y-87742822D01*
X49639578Y-87742822D02*
X49633033Y-87757102D01*
X49633033Y-87757102D02*
X49626364Y-87771324D01*
X49626364Y-87771324D02*
X49619571Y-87785487D01*
X49619571Y-87785487D02*
X49612655Y-87799590D01*
X49612655Y-87799590D02*
X49605616Y-87813633D01*
X49605616Y-87813633D02*
X49598454Y-87827613D01*
X49598454Y-87827613D02*
X49591171Y-87841531D01*
X49591171Y-87841531D02*
X49583767Y-87855384D01*
X49583767Y-87855384D02*
X49576242Y-87869172D01*
X49576242Y-87869172D02*
X49568597Y-87882894D01*
X49568597Y-87882894D02*
X49560833Y-87896549D01*
X49560833Y-87896549D02*
X49552950Y-87910136D01*
X49552950Y-87910136D02*
X49544948Y-87923653D01*
X49544948Y-87923653D02*
X49536829Y-87937100D01*
X49536829Y-87937100D02*
X49528593Y-87950475D01*
X49528593Y-87950475D02*
X49520241Y-87963778D01*
X49520241Y-87963778D02*
X49511772Y-87977008D01*
X49511772Y-87977008D02*
X49503189Y-87990163D01*
X49503189Y-87990163D02*
X49494491Y-88003243D01*
X49494491Y-88003243D02*
X49485679Y-88016247D01*
X49485679Y-88016247D02*
X49476754Y-88029173D01*
X49476754Y-88029173D02*
X49467717Y-88042021D01*
X49467717Y-88042021D02*
X49458568Y-88054789D01*
X49458568Y-88054789D02*
X49449308Y-88067477D01*
X49449308Y-88067477D02*
X49439937Y-88080084D01*
X49439937Y-88080084D02*
X49430457Y-88092609D01*
X49430457Y-88092609D02*
X49420868Y-88105050D01*
X49420868Y-88105050D02*
X49411170Y-88117407D01*
X49411170Y-88117407D02*
X49401365Y-88129679D01*
X49401365Y-88129679D02*
X49391454Y-88141865D01*
X49391454Y-88141865D02*
X49381436Y-88153964D01*
X49381436Y-88153964D02*
X49371314Y-88165976D01*
X49371314Y-88165976D02*
X49361087Y-88177898D01*
X49361087Y-88177898D02*
X49350756Y-88189731D01*
X49350756Y-88189731D02*
X49350609Y-88189897D01*
X49210342Y-88332318D02*
X49198669Y-88342830D01*
X49198669Y-88342830D02*
X49186906Y-88353239D01*
X49186906Y-88353239D02*
X49175051Y-88363545D01*
X49175051Y-88363545D02*
X49163107Y-88373747D01*
X49163107Y-88373747D02*
X49151075Y-88383845D01*
X49151075Y-88383845D02*
X49138955Y-88393837D01*
X49138955Y-88393837D02*
X49126748Y-88403723D01*
X49126748Y-88403723D02*
X49114456Y-88413502D01*
X49114456Y-88413502D02*
X49102078Y-88423174D01*
X49102078Y-88423174D02*
X49089617Y-88432737D01*
X49089617Y-88432737D02*
X49077073Y-88442191D01*
X49077073Y-88442191D02*
X49064446Y-88451535D01*
X49064446Y-88451535D02*
X49051739Y-88460769D01*
X49051739Y-88460769D02*
X49038952Y-88469891D01*
X49038952Y-88469891D02*
X49026085Y-88478902D01*
X49026085Y-88478902D02*
X49013140Y-88487799D01*
X49013140Y-88487799D02*
X49000118Y-88496584D01*
X49000118Y-88496584D02*
X48987020Y-88505254D01*
X48987020Y-88505254D02*
X48973847Y-88513810D01*
X48973847Y-88513810D02*
X48960600Y-88522251D01*
X48960600Y-88522251D02*
X48947279Y-88530576D01*
X48947279Y-88530576D02*
X48933886Y-88538784D01*
X48933886Y-88538784D02*
X48920423Y-88546875D01*
X48920423Y-88546875D02*
X48906889Y-88554848D01*
X48906889Y-88554848D02*
X48893286Y-88562703D01*
X48893286Y-88562703D02*
X48879615Y-88570439D01*
X48879615Y-88570439D02*
X48865877Y-88578055D01*
X48865877Y-88578055D02*
X48852073Y-88585551D01*
X48852073Y-88585551D02*
X48838204Y-88592926D01*
X48838204Y-88592926D02*
X48824271Y-88600180D01*
X48824271Y-88600180D02*
X48810276Y-88607312D01*
X48810276Y-88607312D02*
X48796219Y-88614322D01*
X48796219Y-88614322D02*
X48782101Y-88621209D01*
X48782101Y-88621209D02*
X48767924Y-88627972D01*
X48767924Y-88627972D02*
X48753688Y-88634611D01*
X48753688Y-88634611D02*
X48753487Y-88634704D01*
X48567580Y-88708172D02*
X48552652Y-88713060D01*
X48552652Y-88713060D02*
X48537682Y-88717818D01*
X48537682Y-88717818D02*
X48522671Y-88722444D01*
X48522671Y-88722444D02*
X48507620Y-88726940D01*
X48507620Y-88726940D02*
X48492531Y-88731304D01*
X48492531Y-88731304D02*
X48477404Y-88735536D01*
X48477404Y-88735536D02*
X48462240Y-88739636D01*
X48462240Y-88739636D02*
X48447042Y-88743604D01*
X48447042Y-88743604D02*
X48431809Y-88747438D01*
X48431809Y-88747438D02*
X48416543Y-88751140D01*
X48416543Y-88751140D02*
X48401246Y-88754708D01*
X48401246Y-88754708D02*
X48385918Y-88758143D01*
X48385918Y-88758143D02*
X48370561Y-88761444D01*
X48370561Y-88761444D02*
X48355176Y-88764610D01*
X48355176Y-88764610D02*
X48339763Y-88767643D01*
X48339763Y-88767643D02*
X48324325Y-88770540D01*
X48324325Y-88770540D02*
X48308862Y-88773303D01*
X48308862Y-88773303D02*
X48293375Y-88775931D01*
X48293375Y-88775931D02*
X48277866Y-88778424D01*
X48277866Y-88778424D02*
X48262336Y-88780781D01*
X48262336Y-88780781D02*
X48246786Y-88783002D01*
X48246786Y-88783002D02*
X48231218Y-88785088D01*
X48231218Y-88785088D02*
X48215631Y-88787038D01*
X48215631Y-88787038D02*
X48200028Y-88788851D01*
X48200028Y-88788851D02*
X48184410Y-88790529D01*
X48184410Y-88790529D02*
X48168778Y-88792070D01*
X48168778Y-88792070D02*
X48153133Y-88793474D01*
X48153133Y-88793474D02*
X48137476Y-88794742D01*
X48137476Y-88794742D02*
X48121809Y-88795874D01*
X48121809Y-88795874D02*
X48106133Y-88796868D01*
X48106133Y-88796868D02*
X48090448Y-88797726D01*
X48090448Y-88797726D02*
X48074757Y-88798447D01*
X48074757Y-88798447D02*
X48059060Y-88799031D01*
X48059060Y-88799031D02*
X48043358Y-88799478D01*
X48043358Y-88799478D02*
X48027654Y-88799788D01*
X48027654Y-88799788D02*
X48027432Y-88799791D01*
X47827698Y-88791734D02*
X47812069Y-88790162D01*
X47812069Y-88790162D02*
X47796454Y-88788454D01*
X47796454Y-88788454D02*
X47780855Y-88786610D01*
X47780855Y-88786610D02*
X47765272Y-88784630D01*
X47765272Y-88784630D02*
X47749707Y-88782513D01*
X47749707Y-88782513D02*
X47734162Y-88780261D01*
X47734162Y-88780261D02*
X47718636Y-88777874D01*
X47718636Y-88777874D02*
X47703132Y-88775351D01*
X47703132Y-88775351D02*
X47687651Y-88772692D01*
X47687651Y-88772692D02*
X47672193Y-88769899D01*
X47672193Y-88769899D02*
X47656761Y-88766971D01*
X47656761Y-88766971D02*
X47641354Y-88763909D01*
X47641354Y-88763909D02*
X47625975Y-88760712D01*
X47625975Y-88760712D02*
X47610624Y-88757381D01*
X47610624Y-88757381D02*
X47595303Y-88753916D01*
X47595303Y-88753916D02*
X47580013Y-88750317D01*
X47580013Y-88750317D02*
X47564755Y-88746586D01*
X47564755Y-88746586D02*
X47549530Y-88742721D01*
X47549530Y-88742721D02*
X47534339Y-88738724D01*
X47534339Y-88738724D02*
X47519184Y-88734594D01*
X47519184Y-88734594D02*
X47504065Y-88730332D01*
X47504065Y-88730332D02*
X47488984Y-88725938D01*
X47488984Y-88725938D02*
X47473942Y-88721413D01*
X47473942Y-88721413D02*
X47458940Y-88716757D01*
X47458940Y-88716757D02*
X47443980Y-88711970D01*
X47443980Y-88711970D02*
X47429061Y-88707053D01*
X47429061Y-88707053D02*
X47414186Y-88702005D01*
X47414186Y-88702005D02*
X47399356Y-88696828D01*
X47399356Y-88696828D02*
X47384571Y-88691522D01*
X47384571Y-88691522D02*
X47369834Y-88686087D01*
X47369834Y-88686087D02*
X47355144Y-88680524D01*
X47355144Y-88680524D02*
X47340503Y-88674833D01*
X47340503Y-88674833D02*
X47325913Y-88669014D01*
X47325913Y-88669014D02*
X47311374Y-88663068D01*
X47311374Y-88663068D02*
X47296887Y-88656995D01*
X47296887Y-88656995D02*
X47296684Y-88656909D01*
X47117298Y-88568706D02*
X47103643Y-88560943D01*
X47103643Y-88560943D02*
X47090055Y-88553062D01*
X47090055Y-88553062D02*
X47076537Y-88545062D01*
X47076537Y-88545062D02*
X47063089Y-88536944D01*
X47063089Y-88536944D02*
X47049712Y-88528710D01*
X47049712Y-88528710D02*
X47036408Y-88520359D01*
X47036408Y-88520359D02*
X47023178Y-88511892D01*
X47023178Y-88511892D02*
X47010021Y-88503310D01*
X47010021Y-88503310D02*
X46996940Y-88494614D01*
X46996940Y-88494614D02*
X46983936Y-88485804D01*
X46983936Y-88485804D02*
X46971008Y-88476881D01*
X46971008Y-88476881D02*
X46958159Y-88467845D01*
X46958159Y-88467845D02*
X46945390Y-88458697D01*
X46945390Y-88458697D02*
X46932701Y-88449439D01*
X46932701Y-88449439D02*
X46920093Y-88440070D01*
X46920093Y-88440070D02*
X46907567Y-88430591D01*
X46907567Y-88430591D02*
X46895125Y-88421003D01*
X46895125Y-88421003D02*
X46882766Y-88411307D01*
X46882766Y-88411307D02*
X46870493Y-88401504D01*
X46870493Y-88401504D02*
X46858306Y-88391594D01*
X46858306Y-88391594D02*
X46846205Y-88381578D01*
X46846205Y-88381578D02*
X46834193Y-88371457D01*
X46834193Y-88371457D02*
X46822269Y-88361231D01*
X46822269Y-88361231D02*
X46810435Y-88350902D01*
X46810435Y-88350902D02*
X46798692Y-88340470D01*
X46798692Y-88340470D02*
X46787040Y-88329935D01*
X46787040Y-88329935D02*
X46775480Y-88319300D01*
X46775480Y-88319300D02*
X46764014Y-88308564D01*
X46764014Y-88308564D02*
X46752642Y-88297728D01*
X46752642Y-88297728D02*
X46741365Y-88286793D01*
X46741365Y-88286793D02*
X46730183Y-88275761D01*
X46730183Y-88275761D02*
X46719099Y-88264631D01*
X46719099Y-88264631D02*
X46708112Y-88253405D01*
X46708112Y-88253405D02*
X46697223Y-88242084D01*
X46697223Y-88242084D02*
X46686434Y-88230668D01*
X46686434Y-88230668D02*
X46686282Y-88230506D01*
X46557941Y-88077250D02*
X46548596Y-88064625D01*
X46548596Y-88064625D02*
X46539361Y-88051918D01*
X46539361Y-88051918D02*
X46530237Y-88039132D01*
X46530237Y-88039132D02*
X46521224Y-88026267D01*
X46521224Y-88026267D02*
X46512325Y-88013323D01*
X46512325Y-88013323D02*
X46503539Y-88000302D01*
X46503539Y-88000302D02*
X46494867Y-87987205D01*
X46494867Y-87987205D02*
X46486309Y-87974033D01*
X46486309Y-87974033D02*
X46477867Y-87960786D01*
X46477867Y-87960786D02*
X46469540Y-87947467D01*
X46469540Y-87947467D02*
X46461331Y-87934075D01*
X46461331Y-87934075D02*
X46453238Y-87920612D01*
X46453238Y-87920612D02*
X46445263Y-87907079D01*
X46445263Y-87907079D02*
X46437407Y-87893477D01*
X46437407Y-87893477D02*
X46429669Y-87879807D01*
X46429669Y-87879807D02*
X46422051Y-87866070D01*
X46422051Y-87866070D02*
X46414554Y-87852267D01*
X46414554Y-87852267D02*
X46407177Y-87838399D01*
X46407177Y-87838399D02*
X46399921Y-87824468D01*
X46399921Y-87824468D02*
X46392787Y-87810473D01*
X46392787Y-87810473D02*
X46385776Y-87796417D01*
X46385776Y-87796417D02*
X46378887Y-87782300D01*
X46378887Y-87782300D02*
X46372122Y-87768124D01*
X46372122Y-87768124D02*
X46365481Y-87753889D01*
X46365481Y-87753889D02*
X46358964Y-87739596D01*
X46358964Y-87739596D02*
X46352573Y-87725247D01*
X46352573Y-87725247D02*
X46346307Y-87710843D01*
X46346307Y-87710843D02*
X46340166Y-87696385D01*
X46340166Y-87696385D02*
X46334153Y-87681874D01*
X46334153Y-87681874D02*
X46328266Y-87667311D01*
X46328266Y-87667311D02*
X46322506Y-87652697D01*
X46322506Y-87652697D02*
X46316874Y-87638034D01*
X46316874Y-87638034D02*
X46311370Y-87623322D01*
X46311370Y-87623322D02*
X46305995Y-87608562D01*
X46305995Y-87608562D02*
X46300749Y-87593756D01*
X46300749Y-87593756D02*
X46300676Y-87593547D01*
X46245341Y-87401462D02*
X46241904Y-87386134D01*
X46241904Y-87386134D02*
X46238602Y-87370777D01*
X46238602Y-87370777D02*
X46235433Y-87355392D01*
X46235433Y-87355392D02*
X46232399Y-87339980D01*
X46232399Y-87339980D02*
X46229499Y-87324542D01*
X46229499Y-87324542D02*
X46226735Y-87309080D01*
X46226735Y-87309080D02*
X46224105Y-87293593D01*
X46224105Y-87293593D02*
X46221611Y-87278085D01*
X46221611Y-87278085D02*
X46219252Y-87262555D01*
X46219252Y-87262555D02*
X46217028Y-87247005D01*
X46217028Y-87247005D02*
X46214941Y-87231437D01*
X46214941Y-87231437D02*
X46212989Y-87215851D01*
X46212989Y-87215851D02*
X46211173Y-87200248D01*
X46211173Y-87200248D02*
X46209494Y-87184630D01*
X46209494Y-87184630D02*
X46207951Y-87168998D01*
X46207951Y-87168998D02*
X46206544Y-87153353D01*
X46206544Y-87153353D02*
X46205275Y-87137697D01*
X46205275Y-87137697D02*
X46204141Y-87122030D01*
X46204141Y-87122030D02*
X46203145Y-87106353D01*
X46203145Y-87106353D02*
X46202285Y-87090669D01*
X46202285Y-87090669D02*
X46201562Y-87074978D01*
X46201562Y-87074978D02*
X46200976Y-87059281D01*
X46200976Y-87059281D02*
X46200528Y-87043579D01*
X46200528Y-87043579D02*
X46200216Y-87027875D01*
X46200216Y-87027875D02*
X46200041Y-87012168D01*
X46200041Y-87012168D02*
X46200003Y-86996460D01*
X46200003Y-86996460D02*
X46200103Y-86980752D01*
X46200103Y-86980752D02*
X46200339Y-86965046D01*
X46200339Y-86965046D02*
X46200713Y-86949343D01*
X46200713Y-86949343D02*
X46201224Y-86933643D01*
X46201224Y-86933643D02*
X46201871Y-86917948D01*
X46201871Y-86917948D02*
X46202656Y-86902260D01*
X46202656Y-86902260D02*
X46203577Y-86886579D01*
X46203577Y-86886579D02*
X46204635Y-86870907D01*
X46204635Y-86870907D02*
X46205830Y-86855245D01*
X46205830Y-86855245D02*
X46205848Y-86855024D01*
X46232987Y-86656978D02*
X46236047Y-86641571D01*
X46236047Y-86641571D02*
X46239242Y-86626191D01*
X46239242Y-86626191D02*
X46242572Y-86610840D01*
X46242572Y-86610840D02*
X46246035Y-86595519D01*
X46246035Y-86595519D02*
X46249631Y-86580228D01*
X46249631Y-86580228D02*
X46253361Y-86564969D01*
X46253361Y-86564969D02*
X46257224Y-86549744D01*
X46257224Y-86549744D02*
X46261219Y-86534553D01*
X46261219Y-86534553D02*
X46265347Y-86519397D01*
X46265347Y-86519397D02*
X46269607Y-86504278D01*
X46269607Y-86504278D02*
X46273999Y-86489196D01*
X46273999Y-86489196D02*
X46278522Y-86474154D01*
X46278522Y-86474154D02*
X46283177Y-86459151D01*
X46283177Y-86459151D02*
X46287962Y-86444190D01*
X46287962Y-86444190D02*
X46292877Y-86429271D01*
X46292877Y-86429271D02*
X46297923Y-86414395D01*
X46297923Y-86414395D02*
X46303098Y-86399564D01*
X46303098Y-86399564D02*
X46308402Y-86384779D01*
X46308402Y-86384779D02*
X46313835Y-86370041D01*
X46313835Y-86370041D02*
X46319397Y-86355350D01*
X46319397Y-86355350D02*
X46325086Y-86340709D01*
X46325086Y-86340709D02*
X46330904Y-86326118D01*
X46330904Y-86326118D02*
X46336848Y-86311578D01*
X46336848Y-86311578D02*
X46342919Y-86297091D01*
X46342919Y-86297091D02*
X46349116Y-86282657D01*
X46349116Y-86282657D02*
X46355438Y-86268278D01*
X46355438Y-86268278D02*
X46361886Y-86253954D01*
X46361886Y-86253954D02*
X46368459Y-86239688D01*
X46368459Y-86239688D02*
X46375156Y-86225479D01*
X46375156Y-86225479D02*
X46381977Y-86211329D01*
X46381977Y-86211329D02*
X46388921Y-86197239D01*
X46388921Y-86197239D02*
X46395988Y-86183211D01*
X46395988Y-86183211D02*
X46403176Y-86169245D01*
X46403176Y-86169245D02*
X46410487Y-86155341D01*
X46410487Y-86155341D02*
X46417918Y-86141503D01*
X46417918Y-86141503D02*
X46418024Y-86141308D01*
X46522993Y-85971190D02*
X46532027Y-85958340D01*
X46532027Y-85958340D02*
X46541173Y-85945569D01*
X46541173Y-85945569D02*
X46550430Y-85932879D01*
X46550430Y-85932879D02*
X46559798Y-85920270D01*
X46559798Y-85920270D02*
X46569275Y-85907743D01*
X46569275Y-85907743D02*
X46578861Y-85895299D01*
X46578861Y-85895299D02*
X46588555Y-85882939D01*
X46588555Y-85882939D02*
X46598357Y-85870665D01*
X46598357Y-85870665D02*
X46608266Y-85858476D01*
X46608266Y-85858476D02*
X46618280Y-85846375D01*
X46618280Y-85846375D02*
X46628400Y-85834361D01*
X46628400Y-85834361D02*
X46638624Y-85822436D01*
X46638624Y-85822436D02*
X46648952Y-85810601D01*
X46648952Y-85810601D02*
X46659383Y-85798856D01*
X46659383Y-85798856D02*
X46669916Y-85787203D01*
X46669916Y-85787203D02*
X46680550Y-85775642D01*
X46680550Y-85775642D02*
X46691285Y-85764175D01*
X46691285Y-85764175D02*
X46702119Y-85752801D01*
X46702119Y-85752801D02*
X46713052Y-85741523D01*
X46713052Y-85741523D02*
X46724083Y-85730340D01*
X46724083Y-85730340D02*
X46735212Y-85719254D01*
X46735212Y-85719254D02*
X46746436Y-85708266D01*
X46746436Y-85708266D02*
X46757756Y-85697375D01*
X46757756Y-85697375D02*
X46769171Y-85686585D01*
X46769171Y-85686585D02*
X46780679Y-85675894D01*
X46780679Y-85675894D02*
X46792281Y-85665304D01*
X46792281Y-85665304D02*
X46803974Y-85654815D01*
X46803974Y-85654815D02*
X46815758Y-85644429D01*
X46815758Y-85644429D02*
X46827633Y-85634147D01*
X46827633Y-85634147D02*
X46839597Y-85623968D01*
X46839597Y-85623968D02*
X46851649Y-85613894D01*
X46851649Y-85613894D02*
X46863788Y-85603926D01*
X46863788Y-85603926D02*
X46876015Y-85594064D01*
X46876015Y-85594064D02*
X46888326Y-85584309D01*
X46888326Y-85584309D02*
X46900723Y-85574662D01*
X46900723Y-85574662D02*
X46900898Y-85574526D01*
X47065736Y-85461445D02*
X47079198Y-85453351D01*
X47079198Y-85453351D02*
X47092730Y-85445374D01*
X47092730Y-85445374D02*
X47106331Y-85437516D01*
X47106331Y-85437516D02*
X47120000Y-85429777D01*
X47120000Y-85429777D02*
X47133736Y-85422158D01*
X47133736Y-85422158D02*
X47147538Y-85414658D01*
X47147538Y-85414658D02*
X47161405Y-85407280D01*
X47161405Y-85407280D02*
X47175336Y-85400022D01*
X47175336Y-85400022D02*
X47189330Y-85392887D01*
X47189330Y-85392887D02*
X47203385Y-85385873D01*
X47203385Y-85385873D02*
X47217501Y-85378983D01*
X47217501Y-85378983D02*
X47231677Y-85372216D01*
X47231677Y-85372216D02*
X47245911Y-85365574D01*
X47245911Y-85365574D02*
X47260202Y-85359055D01*
X47260202Y-85359055D02*
X47274550Y-85352662D01*
X47274550Y-85352662D02*
X47288953Y-85346394D01*
X47288953Y-85346394D02*
X47303411Y-85340252D01*
X47303411Y-85340252D02*
X47317921Y-85334236D01*
X47317921Y-85334236D02*
X47332484Y-85328348D01*
X47332484Y-85328348D02*
X47347097Y-85322586D01*
X47347097Y-85322586D02*
X47361760Y-85316952D01*
X47361760Y-85316952D02*
X47376471Y-85311447D01*
X47376471Y-85311447D02*
X47391230Y-85306070D01*
X47391230Y-85306070D02*
X47406035Y-85300822D01*
X47406035Y-85300822D02*
X47420886Y-85295703D01*
X47420886Y-85295703D02*
X47435781Y-85290715D01*
X47435781Y-85290715D02*
X47450718Y-85285856D01*
X47450718Y-85285856D02*
X47465698Y-85281128D01*
X47465698Y-85281128D02*
X47480718Y-85276531D01*
X47480718Y-85276531D02*
X47495777Y-85272065D01*
X47495777Y-85272065D02*
X47510875Y-85267731D01*
X47510875Y-85267731D02*
X47526011Y-85263528D01*
X47526011Y-85263528D02*
X47541182Y-85259458D01*
X47541182Y-85259458D02*
X47556389Y-85255520D01*
X47556389Y-85255520D02*
X47571629Y-85251716D01*
X47571629Y-85251716D02*
X47571844Y-85251663D01*
X47768344Y-85214969D02*
X47783930Y-85213015D01*
X47783930Y-85213015D02*
X47799533Y-85211198D01*
X47799533Y-85211198D02*
X47815150Y-85209517D01*
X47815150Y-85209517D02*
X47830782Y-85207972D01*
X47830782Y-85207972D02*
X47846427Y-85206563D01*
X47846427Y-85206563D02*
X47862083Y-85205291D01*
X47862083Y-85205291D02*
X47877750Y-85204156D01*
X47877750Y-85204156D02*
X47893426Y-85203158D01*
X47893426Y-85203158D02*
X47909110Y-85202296D01*
X47909110Y-85202296D02*
X47924801Y-85201571D01*
X47924801Y-85201571D02*
X47940498Y-85200984D01*
X47940498Y-85200984D02*
X47956200Y-85200533D01*
X47956200Y-85200533D02*
X47971904Y-85200219D01*
X47971904Y-85200219D02*
X47987611Y-85200043D01*
X47987611Y-85200043D02*
X48003319Y-85200003D01*
X48003319Y-85200003D02*
X48019027Y-85200101D01*
X48019027Y-85200101D02*
X48034733Y-85200335D01*
X48034733Y-85200335D02*
X48050437Y-85200707D01*
X48050437Y-85200707D02*
X48066136Y-85201215D01*
X48066136Y-85201215D02*
X48081831Y-85201861D01*
X48081831Y-85201861D02*
X48097519Y-85202644D01*
X48097519Y-85202644D02*
X48113200Y-85203563D01*
X48113200Y-85203563D02*
X48128873Y-85204619D01*
X48128873Y-85204619D02*
X48144535Y-85205812D01*
X48144535Y-85205812D02*
X48160187Y-85207142D01*
X48160187Y-85207142D02*
X48175826Y-85208608D01*
X48175826Y-85208608D02*
X48191452Y-85210211D01*
X48191452Y-85210211D02*
X48207063Y-85211949D01*
X48207063Y-85211949D02*
X48222659Y-85213824D01*
X48222659Y-85213824D02*
X48238238Y-85215836D01*
X48238238Y-85215836D02*
X48253798Y-85217982D01*
X48253798Y-85217982D02*
X48269339Y-85220265D01*
X48269339Y-85220265D02*
X48284860Y-85222683D01*
X48284860Y-85222683D02*
X48300359Y-85225237D01*
X48300359Y-85225237D02*
X48315835Y-85227925D01*
X48315835Y-85227925D02*
X48316053Y-85227964D01*
X48510592Y-85273936D02*
X48525635Y-85278458D01*
X48525635Y-85278458D02*
X48540638Y-85283110D01*
X48540638Y-85283110D02*
X48555600Y-85287894D01*
X48555600Y-85287894D02*
X48570520Y-85292807D01*
X48570520Y-85292807D02*
X48585396Y-85297851D01*
X48585396Y-85297851D02*
X48600227Y-85303024D01*
X48600227Y-85303024D02*
X48615013Y-85308327D01*
X48615013Y-85308327D02*
X48629752Y-85313758D01*
X48629752Y-85313758D02*
X48644443Y-85319318D01*
X48644443Y-85319318D02*
X48659085Y-85325006D01*
X48659085Y-85325006D02*
X48673677Y-85330821D01*
X48673677Y-85330821D02*
X48688218Y-85336763D01*
X48688218Y-85336763D02*
X48702706Y-85342832D01*
X48702706Y-85342832D02*
X48717140Y-85349028D01*
X48717140Y-85349028D02*
X48731520Y-85355349D01*
X48731520Y-85355349D02*
X48745845Y-85361795D01*
X48745845Y-85361795D02*
X48760112Y-85368366D01*
X48760112Y-85368366D02*
X48774322Y-85375061D01*
X48774322Y-85375061D02*
X48788472Y-85381880D01*
X48788472Y-85381880D02*
X48802563Y-85388822D01*
X48802563Y-85388822D02*
X48816592Y-85395887D01*
X48816592Y-85395887D02*
X48830559Y-85403074D01*
X48830559Y-85403074D02*
X48844463Y-85410383D01*
X48844463Y-85410383D02*
X48858303Y-85417813D01*
X48858303Y-85417813D02*
X48872077Y-85425363D01*
X48872077Y-85425363D02*
X48885785Y-85433033D01*
X48885785Y-85433033D02*
X48899426Y-85440823D01*
X48899426Y-85440823D02*
X48912998Y-85448731D01*
X48912998Y-85448731D02*
X48926500Y-85456758D01*
X48926500Y-85456758D02*
X48939932Y-85464901D01*
X48939932Y-85464901D02*
X48953292Y-85473162D01*
X48953292Y-85473162D02*
X48966580Y-85481539D01*
X48966580Y-85481539D02*
X48979794Y-85490032D01*
X48979794Y-85490032D02*
X48992934Y-85498640D01*
X48992934Y-85498640D02*
X49005998Y-85507362D01*
X49005998Y-85507362D02*
X49006181Y-85507485D01*
X49165470Y-85628257D02*
X49177397Y-85638480D01*
X49177397Y-85638480D02*
X49189233Y-85648806D01*
X49189233Y-85648806D02*
X49200979Y-85659236D01*
X49200979Y-85659236D02*
X49212634Y-85669767D01*
X49212634Y-85669767D02*
X49224196Y-85680400D01*
X49224196Y-85680400D02*
X49235665Y-85691133D01*
X49235665Y-85691133D02*
X49247039Y-85701966D01*
X49247039Y-85701966D02*
X49258319Y-85712898D01*
X49258319Y-85712898D02*
X49269503Y-85723927D01*
X49269503Y-85723927D02*
X49280591Y-85735054D01*
X49280591Y-85735054D02*
X49291581Y-85746278D01*
X49291581Y-85746278D02*
X49302472Y-85757596D01*
X49302472Y-85757596D02*
X49313264Y-85769010D01*
X49313264Y-85769010D02*
X49323957Y-85780517D01*
X49323957Y-85780517D02*
X49334548Y-85792117D01*
X49334548Y-85792117D02*
X49345038Y-85803809D01*
X49345038Y-85803809D02*
X49355425Y-85815592D01*
X49355425Y-85815592D02*
X49365709Y-85827465D01*
X49365709Y-85827465D02*
X49375890Y-85839428D01*
X49375890Y-85839428D02*
X49385965Y-85851479D01*
X49385965Y-85851479D02*
X49395935Y-85863617D01*
X49395935Y-85863617D02*
X49405798Y-85875842D01*
X49405798Y-85875842D02*
X49415555Y-85888153D01*
X49415555Y-85888153D02*
X49425203Y-85900548D01*
X49425203Y-85900548D02*
X49434744Y-85913027D01*
X49434744Y-85913027D02*
X49444174Y-85925588D01*
X49444174Y-85925588D02*
X49453495Y-85938232D01*
X49453495Y-85938232D02*
X49462706Y-85950956D01*
X49462706Y-85950956D02*
X49471804Y-85963761D01*
X49471804Y-85963761D02*
X49480791Y-85976644D01*
X49480791Y-85976644D02*
X49489665Y-85989605D01*
X49489665Y-85989605D02*
X49498426Y-86002643D01*
X49498426Y-86002643D02*
X49507072Y-86015757D01*
X49507072Y-86015757D02*
X49515604Y-86028946D01*
X49515604Y-86028946D02*
X49524020Y-86042209D01*
X49524020Y-86042209D02*
X49524138Y-86042397D01*
X49620921Y-86217302D02*
X49627689Y-86231477D01*
X49627689Y-86231477D02*
X49634334Y-86245710D01*
X49634334Y-86245710D02*
X49640854Y-86260001D01*
X49640854Y-86260001D02*
X49647249Y-86274348D01*
X49647249Y-86274348D02*
X49653519Y-86288750D01*
X49653519Y-86288750D02*
X49659662Y-86303207D01*
X49659662Y-86303207D02*
X49665680Y-86317717D01*
X49665680Y-86317717D02*
X49671570Y-86332278D01*
X49671570Y-86332278D02*
X49677334Y-86346891D01*
X49677334Y-86346891D02*
X49682969Y-86361553D01*
X49682969Y-86361553D02*
X49688477Y-86376264D01*
X49688477Y-86376264D02*
X49693855Y-86391022D01*
X49693855Y-86391022D02*
X49699105Y-86405827D01*
X49699105Y-86405827D02*
X49704225Y-86420677D01*
X49704225Y-86420677D02*
X49709216Y-86435571D01*
X49709216Y-86435571D02*
X49714076Y-86450508D01*
X49714076Y-86450508D02*
X49718806Y-86465487D01*
X49718806Y-86465487D02*
X49723405Y-86480506D01*
X49723405Y-86480506D02*
X49727873Y-86495565D01*
X49727873Y-86495565D02*
X49732209Y-86510663D01*
X49732209Y-86510663D02*
X49736414Y-86525798D01*
X49736414Y-86525798D02*
X49740486Y-86540969D01*
X49740486Y-86540969D02*
X49744425Y-86556174D01*
X49744425Y-86556174D02*
X49748232Y-86571414D01*
X49748232Y-86571414D02*
X49751905Y-86586686D01*
X49751905Y-86586686D02*
X49755445Y-86601990D01*
X49755445Y-86601990D02*
X49758852Y-86617324D01*
X49758852Y-86617324D02*
X49762124Y-86632688D01*
X49762124Y-86632688D02*
X49765262Y-86648079D01*
X49765262Y-86648079D02*
X49768266Y-86663497D01*
X49768266Y-86663497D02*
X49771135Y-86678941D01*
X49771135Y-86678941D02*
X49773870Y-86694409D01*
X49773870Y-86694409D02*
X49776469Y-86709900D01*
X49776469Y-86709900D02*
X49778933Y-86725413D01*
X49778933Y-86725413D02*
X49781261Y-86740948D01*
X49781261Y-86740948D02*
X49781293Y-86741167D01*
X49799009Y-86940277D02*
X49799462Y-86955979D01*
X49799462Y-86955979D02*
X49799777Y-86971684D01*
X49799777Y-86971684D02*
X49799956Y-86987390D01*
X49799956Y-86987390D02*
X49800000Y-87000000D01*
G04 #@! TO.C,D3*
X38100000Y-68000000D02*
X45699999Y-68000000D01*
X38100000Y-73000000D02*
X38100000Y-68000000D01*
X45699999Y-68000000D02*
X45699999Y-73000000D01*
X45699999Y-73000000D02*
X38100000Y-73000000D01*
G04 #@! TO.C,Q1*
X61400000Y-74300000D02*
X64600000Y-74300000D01*
X61400000Y-77700000D02*
X61400000Y-74300000D01*
X64600000Y-74300000D02*
X64600000Y-77700000D01*
X64600000Y-77700000D02*
X61400000Y-77700000D01*
G04 #@! TO.C,J6*
X92150000Y-16150000D02*
X95850000Y-16150000D01*
X92150000Y-32550000D02*
X92150000Y-16150000D01*
X95850000Y-16150000D02*
X95850000Y-32550000D01*
X95850000Y-32550000D02*
X92150000Y-32550000D01*
G04 #@! TO.C,C1*
X66050000Y-58100000D02*
X69350000Y-58100000D01*
X66050000Y-60350000D02*
X66050000Y-58100000D01*
X69350000Y-58100000D02*
X69350000Y-60350000D01*
X69350000Y-60350000D02*
X66050000Y-60350000D01*
G04 #@! TO.C,C7*
X84600000Y-52700000D02*
X86400000Y-52700000D01*
X84600000Y-55300000D02*
X84600000Y-52700000D01*
X86400000Y-52700000D02*
X86400000Y-55300000D01*
X86400000Y-55300000D02*
X84600000Y-55300000D01*
G04 #@! TO.C,TP3*
X59800000Y-87000000D02*
X59799931Y-87015708D01*
X59799931Y-87015708D02*
X59799726Y-87031414D01*
X59799726Y-87031414D02*
X59799383Y-87047119D01*
X59799383Y-87047119D02*
X59798903Y-87062819D01*
X59798903Y-87062819D02*
X59798287Y-87078515D01*
X59798287Y-87078515D02*
X59797533Y-87094205D01*
X59797533Y-87094205D02*
X59796643Y-87109887D01*
X59796643Y-87109887D02*
X59795615Y-87125562D01*
X59795615Y-87125562D02*
X59794451Y-87141226D01*
X59794451Y-87141226D02*
X59793150Y-87156880D01*
X59793150Y-87156880D02*
X59791713Y-87172522D01*
X59791713Y-87172522D02*
X59790139Y-87188151D01*
X59790139Y-87188151D02*
X59788429Y-87203766D01*
X59788429Y-87203766D02*
X59786583Y-87219365D01*
X59786583Y-87219365D02*
X59784601Y-87234947D01*
X59784601Y-87234947D02*
X59782483Y-87250512D01*
X59782483Y-87250512D02*
X59780229Y-87266057D01*
X59780229Y-87266057D02*
X59777839Y-87281582D01*
X59777839Y-87281582D02*
X59775314Y-87297086D01*
X59775314Y-87297086D02*
X59772654Y-87312567D01*
X59772654Y-87312567D02*
X59769859Y-87328024D01*
X59769859Y-87328024D02*
X59766929Y-87343456D01*
X59766929Y-87343456D02*
X59763864Y-87358862D01*
X59763864Y-87358862D02*
X59760666Y-87374241D01*
X59760666Y-87374241D02*
X59757333Y-87389591D01*
X59757333Y-87389591D02*
X59753866Y-87404912D01*
X59753866Y-87404912D02*
X59750266Y-87420202D01*
X59750266Y-87420202D02*
X59746532Y-87435459D01*
X59746532Y-87435459D02*
X59742666Y-87450684D01*
X59742666Y-87450684D02*
X59738666Y-87465874D01*
X59738666Y-87465874D02*
X59734535Y-87481029D01*
X59734535Y-87481029D02*
X59730271Y-87496147D01*
X59730271Y-87496147D02*
X59725876Y-87511228D01*
X59725876Y-87511228D02*
X59721349Y-87526269D01*
X59721349Y-87526269D02*
X59716691Y-87541270D01*
X59716691Y-87541270D02*
X59716624Y-87541481D01*
X59645998Y-87728486D02*
X59639578Y-87742822D01*
X59639578Y-87742822D02*
X59633033Y-87757102D01*
X59633033Y-87757102D02*
X59626364Y-87771324D01*
X59626364Y-87771324D02*
X59619571Y-87785487D01*
X59619571Y-87785487D02*
X59612655Y-87799590D01*
X59612655Y-87799590D02*
X59605616Y-87813633D01*
X59605616Y-87813633D02*
X59598454Y-87827613D01*
X59598454Y-87827613D02*
X59591171Y-87841531D01*
X59591171Y-87841531D02*
X59583767Y-87855384D01*
X59583767Y-87855384D02*
X59576242Y-87869172D01*
X59576242Y-87869172D02*
X59568597Y-87882894D01*
X59568597Y-87882894D02*
X59560833Y-87896549D01*
X59560833Y-87896549D02*
X59552950Y-87910136D01*
X59552950Y-87910136D02*
X59544948Y-87923653D01*
X59544948Y-87923653D02*
X59536829Y-87937100D01*
X59536829Y-87937100D02*
X59528593Y-87950475D01*
X59528593Y-87950475D02*
X59520241Y-87963778D01*
X59520241Y-87963778D02*
X59511772Y-87977008D01*
X59511772Y-87977008D02*
X59503189Y-87990163D01*
X59503189Y-87990163D02*
X59494491Y-88003243D01*
X59494491Y-88003243D02*
X59485679Y-88016247D01*
X59485679Y-88016247D02*
X59476754Y-88029173D01*
X59476754Y-88029173D02*
X59467717Y-88042021D01*
X59467717Y-88042021D02*
X59458568Y-88054789D01*
X59458568Y-88054789D02*
X59449308Y-88067477D01*
X59449308Y-88067477D02*
X59439937Y-88080084D01*
X59439937Y-88080084D02*
X59430457Y-88092609D01*
X59430457Y-88092609D02*
X59420868Y-88105050D01*
X59420868Y-88105050D02*
X59411170Y-88117407D01*
X59411170Y-88117407D02*
X59401365Y-88129679D01*
X59401365Y-88129679D02*
X59391454Y-88141865D01*
X59391454Y-88141865D02*
X59381436Y-88153964D01*
X59381436Y-88153964D02*
X59371314Y-88165976D01*
X59371314Y-88165976D02*
X59361087Y-88177898D01*
X59361087Y-88177898D02*
X59350756Y-88189731D01*
X59350756Y-88189731D02*
X59350609Y-88189897D01*
X59210342Y-88332318D02*
X59198669Y-88342830D01*
X59198669Y-88342830D02*
X59186906Y-88353239D01*
X59186906Y-88353239D02*
X59175051Y-88363545D01*
X59175051Y-88363545D02*
X59163107Y-88373747D01*
X59163107Y-88373747D02*
X59151075Y-88383845D01*
X59151075Y-88383845D02*
X59138955Y-88393837D01*
X59138955Y-88393837D02*
X59126748Y-88403723D01*
X59126748Y-88403723D02*
X59114456Y-88413502D01*
X59114456Y-88413502D02*
X59102078Y-88423174D01*
X59102078Y-88423174D02*
X59089617Y-88432737D01*
X59089617Y-88432737D02*
X59077073Y-88442191D01*
X59077073Y-88442191D02*
X59064446Y-88451535D01*
X59064446Y-88451535D02*
X59051739Y-88460769D01*
X59051739Y-88460769D02*
X59038952Y-88469891D01*
X59038952Y-88469891D02*
X59026085Y-88478902D01*
X59026085Y-88478902D02*
X59013140Y-88487799D01*
X59013140Y-88487799D02*
X59000118Y-88496584D01*
X59000118Y-88496584D02*
X58987020Y-88505254D01*
X58987020Y-88505254D02*
X58973847Y-88513810D01*
X58973847Y-88513810D02*
X58960600Y-88522251D01*
X58960600Y-88522251D02*
X58947279Y-88530576D01*
X58947279Y-88530576D02*
X58933886Y-88538784D01*
X58933886Y-88538784D02*
X58920423Y-88546875D01*
X58920423Y-88546875D02*
X58906889Y-88554848D01*
X58906889Y-88554848D02*
X58893286Y-88562703D01*
X58893286Y-88562703D02*
X58879615Y-88570439D01*
X58879615Y-88570439D02*
X58865877Y-88578055D01*
X58865877Y-88578055D02*
X58852073Y-88585551D01*
X58852073Y-88585551D02*
X58838204Y-88592926D01*
X58838204Y-88592926D02*
X58824271Y-88600180D01*
X58824271Y-88600180D02*
X58810276Y-88607312D01*
X58810276Y-88607312D02*
X58796219Y-88614322D01*
X58796219Y-88614322D02*
X58782101Y-88621209D01*
X58782101Y-88621209D02*
X58767924Y-88627972D01*
X58767924Y-88627972D02*
X58753688Y-88634611D01*
X58753688Y-88634611D02*
X58753487Y-88634704D01*
X58567580Y-88708172D02*
X58552652Y-88713060D01*
X58552652Y-88713060D02*
X58537682Y-88717818D01*
X58537682Y-88717818D02*
X58522671Y-88722444D01*
X58522671Y-88722444D02*
X58507620Y-88726940D01*
X58507620Y-88726940D02*
X58492531Y-88731304D01*
X58492531Y-88731304D02*
X58477404Y-88735536D01*
X58477404Y-88735536D02*
X58462240Y-88739636D01*
X58462240Y-88739636D02*
X58447042Y-88743604D01*
X58447042Y-88743604D02*
X58431809Y-88747438D01*
X58431809Y-88747438D02*
X58416543Y-88751140D01*
X58416543Y-88751140D02*
X58401246Y-88754708D01*
X58401246Y-88754708D02*
X58385918Y-88758143D01*
X58385918Y-88758143D02*
X58370561Y-88761444D01*
X58370561Y-88761444D02*
X58355176Y-88764610D01*
X58355176Y-88764610D02*
X58339763Y-88767643D01*
X58339763Y-88767643D02*
X58324325Y-88770540D01*
X58324325Y-88770540D02*
X58308862Y-88773303D01*
X58308862Y-88773303D02*
X58293375Y-88775931D01*
X58293375Y-88775931D02*
X58277866Y-88778424D01*
X58277866Y-88778424D02*
X58262336Y-88780781D01*
X58262336Y-88780781D02*
X58246786Y-88783002D01*
X58246786Y-88783002D02*
X58231218Y-88785088D01*
X58231218Y-88785088D02*
X58215631Y-88787038D01*
X58215631Y-88787038D02*
X58200028Y-88788851D01*
X58200028Y-88788851D02*
X58184410Y-88790529D01*
X58184410Y-88790529D02*
X58168778Y-88792070D01*
X58168778Y-88792070D02*
X58153133Y-88793474D01*
X58153133Y-88793474D02*
X58137476Y-88794742D01*
X58137476Y-88794742D02*
X58121809Y-88795874D01*
X58121809Y-88795874D02*
X58106133Y-88796868D01*
X58106133Y-88796868D02*
X58090448Y-88797726D01*
X58090448Y-88797726D02*
X58074757Y-88798447D01*
X58074757Y-88798447D02*
X58059060Y-88799031D01*
X58059060Y-88799031D02*
X58043358Y-88799478D01*
X58043358Y-88799478D02*
X58027654Y-88799788D01*
X58027654Y-88799788D02*
X58027432Y-88799791D01*
X57827698Y-88791734D02*
X57812069Y-88790162D01*
X57812069Y-88790162D02*
X57796454Y-88788454D01*
X57796454Y-88788454D02*
X57780855Y-88786610D01*
X57780855Y-88786610D02*
X57765272Y-88784630D01*
X57765272Y-88784630D02*
X57749707Y-88782513D01*
X57749707Y-88782513D02*
X57734162Y-88780261D01*
X57734162Y-88780261D02*
X57718636Y-88777874D01*
X57718636Y-88777874D02*
X57703132Y-88775351D01*
X57703132Y-88775351D02*
X57687651Y-88772692D01*
X57687651Y-88772692D02*
X57672193Y-88769899D01*
X57672193Y-88769899D02*
X57656761Y-88766971D01*
X57656761Y-88766971D02*
X57641354Y-88763909D01*
X57641354Y-88763909D02*
X57625975Y-88760712D01*
X57625975Y-88760712D02*
X57610624Y-88757381D01*
X57610624Y-88757381D02*
X57595303Y-88753916D01*
X57595303Y-88753916D02*
X57580013Y-88750317D01*
X57580013Y-88750317D02*
X57564755Y-88746586D01*
X57564755Y-88746586D02*
X57549530Y-88742721D01*
X57549530Y-88742721D02*
X57534339Y-88738724D01*
X57534339Y-88738724D02*
X57519184Y-88734594D01*
X57519184Y-88734594D02*
X57504065Y-88730332D01*
X57504065Y-88730332D02*
X57488984Y-88725938D01*
X57488984Y-88725938D02*
X57473942Y-88721413D01*
X57473942Y-88721413D02*
X57458940Y-88716757D01*
X57458940Y-88716757D02*
X57443980Y-88711970D01*
X57443980Y-88711970D02*
X57429061Y-88707053D01*
X57429061Y-88707053D02*
X57414186Y-88702005D01*
X57414186Y-88702005D02*
X57399356Y-88696828D01*
X57399356Y-88696828D02*
X57384571Y-88691522D01*
X57384571Y-88691522D02*
X57369834Y-88686087D01*
X57369834Y-88686087D02*
X57355144Y-88680524D01*
X57355144Y-88680524D02*
X57340503Y-88674833D01*
X57340503Y-88674833D02*
X57325913Y-88669014D01*
X57325913Y-88669014D02*
X57311374Y-88663068D01*
X57311374Y-88663068D02*
X57296887Y-88656995D01*
X57296887Y-88656995D02*
X57296684Y-88656909D01*
X57117298Y-88568706D02*
X57103643Y-88560943D01*
X57103643Y-88560943D02*
X57090055Y-88553062D01*
X57090055Y-88553062D02*
X57076537Y-88545062D01*
X57076537Y-88545062D02*
X57063089Y-88536944D01*
X57063089Y-88536944D02*
X57049712Y-88528710D01*
X57049712Y-88528710D02*
X57036408Y-88520359D01*
X57036408Y-88520359D02*
X57023178Y-88511892D01*
X57023178Y-88511892D02*
X57010021Y-88503310D01*
X57010021Y-88503310D02*
X56996940Y-88494614D01*
X56996940Y-88494614D02*
X56983936Y-88485804D01*
X56983936Y-88485804D02*
X56971008Y-88476881D01*
X56971008Y-88476881D02*
X56958159Y-88467845D01*
X56958159Y-88467845D02*
X56945390Y-88458697D01*
X56945390Y-88458697D02*
X56932701Y-88449439D01*
X56932701Y-88449439D02*
X56920093Y-88440070D01*
X56920093Y-88440070D02*
X56907567Y-88430591D01*
X56907567Y-88430591D02*
X56895125Y-88421003D01*
X56895125Y-88421003D02*
X56882766Y-88411307D01*
X56882766Y-88411307D02*
X56870493Y-88401504D01*
X56870493Y-88401504D02*
X56858306Y-88391594D01*
X56858306Y-88391594D02*
X56846205Y-88381578D01*
X56846205Y-88381578D02*
X56834193Y-88371457D01*
X56834193Y-88371457D02*
X56822269Y-88361231D01*
X56822269Y-88361231D02*
X56810435Y-88350902D01*
X56810435Y-88350902D02*
X56798692Y-88340470D01*
X56798692Y-88340470D02*
X56787040Y-88329935D01*
X56787040Y-88329935D02*
X56775480Y-88319300D01*
X56775480Y-88319300D02*
X56764014Y-88308564D01*
X56764014Y-88308564D02*
X56752642Y-88297728D01*
X56752642Y-88297728D02*
X56741365Y-88286793D01*
X56741365Y-88286793D02*
X56730183Y-88275761D01*
X56730183Y-88275761D02*
X56719099Y-88264631D01*
X56719099Y-88264631D02*
X56708112Y-88253405D01*
X56708112Y-88253405D02*
X56697223Y-88242084D01*
X56697223Y-88242084D02*
X56686434Y-88230668D01*
X56686434Y-88230668D02*
X56686282Y-88230506D01*
X56557941Y-88077250D02*
X56548596Y-88064625D01*
X56548596Y-88064625D02*
X56539361Y-88051918D01*
X56539361Y-88051918D02*
X56530237Y-88039132D01*
X56530237Y-88039132D02*
X56521224Y-88026267D01*
X56521224Y-88026267D02*
X56512325Y-88013323D01*
X56512325Y-88013323D02*
X56503539Y-88000302D01*
X56503539Y-88000302D02*
X56494867Y-87987205D01*
X56494867Y-87987205D02*
X56486309Y-87974033D01*
X56486309Y-87974033D02*
X56477867Y-87960786D01*
X56477867Y-87960786D02*
X56469540Y-87947467D01*
X56469540Y-87947467D02*
X56461331Y-87934075D01*
X56461331Y-87934075D02*
X56453238Y-87920612D01*
X56453238Y-87920612D02*
X56445263Y-87907079D01*
X56445263Y-87907079D02*
X56437407Y-87893477D01*
X56437407Y-87893477D02*
X56429669Y-87879807D01*
X56429669Y-87879807D02*
X56422051Y-87866070D01*
X56422051Y-87866070D02*
X56414554Y-87852267D01*
X56414554Y-87852267D02*
X56407177Y-87838399D01*
X56407177Y-87838399D02*
X56399921Y-87824468D01*
X56399921Y-87824468D02*
X56392787Y-87810473D01*
X56392787Y-87810473D02*
X56385776Y-87796417D01*
X56385776Y-87796417D02*
X56378887Y-87782300D01*
X56378887Y-87782300D02*
X56372122Y-87768124D01*
X56372122Y-87768124D02*
X56365481Y-87753889D01*
X56365481Y-87753889D02*
X56358964Y-87739596D01*
X56358964Y-87739596D02*
X56352573Y-87725247D01*
X56352573Y-87725247D02*
X56346307Y-87710843D01*
X56346307Y-87710843D02*
X56340166Y-87696385D01*
X56340166Y-87696385D02*
X56334153Y-87681874D01*
X56334153Y-87681874D02*
X56328266Y-87667311D01*
X56328266Y-87667311D02*
X56322506Y-87652697D01*
X56322506Y-87652697D02*
X56316874Y-87638034D01*
X56316874Y-87638034D02*
X56311370Y-87623322D01*
X56311370Y-87623322D02*
X56305995Y-87608562D01*
X56305995Y-87608562D02*
X56300749Y-87593756D01*
X56300749Y-87593756D02*
X56300676Y-87593547D01*
X56245341Y-87401462D02*
X56241904Y-87386134D01*
X56241904Y-87386134D02*
X56238602Y-87370777D01*
X56238602Y-87370777D02*
X56235433Y-87355392D01*
X56235433Y-87355392D02*
X56232399Y-87339980D01*
X56232399Y-87339980D02*
X56229499Y-87324542D01*
X56229499Y-87324542D02*
X56226735Y-87309080D01*
X56226735Y-87309080D02*
X56224105Y-87293593D01*
X56224105Y-87293593D02*
X56221611Y-87278085D01*
X56221611Y-87278085D02*
X56219252Y-87262555D01*
X56219252Y-87262555D02*
X56217028Y-87247005D01*
X56217028Y-87247005D02*
X56214941Y-87231437D01*
X56214941Y-87231437D02*
X56212989Y-87215851D01*
X56212989Y-87215851D02*
X56211173Y-87200248D01*
X56211173Y-87200248D02*
X56209494Y-87184630D01*
X56209494Y-87184630D02*
X56207951Y-87168998D01*
X56207951Y-87168998D02*
X56206544Y-87153353D01*
X56206544Y-87153353D02*
X56205275Y-87137697D01*
X56205275Y-87137697D02*
X56204141Y-87122030D01*
X56204141Y-87122030D02*
X56203145Y-87106353D01*
X56203145Y-87106353D02*
X56202285Y-87090669D01*
X56202285Y-87090669D02*
X56201562Y-87074978D01*
X56201562Y-87074978D02*
X56200976Y-87059281D01*
X56200976Y-87059281D02*
X56200528Y-87043579D01*
X56200528Y-87043579D02*
X56200216Y-87027875D01*
X56200216Y-87027875D02*
X56200041Y-87012168D01*
X56200041Y-87012168D02*
X56200003Y-86996460D01*
X56200003Y-86996460D02*
X56200103Y-86980752D01*
X56200103Y-86980752D02*
X56200339Y-86965046D01*
X56200339Y-86965046D02*
X56200713Y-86949343D01*
X56200713Y-86949343D02*
X56201224Y-86933643D01*
X56201224Y-86933643D02*
X56201871Y-86917948D01*
X56201871Y-86917948D02*
X56202656Y-86902260D01*
X56202656Y-86902260D02*
X56203577Y-86886579D01*
X56203577Y-86886579D02*
X56204635Y-86870907D01*
X56204635Y-86870907D02*
X56205830Y-86855245D01*
X56205830Y-86855245D02*
X56205848Y-86855024D01*
X56232987Y-86656978D02*
X56236047Y-86641571D01*
X56236047Y-86641571D02*
X56239242Y-86626191D01*
X56239242Y-86626191D02*
X56242572Y-86610840D01*
X56242572Y-86610840D02*
X56246035Y-86595519D01*
X56246035Y-86595519D02*
X56249631Y-86580228D01*
X56249631Y-86580228D02*
X56253361Y-86564969D01*
X56253361Y-86564969D02*
X56257224Y-86549744D01*
X56257224Y-86549744D02*
X56261219Y-86534553D01*
X56261219Y-86534553D02*
X56265347Y-86519397D01*
X56265347Y-86519397D02*
X56269607Y-86504278D01*
X56269607Y-86504278D02*
X56273999Y-86489196D01*
X56273999Y-86489196D02*
X56278522Y-86474154D01*
X56278522Y-86474154D02*
X56283177Y-86459151D01*
X56283177Y-86459151D02*
X56287962Y-86444190D01*
X56287962Y-86444190D02*
X56292877Y-86429271D01*
X56292877Y-86429271D02*
X56297923Y-86414395D01*
X56297923Y-86414395D02*
X56303098Y-86399564D01*
X56303098Y-86399564D02*
X56308402Y-86384779D01*
X56308402Y-86384779D02*
X56313835Y-86370041D01*
X56313835Y-86370041D02*
X56319397Y-86355350D01*
X56319397Y-86355350D02*
X56325086Y-86340709D01*
X56325086Y-86340709D02*
X56330904Y-86326118D01*
X56330904Y-86326118D02*
X56336848Y-86311578D01*
X56336848Y-86311578D02*
X56342919Y-86297091D01*
X56342919Y-86297091D02*
X56349116Y-86282657D01*
X56349116Y-86282657D02*
X56355438Y-86268278D01*
X56355438Y-86268278D02*
X56361886Y-86253954D01*
X56361886Y-86253954D02*
X56368459Y-86239688D01*
X56368459Y-86239688D02*
X56375156Y-86225479D01*
X56375156Y-86225479D02*
X56381977Y-86211329D01*
X56381977Y-86211329D02*
X56388921Y-86197239D01*
X56388921Y-86197239D02*
X56395988Y-86183211D01*
X56395988Y-86183211D02*
X56403176Y-86169245D01*
X56403176Y-86169245D02*
X56410487Y-86155341D01*
X56410487Y-86155341D02*
X56417918Y-86141503D01*
X56417918Y-86141503D02*
X56418024Y-86141308D01*
X56522993Y-85971190D02*
X56532027Y-85958340D01*
X56532027Y-85958340D02*
X56541173Y-85945569D01*
X56541173Y-85945569D02*
X56550430Y-85932879D01*
X56550430Y-85932879D02*
X56559798Y-85920270D01*
X56559798Y-85920270D02*
X56569275Y-85907743D01*
X56569275Y-85907743D02*
X56578861Y-85895299D01*
X56578861Y-85895299D02*
X56588555Y-85882939D01*
X56588555Y-85882939D02*
X56598357Y-85870665D01*
X56598357Y-85870665D02*
X56608266Y-85858476D01*
X56608266Y-85858476D02*
X56618280Y-85846375D01*
X56618280Y-85846375D02*
X56628400Y-85834361D01*
X56628400Y-85834361D02*
X56638624Y-85822436D01*
X56638624Y-85822436D02*
X56648952Y-85810601D01*
X56648952Y-85810601D02*
X56659383Y-85798856D01*
X56659383Y-85798856D02*
X56669916Y-85787203D01*
X56669916Y-85787203D02*
X56680550Y-85775642D01*
X56680550Y-85775642D02*
X56691285Y-85764175D01*
X56691285Y-85764175D02*
X56702119Y-85752801D01*
X56702119Y-85752801D02*
X56713052Y-85741523D01*
X56713052Y-85741523D02*
X56724083Y-85730340D01*
X56724083Y-85730340D02*
X56735212Y-85719254D01*
X56735212Y-85719254D02*
X56746436Y-85708266D01*
X56746436Y-85708266D02*
X56757756Y-85697375D01*
X56757756Y-85697375D02*
X56769171Y-85686585D01*
X56769171Y-85686585D02*
X56780679Y-85675894D01*
X56780679Y-85675894D02*
X56792281Y-85665304D01*
X56792281Y-85665304D02*
X56803974Y-85654815D01*
X56803974Y-85654815D02*
X56815758Y-85644429D01*
X56815758Y-85644429D02*
X56827633Y-85634147D01*
X56827633Y-85634147D02*
X56839597Y-85623968D01*
X56839597Y-85623968D02*
X56851649Y-85613894D01*
X56851649Y-85613894D02*
X56863788Y-85603926D01*
X56863788Y-85603926D02*
X56876015Y-85594064D01*
X56876015Y-85594064D02*
X56888326Y-85584309D01*
X56888326Y-85584309D02*
X56900723Y-85574662D01*
X56900723Y-85574662D02*
X56900898Y-85574526D01*
X57065736Y-85461445D02*
X57079198Y-85453351D01*
X57079198Y-85453351D02*
X57092730Y-85445374D01*
X57092730Y-85445374D02*
X57106331Y-85437516D01*
X57106331Y-85437516D02*
X57120000Y-85429777D01*
X57120000Y-85429777D02*
X57133736Y-85422158D01*
X57133736Y-85422158D02*
X57147538Y-85414658D01*
X57147538Y-85414658D02*
X57161405Y-85407280D01*
X57161405Y-85407280D02*
X57175336Y-85400022D01*
X57175336Y-85400022D02*
X57189330Y-85392887D01*
X57189330Y-85392887D02*
X57203385Y-85385873D01*
X57203385Y-85385873D02*
X57217501Y-85378983D01*
X57217501Y-85378983D02*
X57231677Y-85372216D01*
X57231677Y-85372216D02*
X57245911Y-85365574D01*
X57245911Y-85365574D02*
X57260202Y-85359055D01*
X57260202Y-85359055D02*
X57274550Y-85352662D01*
X57274550Y-85352662D02*
X57288953Y-85346394D01*
X57288953Y-85346394D02*
X57303411Y-85340252D01*
X57303411Y-85340252D02*
X57317921Y-85334236D01*
X57317921Y-85334236D02*
X57332484Y-85328348D01*
X57332484Y-85328348D02*
X57347097Y-85322586D01*
X57347097Y-85322586D02*
X57361760Y-85316952D01*
X57361760Y-85316952D02*
X57376471Y-85311447D01*
X57376471Y-85311447D02*
X57391230Y-85306070D01*
X57391230Y-85306070D02*
X57406035Y-85300822D01*
X57406035Y-85300822D02*
X57420886Y-85295703D01*
X57420886Y-85295703D02*
X57435781Y-85290715D01*
X57435781Y-85290715D02*
X57450718Y-85285856D01*
X57450718Y-85285856D02*
X57465698Y-85281128D01*
X57465698Y-85281128D02*
X57480718Y-85276531D01*
X57480718Y-85276531D02*
X57495777Y-85272065D01*
X57495777Y-85272065D02*
X57510875Y-85267731D01*
X57510875Y-85267731D02*
X57526011Y-85263528D01*
X57526011Y-85263528D02*
X57541182Y-85259458D01*
X57541182Y-85259458D02*
X57556389Y-85255520D01*
X57556389Y-85255520D02*
X57571629Y-85251716D01*
X57571629Y-85251716D02*
X57571844Y-85251663D01*
X57768344Y-85214969D02*
X57783930Y-85213015D01*
X57783930Y-85213015D02*
X57799533Y-85211198D01*
X57799533Y-85211198D02*
X57815150Y-85209517D01*
X57815150Y-85209517D02*
X57830782Y-85207972D01*
X57830782Y-85207972D02*
X57846427Y-85206563D01*
X57846427Y-85206563D02*
X57862083Y-85205291D01*
X57862083Y-85205291D02*
X57877750Y-85204156D01*
X57877750Y-85204156D02*
X57893426Y-85203158D01*
X57893426Y-85203158D02*
X57909110Y-85202296D01*
X57909110Y-85202296D02*
X57924801Y-85201571D01*
X57924801Y-85201571D02*
X57940498Y-85200984D01*
X57940498Y-85200984D02*
X57956200Y-85200533D01*
X57956200Y-85200533D02*
X57971904Y-85200219D01*
X57971904Y-85200219D02*
X57987611Y-85200043D01*
X57987611Y-85200043D02*
X58003319Y-85200003D01*
X58003319Y-85200003D02*
X58019027Y-85200101D01*
X58019027Y-85200101D02*
X58034733Y-85200335D01*
X58034733Y-85200335D02*
X58050437Y-85200707D01*
X58050437Y-85200707D02*
X58066136Y-85201215D01*
X58066136Y-85201215D02*
X58081831Y-85201861D01*
X58081831Y-85201861D02*
X58097519Y-85202644D01*
X58097519Y-85202644D02*
X58113200Y-85203563D01*
X58113200Y-85203563D02*
X58128873Y-85204619D01*
X58128873Y-85204619D02*
X58144535Y-85205812D01*
X58144535Y-85205812D02*
X58160187Y-85207142D01*
X58160187Y-85207142D02*
X58175826Y-85208608D01*
X58175826Y-85208608D02*
X58191452Y-85210211D01*
X58191452Y-85210211D02*
X58207063Y-85211949D01*
X58207063Y-85211949D02*
X58222659Y-85213824D01*
X58222659Y-85213824D02*
X58238238Y-85215836D01*
X58238238Y-85215836D02*
X58253798Y-85217982D01*
X58253798Y-85217982D02*
X58269339Y-85220265D01*
X58269339Y-85220265D02*
X58284860Y-85222683D01*
X58284860Y-85222683D02*
X58300359Y-85225237D01*
X58300359Y-85225237D02*
X58315835Y-85227925D01*
X58315835Y-85227925D02*
X58316053Y-85227964D01*
X58510592Y-85273936D02*
X58525635Y-85278458D01*
X58525635Y-85278458D02*
X58540638Y-85283110D01*
X58540638Y-85283110D02*
X58555600Y-85287894D01*
X58555600Y-85287894D02*
X58570520Y-85292807D01*
X58570520Y-85292807D02*
X58585396Y-85297851D01*
X58585396Y-85297851D02*
X58600227Y-85303024D01*
X58600227Y-85303024D02*
X58615013Y-85308327D01*
X58615013Y-85308327D02*
X58629752Y-85313758D01*
X58629752Y-85313758D02*
X58644443Y-85319318D01*
X58644443Y-85319318D02*
X58659085Y-85325006D01*
X58659085Y-85325006D02*
X58673677Y-85330821D01*
X58673677Y-85330821D02*
X58688218Y-85336763D01*
X58688218Y-85336763D02*
X58702706Y-85342832D01*
X58702706Y-85342832D02*
X58717140Y-85349028D01*
X58717140Y-85349028D02*
X58731520Y-85355349D01*
X58731520Y-85355349D02*
X58745845Y-85361795D01*
X58745845Y-85361795D02*
X58760112Y-85368366D01*
X58760112Y-85368366D02*
X58774322Y-85375061D01*
X58774322Y-85375061D02*
X58788472Y-85381880D01*
X58788472Y-85381880D02*
X58802563Y-85388822D01*
X58802563Y-85388822D02*
X58816592Y-85395887D01*
X58816592Y-85395887D02*
X58830559Y-85403074D01*
X58830559Y-85403074D02*
X58844463Y-85410383D01*
X58844463Y-85410383D02*
X58858303Y-85417813D01*
X58858303Y-85417813D02*
X58872077Y-85425363D01*
X58872077Y-85425363D02*
X58885785Y-85433033D01*
X58885785Y-85433033D02*
X58899426Y-85440823D01*
X58899426Y-85440823D02*
X58912998Y-85448731D01*
X58912998Y-85448731D02*
X58926500Y-85456758D01*
X58926500Y-85456758D02*
X58939932Y-85464901D01*
X58939932Y-85464901D02*
X58953292Y-85473162D01*
X58953292Y-85473162D02*
X58966580Y-85481539D01*
X58966580Y-85481539D02*
X58979794Y-85490032D01*
X58979794Y-85490032D02*
X58992934Y-85498640D01*
X58992934Y-85498640D02*
X59005998Y-85507362D01*
X59005998Y-85507362D02*
X59006181Y-85507485D01*
X59165470Y-85628257D02*
X59177397Y-85638480D01*
X59177397Y-85638480D02*
X59189233Y-85648806D01*
X59189233Y-85648806D02*
X59200979Y-85659236D01*
X59200979Y-85659236D02*
X59212634Y-85669767D01*
X59212634Y-85669767D02*
X59224196Y-85680400D01*
X59224196Y-85680400D02*
X59235665Y-85691133D01*
X59235665Y-85691133D02*
X59247039Y-85701966D01*
X59247039Y-85701966D02*
X59258319Y-85712898D01*
X59258319Y-85712898D02*
X59269503Y-85723927D01*
X59269503Y-85723927D02*
X59280591Y-85735054D01*
X59280591Y-85735054D02*
X59291581Y-85746278D01*
X59291581Y-85746278D02*
X59302472Y-85757596D01*
X59302472Y-85757596D02*
X59313264Y-85769010D01*
X59313264Y-85769010D02*
X59323957Y-85780517D01*
X59323957Y-85780517D02*
X59334548Y-85792117D01*
X59334548Y-85792117D02*
X59345038Y-85803809D01*
X59345038Y-85803809D02*
X59355425Y-85815592D01*
X59355425Y-85815592D02*
X59365709Y-85827465D01*
X59365709Y-85827465D02*
X59375890Y-85839428D01*
X59375890Y-85839428D02*
X59385965Y-85851479D01*
X59385965Y-85851479D02*
X59395935Y-85863617D01*
X59395935Y-85863617D02*
X59405798Y-85875842D01*
X59405798Y-85875842D02*
X59415555Y-85888153D01*
X59415555Y-85888153D02*
X59425203Y-85900548D01*
X59425203Y-85900548D02*
X59434744Y-85913027D01*
X59434744Y-85913027D02*
X59444174Y-85925588D01*
X59444174Y-85925588D02*
X59453495Y-85938232D01*
X59453495Y-85938232D02*
X59462706Y-85950956D01*
X59462706Y-85950956D02*
X59471804Y-85963761D01*
X59471804Y-85963761D02*
X59480791Y-85976644D01*
X59480791Y-85976644D02*
X59489665Y-85989605D01*
X59489665Y-85989605D02*
X59498426Y-86002643D01*
X59498426Y-86002643D02*
X59507072Y-86015757D01*
X59507072Y-86015757D02*
X59515604Y-86028946D01*
X59515604Y-86028946D02*
X59524020Y-86042209D01*
X59524020Y-86042209D02*
X59524138Y-86042397D01*
X59620921Y-86217302D02*
X59627689Y-86231477D01*
X59627689Y-86231477D02*
X59634334Y-86245710D01*
X59634334Y-86245710D02*
X59640854Y-86260001D01*
X59640854Y-86260001D02*
X59647249Y-86274348D01*
X59647249Y-86274348D02*
X59653519Y-86288750D01*
X59653519Y-86288750D02*
X59659662Y-86303207D01*
X59659662Y-86303207D02*
X59665680Y-86317717D01*
X59665680Y-86317717D02*
X59671570Y-86332278D01*
X59671570Y-86332278D02*
X59677334Y-86346891D01*
X59677334Y-86346891D02*
X59682969Y-86361553D01*
X59682969Y-86361553D02*
X59688477Y-86376264D01*
X59688477Y-86376264D02*
X59693855Y-86391022D01*
X59693855Y-86391022D02*
X59699105Y-86405827D01*
X59699105Y-86405827D02*
X59704225Y-86420677D01*
X59704225Y-86420677D02*
X59709216Y-86435571D01*
X59709216Y-86435571D02*
X59714076Y-86450508D01*
X59714076Y-86450508D02*
X59718806Y-86465487D01*
X59718806Y-86465487D02*
X59723405Y-86480506D01*
X59723405Y-86480506D02*
X59727873Y-86495565D01*
X59727873Y-86495565D02*
X59732209Y-86510663D01*
X59732209Y-86510663D02*
X59736414Y-86525798D01*
X59736414Y-86525798D02*
X59740486Y-86540969D01*
X59740486Y-86540969D02*
X59744425Y-86556174D01*
X59744425Y-86556174D02*
X59748232Y-86571414D01*
X59748232Y-86571414D02*
X59751905Y-86586686D01*
X59751905Y-86586686D02*
X59755445Y-86601990D01*
X59755445Y-86601990D02*
X59758852Y-86617324D01*
X59758852Y-86617324D02*
X59762124Y-86632688D01*
X59762124Y-86632688D02*
X59765262Y-86648079D01*
X59765262Y-86648079D02*
X59768266Y-86663497D01*
X59768266Y-86663497D02*
X59771135Y-86678941D01*
X59771135Y-86678941D02*
X59773870Y-86694409D01*
X59773870Y-86694409D02*
X59776469Y-86709900D01*
X59776469Y-86709900D02*
X59778933Y-86725413D01*
X59778933Y-86725413D02*
X59781261Y-86740948D01*
X59781261Y-86740948D02*
X59781293Y-86741167D01*
X59799009Y-86940277D02*
X59799462Y-86955979D01*
X59799462Y-86955979D02*
X59799777Y-86971684D01*
X59799777Y-86971684D02*
X59799956Y-86987390D01*
X59799956Y-86987390D02*
X59800000Y-87000000D01*
G04 #@! TD*
M02*
