%TF.GenerationSoftware,KiCad,Pcbnew,10.0.6-10.0.6~ubuntu22.04.1*%
%TF.CreationDate,2026-09-16T01:11:56+07:00*%
%TF.ProjectId,esp32-e220,65737033-322d-4653-9232-302e6b696361,rev?*%
%TF.SameCoordinates,Original*%
%TF.FileFunction,Paste,Top*%
%TF.FilePolarity,Positive*%
%FSLAX46Y46*%
G04 Gerber Fmt 4.6, Leading zero omitted, Abs format (unit mm)*
G04 Created by KiCad (PCBNEW 10.0.6-10.0.6~ubuntu22.04.1) date 2026-09-16 01:11:56*
%MOMM*%
%LPD*%
G01*
G04 APERTURE LIST*
G04 Aperture macros list*
%AMRoundRect*
0 Rectangle with rounded corners*
0 $1 Rounding radius*
0 $2 $3 $4 $5 $6 $7 $8 $9 X,Y pos of 4 corners*
0 Add a 4 corners polygon primitive as box body*
4,1,4,$2,$3,$4,$5,$6,$7,$8,$9,$2,$3,0*
0 Add four circle primitives for the rounded corners*
1,1,$1+$1,$2,$3*
1,1,$1+$1,$4,$5*
1,1,$1+$1,$6,$7*
1,1,$1+$1,$8,$9*
0 Add four rect primitives between the rounded corners*
20,1,$1+$1,$2,$3,$4,$5,0*
20,1,$1+$1,$4,$5,$6,$7,0*
20,1,$1+$1,$6,$7,$8,$9,0*
20,1,$1+$1,$8,$9,$2,$3,0*%
G04 Aperture macros list end*
%ADD10RoundRect,0.190000X-0.285000X-0.310000X0.285000X-0.310000X0.285000X0.310000X-0.285000X0.310000X0*%
%ADD11RoundRect,0.050000X-0.250000X-0.500000X0.250000X-0.500000X0.250000X0.500000X-0.250000X0.500000X0*%
%ADD12RoundRect,0.356000X-0.534000X-1.219000X0.534000X-1.219000X0.534000X1.219000X-0.534000X1.219000X0*%
%ADD13RoundRect,0.230000X-0.470000X0.345000X-0.470000X-0.345000X0.470000X-0.345000X0.470000X0.345000X0*%
%ADD14RoundRect,0.190000X0.285000X0.310000X-0.285000X0.310000X-0.285000X-0.310000X0.285000X-0.310000X0*%
%ADD15RoundRect,0.190000X0.310000X-0.285000X0.310000X0.285000X-0.310000X0.285000X-0.310000X-0.285000X0*%
%ADD16RoundRect,0.230000X0.345000X0.470000X-0.345000X0.470000X-0.345000X-0.470000X0.345000X-0.470000X0*%
%ADD17R,1.550000X1.550000*%
%ADD18R,0.600000X0.240000*%
%ADD19R,0.240000X0.600000*%
%ADD20RoundRect,0.190000X-0.310000X0.285000X-0.310000X-0.285000X0.310000X-0.285000X0.310000X0.285000X0*%
%ADD21R,2.000000X1.500000*%
%ADD22R,2.000000X3.800000*%
%ADD23R,3.400000X0.980000*%
%ADD24RoundRect,0.460000X0.790000X0.690000X-0.790000X0.690000X-0.790000X-0.690000X0.790000X-0.690000X0*%
%ADD25R,0.800000X0.900000*%
%ADD26RoundRect,0.230000X-0.345000X-0.470000X0.345000X-0.470000X0.345000X0.470000X-0.345000X0.470000X0*%
G04 APERTURE END LIST*
D10*
%TO.C,C6*%
X20580000Y-49750000D03*
X22030000Y-49750000D03*
%TD*%
D11*
%TO.C,U3*%
X88050000Y-55300000D03*
X89000000Y-55300000D03*
X89950000Y-55300000D03*
X89950000Y-52700000D03*
X88050000Y-52700000D03*
%TD*%
D10*
%TO.C,C5*%
X23275000Y-48000000D03*
X24725000Y-48000000D03*
%TD*%
D12*
%TO.C,F1*%
X41635000Y-76000000D03*
X46865000Y-76000000D03*
%TD*%
D10*
%TO.C,R8*%
X39275000Y-35000000D03*
X40725000Y-35000000D03*
%TD*%
D13*
%TO.C,C9*%
X17500000Y-32000000D03*
X17500000Y-34000000D03*
%TD*%
D14*
%TO.C,C2*%
X66725000Y-56000000D03*
X65275000Y-56000000D03*
%TD*%
D15*
%TO.C,R1*%
X58500000Y-67725000D03*
X58500000Y-66275000D03*
%TD*%
D10*
%TO.C,R9*%
X45275000Y-35000000D03*
X46725000Y-35000000D03*
%TD*%
D16*
%TO.C,C3*%
X71900000Y-59225000D03*
X69900000Y-59225000D03*
%TD*%
D15*
%TO.C,R2*%
X62500000Y-67725000D03*
X62500000Y-66275000D03*
%TD*%
D17*
%TO.C,U1*%
X70000000Y-56000000D03*
D18*
X71400000Y-56750000D03*
X71400000Y-56250000D03*
X71400000Y-55750000D03*
X71400000Y-55250000D03*
D19*
X70750000Y-54600000D03*
X70250000Y-54600000D03*
X69750000Y-54600000D03*
X69250000Y-54600000D03*
D18*
X68600000Y-55250000D03*
X68600000Y-55750000D03*
X68600000Y-56250000D03*
X68600000Y-56750000D03*
D19*
X69250000Y-57400000D03*
X69750000Y-57400000D03*
X70250000Y-57400000D03*
X70750000Y-57400000D03*
%TD*%
D20*
%TO.C,C4*%
X67000000Y-52775000D03*
X67000000Y-54225000D03*
%TD*%
D16*
%TO.C,C10*%
X15400000Y-27000000D03*
X13400000Y-27000000D03*
%TD*%
D21*
%TO.C,U4*%
X17500000Y-24700000D03*
X17500000Y-27000000D03*
D22*
X23800000Y-27000000D03*
D21*
X17500000Y-29300000D03*
%TD*%
D10*
%TO.C,R4*%
X89275000Y-66000000D03*
X90725000Y-66000000D03*
%TD*%
D23*
%TO.C,L1*%
X74850000Y-58200000D03*
X74850000Y-54850000D03*
%TD*%
D10*
%TO.C,C8*%
X87275000Y-69000000D03*
X88725000Y-69000000D03*
%TD*%
%TO.C,R3*%
X85275000Y-66000000D03*
X86725000Y-66000000D03*
%TD*%
D24*
%TO.C,D3*%
X44050000Y-70500000D03*
X39750000Y-70500000D03*
%TD*%
D25*
%TO.C,Q1*%
X62050000Y-77000000D03*
X63950000Y-77000000D03*
X63000000Y-75000000D03*
%TD*%
D26*
%TO.C,C1*%
X66700000Y-59225000D03*
X68700000Y-59225000D03*
%TD*%
D15*
%TO.C,C7*%
X85500000Y-54725000D03*
X85500000Y-53275000D03*
%TD*%
M02*
