%TF.GenerationSoftware,KiCad,Pcbnew,10.0.6-10.0.6~ubuntu22.04.1*%
%TF.CreationDate,2026-09-17T10:35:55+07:00*%
%TF.ProjectId,esp32-e220,65737033-322d-4653-9232-302e6b696361,rev?*%
%TF.SameCoordinates,Original*%
%TF.FileFunction,Soldermask,Top*%
%TF.FilePolarity,Negative*%
%FSLAX46Y46*%
G04 Gerber Fmt 4.6, Leading zero omitted, Abs format (unit mm)*
G04 Created by KiCad (PCBNEW 10.0.6-10.0.6~ubuntu22.04.1) date 2026-09-17 10:35:55*
%MOMM*%
%LPD*%
G01*
G04 APERTURE LIST*
G04 Aperture macros list*
%AMRoundRect*
0 Rectangle with rounded corners*
0 $1 Rounding radius*
0 $2 $3 $4 $5 $6 $7 $8 $9 X,Y pos of 4 corners*
0 Add a 4 corners polygon primitive as box body*
4,1,4,$2,$3,$4,$5,$6,$7,$8,$9,$2,$3,0*
0 Add four circle primitives for the rounded corners*
1,1,$1+$1,$2,$3*
1,1,$1+$1,$4,$5*
1,1,$1+$1,$6,$7*
1,1,$1+$1,$8,$9*
0 Add four rect primitives between the rounded corners*
20,1,$1+$1,$2,$3,$4,$5,0*
20,1,$1+$1,$4,$5,$6,$7,0*
20,1,$1+$1,$6,$7,$8,$9,0*
20,1,$1+$1,$8,$9,$2,$3,0*%
G04 Aperture macros list end*
%ADD10RoundRect,0.140000X-0.210000X-0.210000X0.210000X-0.210000X0.210000X0.210000X-0.210000X0.210000X0*%
%ADD11RoundRect,0.100000X-0.250000X-0.500000X0.250000X-0.500000X0.250000X0.500000X-0.250000X0.500000X0*%
%ADD12RoundRect,0.150000X-0.225000X-0.300000X0.225000X-0.300000X0.225000X0.300000X-0.225000X0.300000X0*%
%ADD13R,1.700000X1.700000*%
%ADD14O,1.700000X1.700000*%
%ADD15RoundRect,0.356000X-0.534000X-1.219000X0.534000X-1.219000X0.534000X1.219000X-0.534000X1.219000X0*%
%ADD16RoundRect,0.160000X-0.290000X-0.240000X0.290000X-0.240000X0.290000X0.240000X-0.290000X0.240000X0*%
%ADD17RoundRect,0.240000X-0.410000X0.360000X-0.410000X-0.360000X0.410000X-0.360000X0.410000X0.360000X0*%
%ADD18C,2.000000*%
%ADD19RoundRect,0.140000X0.210000X0.210000X-0.210000X0.210000X-0.210000X-0.210000X0.210000X-0.210000X0*%
%ADD20R,1.700000X2.000000*%
%ADD21O,1.700000X2.000000*%
%ADD22RoundRect,0.160000X0.240000X-0.290000X0.240000X0.290000X-0.240000X0.290000X-0.240000X-0.290000X0*%
%ADD23RoundRect,0.140000X0.210000X0.510000X-0.210000X0.510000X-0.210000X-0.510000X0.210000X-0.510000X0*%
%ADD24C,3.200000*%
%ADD25R,0.600000X0.240000*%
%ADD26R,0.240000X0.600000*%
%ADD27R,1.680000X1.680000*%
%ADD28RoundRect,0.140000X-0.210000X0.210000X-0.210000X-0.210000X0.210000X-0.210000X0.210000X0.210000X0*%
%ADD29RoundRect,0.240000X0.360000X0.410000X-0.360000X0.410000X-0.360000X-0.410000X0.360000X-0.410000X0*%
%ADD30RoundRect,0.050000X-1.075000X-0.475000X1.075000X-0.475000X1.075000X0.475000X-1.075000X0.475000X0*%
%ADD31RoundRect,0.050000X-1.075000X-1.625000X1.075000X-1.625000X1.075000X1.625000X-1.075000X1.625000X0*%
%ADD32R,3.400000X0.980000*%
%ADD33RoundRect,0.432000X0.648000X0.698000X-0.648000X0.698000X-0.648000X-0.698000X0.648000X-0.698000X0*%
%ADD34R,0.800000X0.900000*%
%ADD35RoundRect,0.240000X-0.360000X-0.410000X0.360000X-0.410000X0.360000X0.410000X-0.360000X0.410000X0*%
%ADD36RoundRect,0.140000X0.210000X-0.210000X0.210000X0.210000X-0.210000X0.210000X-0.210000X-0.210000X0*%
G04 APERTURE END LIST*
D10*
%TO.C,C6*%
X20580000Y-49750000D03*
X22030000Y-49750000D03*
%TD*%
D11*
%TO.C,U3*%
X88050000Y-55300000D03*
X89000000Y-55300000D03*
X89950000Y-55300000D03*
X89950000Y-52700000D03*
X88050000Y-52700000D03*
%TD*%
D12*
%TO.C,C5*%
X23275000Y-48000000D03*
X24725000Y-48000000D03*
%TD*%
D13*
%TO.C,J3*%
X7880000Y-53500000D03*
D14*
X10420000Y-53500000D03*
X12960000Y-53500000D03*
X15500000Y-53500000D03*
X18040000Y-53500000D03*
X20580000Y-53500000D03*
X23120000Y-53500000D03*
%TD*%
D15*
%TO.C,F1*%
X41635000Y-76000000D03*
X46865000Y-76000000D03*
%TD*%
D13*
%TO.C,J1*%
X111000000Y-14000000D03*
D14*
X111000000Y-16540000D03*
X111000000Y-19080000D03*
X111000000Y-21620000D03*
X111000000Y-24160000D03*
X111000000Y-26700000D03*
X111000000Y-29240000D03*
X111000000Y-31780000D03*
X111000000Y-34320000D03*
X111000000Y-36860000D03*
X111000000Y-39400000D03*
X111000000Y-41940000D03*
X111000000Y-44480000D03*
X111000000Y-47020000D03*
X111000000Y-49560000D03*
%TD*%
D16*
%TO.C,R8*%
X39150000Y-35000000D03*
X40850000Y-35000000D03*
%TD*%
D13*
%TO.C,J9*%
X100000000Y-54000000D03*
D14*
X100000000Y-56540000D03*
X100000000Y-59080000D03*
%TD*%
D13*
%TO.C,JP1*%
X96000000Y-14000000D03*
D14*
X98540000Y-14000000D03*
%TD*%
D17*
%TO.C,C9*%
X17500000Y-32000000D03*
X17500000Y-34000000D03*
%TD*%
D18*
%TO.C,TP2*%
X53000000Y-87000000D03*
%TD*%
D19*
%TO.C,C2*%
X66725000Y-56000000D03*
X65275000Y-56000000D03*
%TD*%
D20*
%TO.C,J8*%
X51000000Y-76000000D03*
D21*
X53500000Y-76000000D03*
%TD*%
D13*
%TO.C,J2*%
X136400000Y-14000000D03*
D14*
X136400000Y-16540000D03*
X136400000Y-19080000D03*
X136400000Y-21620000D03*
X136400000Y-24160000D03*
X136400000Y-26700000D03*
X136400000Y-29240000D03*
X136400000Y-31780000D03*
X136400000Y-34320000D03*
X136400000Y-36860000D03*
X136400000Y-39400000D03*
X136400000Y-41940000D03*
X136400000Y-44480000D03*
X136400000Y-47020000D03*
X136400000Y-49560000D03*
%TD*%
D18*
%TO.C,TP5*%
X68000000Y-87000000D03*
%TD*%
D20*
%TO.C,J4*%
X35000000Y-76000000D03*
D21*
X37500000Y-76000000D03*
%TD*%
D22*
%TO.C,R1*%
X58500000Y-67850000D03*
X58500000Y-66150000D03*
%TD*%
D18*
%TO.C,TP4*%
X63000000Y-87000000D03*
%TD*%
D16*
%TO.C,R9*%
X45150000Y-35000000D03*
X46850000Y-35000000D03*
%TD*%
D23*
%TO.C,C3*%
X71900000Y-59225000D03*
X69900000Y-59225000D03*
%TD*%
D22*
%TO.C,R2*%
X62500000Y-67850000D03*
X62500000Y-66150000D03*
%TD*%
D24*
%TO.C,H3*%
X96000000Y-83000000D03*
%TD*%
D25*
%TO.C,U1*%
X71400000Y-56750000D03*
X71400000Y-56250000D03*
X71400000Y-55750000D03*
X71400000Y-55250000D03*
D26*
X70750000Y-54600000D03*
X70250000Y-54600000D03*
X69750000Y-54600000D03*
X69250000Y-54600000D03*
D25*
X68600000Y-55250000D03*
X68600000Y-55750000D03*
X68600000Y-56250000D03*
X68600000Y-56750000D03*
D26*
X69250000Y-57400000D03*
X69750000Y-57400000D03*
X70250000Y-57400000D03*
X70750000Y-57400000D03*
D27*
X70000000Y-56000000D03*
%TD*%
D28*
%TO.C,C4*%
X67000000Y-52775000D03*
X67000000Y-54225000D03*
%TD*%
D29*
%TO.C,C10*%
X15400000Y-27000000D03*
X13400000Y-27000000D03*
%TD*%
D30*
%TO.C,U4*%
X17750000Y-24700000D03*
X17750000Y-27000000D03*
D31*
X23550000Y-27000000D03*
D30*
X17750000Y-29300000D03*
%TD*%
D16*
%TO.C,R4*%
X89150000Y-66000000D03*
X90850000Y-66000000D03*
%TD*%
D32*
%TO.C,L1*%
X74850000Y-58200000D03*
X74850000Y-54850000D03*
%TD*%
D24*
%TO.C,H2*%
X80000000Y-7000000D03*
%TD*%
%TO.C,H1*%
X7000000Y-7000000D03*
%TD*%
D10*
%TO.C,C8*%
X87275000Y-69000000D03*
X88725000Y-69000000D03*
%TD*%
D16*
%TO.C,R3*%
X85150000Y-66000000D03*
X86850000Y-66000000D03*
%TD*%
D13*
%TO.C,J5*%
X63000000Y-20000000D03*
D14*
X63000000Y-22540000D03*
X63000000Y-25080000D03*
X63000000Y-27620000D03*
%TD*%
D18*
%TO.C,TP1*%
X48000000Y-87000000D03*
%TD*%
D33*
%TO.C,D3*%
X44350000Y-70500000D03*
X39449999Y-70500000D03*
%TD*%
D34*
%TO.C,Q1*%
X62050000Y-77000000D03*
X63950000Y-77000000D03*
X63000000Y-75000000D03*
%TD*%
D13*
%TO.C,J6*%
X94000000Y-18000000D03*
D14*
X94000000Y-20540000D03*
X94000000Y-23080000D03*
X94000000Y-25620000D03*
X94000000Y-28160000D03*
X94000000Y-30700000D03*
%TD*%
D35*
%TO.C,C1*%
X66700000Y-59225000D03*
X68700000Y-59225000D03*
%TD*%
D36*
%TO.C,C7*%
X85500000Y-54725000D03*
X85500000Y-53275000D03*
%TD*%
D18*
%TO.C,TP3*%
X58000000Y-87000000D03*
%TD*%
M02*
